<?xml version="1.0" encoding="UTF-8"?>
<svg xmlns="http://www.w3.org/2000/svg" xmlns:xlink="http://www.w3.org/1999/xlink" width="150px" height="150px" viewBox="0 0 35 35" version="1.1">
<g id="surface1">
<path style="fill:none;stroke-width:2;stroke-linecap:butt;stroke-linejoin:miter;stroke:rgb(73.333333%,54.901961%,29.019608%);stroke-opacity:1;stroke-miterlimit:10;" d="M 47.960938 59.40625 C 46.210938 59.671875 44.5625 60.101562 42.890625 60.109375 C 39.789062 60.132812 38.679688 58.90625 39.007812 55.84375 C 39.226562 53.796875 39.65625 51.773438 40.15625 49.773438 C 41.257812 45.421875 42.609375 41.117188 43.59375 36.742188 C 44.101562 34.476562 44.257812 32.046875 43.25 29.828125 C 41.789062 26.648438 39.023438 25.429688 35.726562 25.078125 C 31.75 24.65625 28.140625 26.0625 24.523438 27.390625 C 22.367188 28.179688 21.929688 28.9375 22.0625 31.546875 C 23.039062 31.296875 23.992188 30.960938 24.960938 30.820312 C 30.429688 30.046875 31.421875 31.859375 30.671875 36.21875 C 30.140625 39.328125 29.117188 42.351562 28.40625 45.429688 C 27.523438 49.257812 26.460938 53.078125 25.9375 56.960938 C 25.421875 60.898438 27.789062 64.007812 31.601562 65.171875 C 32.5625 65.460938 33.570312 65.578125 34.570312 65.6875 C 38.320312 66.117188 41.710938 64.820312 45.101562 63.507812 C 47.710938 62.53125 47.859375 62.359375 47.960938 59.40625 Z M 47.960938 59.40625 " transform="matrix(0.5,0,0,0.5,0,0)"/>
<path style="fill:none;stroke-width:2;stroke-linecap:butt;stroke-linejoin:miter;stroke:rgb(73.333333%,54.901961%,29.019608%);stroke-opacity:1;stroke-miterlimit:10;" d="M 34.960938 18.609375 C 39.226562 18.640625 42.671875 15.492188 42.710938 11.507812 C 42.75 7.539062 39.359375 4.273438 35.140625 4.203125 C 30.898438 4.140625 27.289062 7.460938 27.289062 11.398438 C 27.289062 15.367188 30.71875 18.578125 34.960938 18.609375 Z M 34.960938 18.609375 " transform="matrix(0.5,0,0,0.5,0,0)"/>
</g>
</svg>
