<svg xmlns="http://www.w3.org/2000/svg" xmlns:xlink="http://www.w3.org/1999/xlink" viewBox="0 0 100 100" xmlns:v="https://vecta.io/nano"><g fill="#010101"><path d="M26.21 41.9h-.07v.08c.11 2.97.17 7.38.21 10.39.14-3.44.09-6.89-.06-10.32l4.08-.08c-1.16-.04-2.98-.05-4.16-.07zm-5.37 2.02c.59.07 1.19.11 1.79.1l.04 8.18-.03-8.18c.66 0 1.31-.05 1.97-.15a36.44 36.44 0 0 0-3.77.05zm5.57 0c.59.07 1.19.11 1.79.1l.04 8.18-.03-8.18c.66 0 1.31-.05 1.97-.15a36.44 36.44 0 0 0-3.77.05zm13.42 8.35l.16-8.06v-.1l-.1.02-1.47.25-.06.01c-.4 2.61-.43 5.28-.03 7.89-.27-2.58-.23-5.19.17-7.74l1.32-.22.01 7.95zm14.97-8.65l.09 8.53.07-8.61v-.08c-.9-.06-1.8-.07-2.7-.03h-.08v.08l-.19 8.41c.26-2.77.37-5.55.35-8.33l2.46.03zm14.25 8.65l.15-7.97v-.08h-.08l-1.94-.07v.08l-.16 5.91c.02.65-.07 1.34.22 1.95-.25-.62-.15-1.3-.15-1.95l.25-5.83 1.69.06.02 7.9zm8.29-8.05v-.08l-1.94.07h-.08v.08l.15 7.97.01-7.9 1.69-.06.25 5.83c0 .65.11 1.33-.15 1.95.29-.6.2-1.3.22-1.95l-.15-5.91zM55.11 25.56l.01-.04.01-.02.01-.01h-.01c-.38.02-.87-.04-1.26-.05-.09.01-.36-.04-.47.02h-3.04v13.33l.02 13.25.01-6.62.13-19.79 2.9-.01.08-.09c.01.03-.02.07-.03.07.38-.03.88.03 1.27.04.16 0 .33.04.47-.03.65-.03 9.85.05 10.08-.05.04.27.11.52.13.79.03.21-.04.41.02.62.02.06.07.12.13.15l.05 11.75.05-11.78v-.04c-.13-.02-.17-.15-.16-.29.05-.4-.06-.82-.12-1.21l-.01-.05h-.05l-10.17-.02-.05.08zm2.82 13.88h-.06v.06l.06 12.76.06-12.7 10.49.01 10.49-.01c.05 4.19.18 8.38.42 12.56-.17-4.2-.27-8.41-.3-12.62v-.06h-.06c-7.03.09-14.07-.16-21.1 0zm24.34 8.78l2.6-.22c1.71-.1 3.43-.1 5.14-.01l.09 3.22.11 1.09-.06-1.09v-3.35h-.07a37.89 37.89 0 0 0-5.22 0l-2.6.27c-.85.11-1.74.22-2.57-.07.81.32 1.72.25 2.58.16zm-64.23-.64l2.34.05-2.34-.05zm4.39-9.27l-.03-.65c-.05.22-.03.45.03.65zm.99.6c.03-.16.03-.33 0-.49-.03.16-.03.33 0 .49zm.99-.58a2.89 2.89 0 0 0 0-.72 2.89 2.89 0 0 0 0 .72zm1.99-.03c.05-.23.06-.48.02-.72-.02.24-.03.48-.02.72zm5.2-1.45l.01.69c.05-.23.04-.47-.01-.69z"/><path d="M100 52.49l-27.07-.06.03-8.41-1.86.02v.08c-.1 2.71-.07 5.44.12 8.15l.05-8.06 1.53-.01.13 8.24-36.68-.01.08-8.08v-.08a5.99 5.99 0 0 0-1.27.01c-.16.03-.39.01-.46.19-.06.12-.02.63-.03.77l.08 7.07.08-7.07v-.59c0-.05 0-.09.02-.11.03-.06.11-.06.19-.07a6.33 6.33 0 0 1 1.23-.04l.08 8-5.72.01c-.04-.44-.05-.89-.05-1.34l1.21.04c-.02.23-.01.46.02.68l-1.12.02a28.64 28.64 0 0 0 2.27 0v.45-.45h0 0v-.7h.02-.02v-.69h.05-.05l.01-1.47h.04-.04l.01-.77.02-5.53h.14c-.05 0-.09 0-.14-.01v-2.18h.04-.04v-3.07c3.33.14 6.68.16 10.02.07l-.05 14.62.39-23.81h-.15l-12.25.1.03-2.57c1.35.1 3.01.03 4.46-.02h.05v-.05l.02-3.23c2.16.01 4.32-.03 6.47-.08l13.07-.36c2.13-.07 4.51.01 6.51-.04l.03 3.37.03-3.37v-.03c-2.19-.08-4.38-.08-6.57-.07l-19.61.44h-.07v.07l.02 3.25c-1.48.07-2.97.11-4.45.1v.02l.01 2.57-6.57.06-18.84.22h-.14v.14l.52 23.57-.23-23.44 37.39-.39-.05 8.9c-3.33-.13-6.68-.15-10.02-.07l.01-1.46v-.07h-.07l-7.46-.06-7.46-.02h-.07v.07l.05 13.83h-.01.01l.02 2.13h-.05.05c0 .17 0 .34.01.51v-.51a32.28 32.28 0 0 0 2.41 0v.5c0-.16.01-.33.01-.5h.05-.05l.02-.73h.01-.01l.06-2.1c.07 0 .13-.01.2-.01h-.2l.02-.68h.05-.05l.11-4.19h0 0l.11-4.88c3.37-.14 6.75-.08 10.12.16l-.31 8.86h-.02.02l-.02.69h-.02.02l-.02.73c-.03.91-.04 1.83.05 2.74l-5.51.01.17-10.19v-.08h-.07l-3.12.04-1.04.02 1.04.03c.64.02 2.31.04 3.05.05l-.07 2.48a129.69 129.69 0 0 0 .05 7.64l-25 .06 30.53.07c.02.19.05.38.08.57-.03-.19-.05-.38-.07-.57l69.45-.04zm-67.14-.66l-1.15-.02c.02-.23.01-.46-.02-.68a22.43 22.43 0 0 0 1.16 0l.01.7zm-1.15-2.11c.38.03.76.12 1.13.05v.67c-.38-.01-.76-.01-1.14 0 .03-.24.03-.48.01-.72zm-.02-4.21a41.82 41.82 0 0 0 1.12.01v.66l-1.09-.02c.02-.22 0-.44-.03-.65zm-.04-4.22a6.66 6.66 0 0 1 .04.63 11.51 11.51 0 0 0-.83.03l.03-.7a22.83 22.83 0 0 0 1.85-.02 22.83 22.83 0 0 0-1.85.02l.03-.74a16.81 16.81 0 0 0 .71.01v.05-.05c.39 0 .77-.01 1.16-.03v1.49c-.36-.03-.72-.04-1.07-.04a1.57 1.57 0 0 0-.07-.65zm-.01-.81a3.53 3.53 0 0 0 0-.65c.39.01.77 0 1.16-.02v.66l-1.16.01zm-1.31-2.83a3.54 3.54 0 0 0 .04.73c-.66 0-1.32-.01-1.98-.01.02-.26.01-.53-.02-.79a4.17 4.17 0 0 0 .01.79c-.99 0-1.99-.01-2.98-.01v-.03.03l-7.39.01v-.69l2.41-.05c.02.24.03.48.04.73.05-.24.04-.49-.03-.73l3-.05v.02-.02l4.01-.03v.05c0-.02 0-.04.01-.05l5.36.01v.82c-.37 0-.74 0-1.12-.01v-.02.02c-.43 0-.86 0-1.29-.01-.01-.22-.02-.47-.07-.71zm-4.95-.72c.02.2.04.4.04.6l-2.01.02c.02-.21.02-.42-.01-.63l3.95-.04a6.61 6.61 0 0 1 .06.64l-1.98.01c.04-.2.03-.41-.05-.6zm7.41.64l-3.36-.04a1.34 1.34 0 0 0-.04-.66l.04.66c-.66 0-1.33-.01-1.99-.01a1.57 1.57 0 0 0-.08-.64l1.08-.01v.01-.01l4.36-.06c-.01.24-.01.5-.01.76zm-2.42-1.56c-.02.27-.02.54.01.8.03-.27.03-.54.01-.8l2.41.01v.8l-4.36.03c.03-.28.01-.56-.04-.84h1.97zm-9.93-.05l1.98.02c-.02.28-.02.55.01.83a5.75 5.75 0 0 0 0-.83l1.99.02a6.46 6.46 0 0 0 0 .88c.03-.29.03-.59 0-.88l.97.01h1.03c-.01.27-.03.53-.03.8.06-.26.07-.53.05-.8l1.95-.01.04.84-7.99.08c.02-.32.02-.64 0-.96zm-.01.99h0c.32-.01.65-.01.97-.01-.03.2-.03.4 0 .59.03-.2.03-.4 0-.59l2-.02c-.02.21-.02.42 0 .63l-5.4.14v-.73l2.43-.01h0zm0-.99a7.85 7.85 0 0 0 0 .97l-2.43.03v-1.02l2.43.02zM17.96 49.7a30.4 30.4 0 0 0 1.35.03 3.53 3.53 0 0 0 0 .65c-.45 0-.9 0-1.36.02.01-.23.01-.46.01-.7zm2.41 1.4a32.28 32.28 0 0 0-2.41.01c.8.02 1.6.02 2.41-.01l-.01.73-1.04-.02c.01-.02.01-.05.02-.06l-.03.04c.08-.13.05-.46.01-.62 0 .19 0 .44-.01.64-.46 0-.91 0-1.37.02l.01-1.43a30.84 30.84 0 0 0 1.36.02c0 .03 0 .06.01.08 0-.03 0-.06.01-.08.34 0 .69-.01 1.03-.02l-1.03-.02a4.7 4.7 0 0 0-.01-.65l1.06-.01-.01 1.38zm.01-1.38c-.81-.03-1.61-.04-2.42-.02v-.65a39.4 39.4 0 0 0 2.43-.05l-.01.72zm.02-1.42a19.56 19.56 0 0 0-1.09-.03c0-.02 0-.05-.01-.07 0 .02 0 .05-.01.07a24 24 0 0 0-1.2 0c-.03 0-.1.01-.12-.01l-.01-.03.01.03c.02.02.09.01.12.02l1.2.03c-.02.23-.02.45.01.68.02-.23.03-.45.01-.68.37.01.74 0 1.09-.01l-.01.69a49.26 49.26 0 0 0-2.43.06l.01-2.19a30.84 30.84 0 0 0 1.36.02 2.74 2.74 0 0 0 .01.64 2.74 2.74 0 0 0 .01-.64c.36 0 .72-.01 1.08-.02l-.03 1.44zm.02-1.44l-1.08-.02v-.01.01c-.45 0-.91 0-1.36.02v-.62c.82.07 1.64.08 2.45.04 0 .19 0 .38-.01.58zm.01-.59l-1.1-.02c.03-.27.02-.53 0-.8.37-.01.74-.01 1.12-.01-.81-.06-1.62-.05-2.42.05l1.31-.04c-.03.27-.03.53 0 .8L18 46.23l.01-1.41c.43.01.86 0 1.29 0v.03-.03l1.17-.04-.04 1.49zm.03-1.49h-1.17a6.64 6.64 0 0 0 .03-.63c.39 0 .77-.01 1.15-.03-.01.22-.01.44-.01.66zm.01-.66c-.38-.01-.77-.01-1.15-.01v-.03l-.01.03a27.76 27.76 0 0 0-1.29.03 55.05 55.05 0 0 0 1.28.01c-.04.21-.05.42-.03.63l-1.29.04.01-1.45a40.05 40.05 0 0 0 2.45.05 33.38 33.38 0 0 0-2.45-.05v-.72l1.32.02a2.66 2.66 0 0 0 .02.63 2.66 2.66 0 0 0-.02-.63 22.84 22.84 0 0 0 1.17-.03l-.01 1.48zm.03-2.13c-.84-.03-1.67-.04-2.51-.02a42.08 42.08 0 0 0 2.51.02c0 .21-.01.43-.01.64-.83-.01-1.67 0-2.5.02v-1.42l1.3.02c-.02.2-.02.4.01.59a2.33 2.33 0 0 0 0-.59l1.21-.01-.01.75zm.05-2.83l-.03 2.07c-.84-.03-1.68-.03-2.52-.01v-.71a34.1 34.1 0 0 0 2.48-.04 22.43 22.43 0 0 0-1.16 0c.01-.21 0-.41-.01-.62.4-.01.81-.03 1.21-.06l-1.21.01v-.05c0 .02 0 .04-.01.05a27.83 27.83 0 0 0-1.29.06c.43 0 .86 0 1.28-.02a2.16 2.16 0 0 0 .02.62l-1.32.04v-1.41c.85.03 1.7.03 2.55 0l.01.07zm.88-.1a2.56 2.56 0 0 0-.06-.62 2.21 2.21 0 0 0 .06.62l-.88.03v.01c-.85-.03-1.7-.03-2.55 0v-.72l7.39.03a3.02 3.02 0 0 0 .03.6c-1.32-.02-2.65 0-3.99.05zm4.33-.05h-.33a3.02 3.02 0 0 0-.03-.6h1.96c.02.22.02.43.03.65-.53-.03-1.08-.05-1.63-.05zm1.65.04a1.43 1.43 0 0 0-.03-.65h1.01v.05-.05h1a9.74 9.74 0 0 1 .12.75l-2.1-.1zm2.11.1a1.59 1.59 0 0 0-.13-.75h.98v.03-.03h1.29c-.02.27-.02.55.01.82.03-.27.02-.55 0-.82h1.11v1.41c-.39-.02-.77-.02-1.16-.02v-.04.04c-.22 0-.44.01-.65.02l.65.02c-.02.22-.02.44 0 .66l-.7.03.05-1.18v-.07a34 34 0 0 0-1.45-.12zm1.35 2.81h.83c0 .07.01.15 0 .22l.03-.22h1.08v.69a25.36 25.36 0 0 0-1.95-.01l.84.03a6.83 6.83 0 0 0 0 .64c.05-.21.05-.43 0-.64a20.54 20.54 0 0 0 1.11 0v.68c-.67-.03-1.34-.03-2 0l.06-1.39zm-.06 1.39c.67.03 1.34.03 2 0v.71c-.68-.02-1.36-.01-2.04.02l.04-.73zm-.04.73c.68.02 1.36.01 2.04-.02v.72l-1.13-.02c.02-.22.03-.45 0-.67-.03.22-.03.45-.02.67a28.85 28.85 0 0 0-.93.02c.02-.23.03-.47.04-.7zm-.03.7l.93.02v.04-.04c.38 0 .76 0 1.14-.02v.73l-1.13-.05v-.02.02c-.32-.01-.65-.01-.97-.01l.03-.67zm-.03.68l.97.05a3.54 3.54 0 0 0 .03.65c-.35 0-.69.01-1.04.02a17.36 17.36 0 0 0 .04-.72zm-.03.71l1.04.02a.09.09 0 0 0 .01.05v-.05c.36 0 .73-.01 1.09-.02v.64c-.72-.02-1.45-.02-2.17.02l.03-.66zm-.03.66a36.06 36.06 0 0 0 1.04.01 3.64 3.64 0 0 0-.01.66 9.65 9.65 0 0 0-1.07.09l.04-.76zm-.04.77a12.77 12.77 0 0 1 1.07-.05v.06-.06c.36 0 .73 0 1.09.02-.36-.05-.72-.07-1.09-.07.02-.22.02-.44-.01-.66a21.03 21.03 0 0 0 1.13-.03l.01 1.38.01.77c-.38-.04-.77-.08-1.15-.08.02-.2.02-.39.01-.59l1.11-.01a32.87 32.87 0 0 0-2.22-.02 14.6 14.6 0 0 0 .04-.66zm-.03.66a20.56 20.56 0 0 0 1.11.03c-.03.19-.04.39-.03.59-.37-.01-.74.01-1.11.06l.03-.68zm-.03.69a10.28 10.28 0 0 1 1.11-.02c0 .03 0 .07.01.1.01-.03.01-.07.01-.1.39.01.77.03 1.16.05l.01.8c-.38.03-.76-.06-1.14-.09v-.02.02h-.02c-.39-.03-.77-.02-1.16.01 0-.26.01-.51.02-.75zm-.03.73h0c.39 0 .77 0 1.16.03h.03c-.02.24-.02.48 0 .72a16.71 16.71 0 0 0-1.22.1c0-.28.01-.56.03-.85zm-.04.86l1.22-.06v.02-.02c.38-.02.76-.03 1.14-.04l.01.69c-.79-.04-1.59-.06-2.38-.04 0-.19.01-.37.01-.55zm-2.17 20.08l-2.54-6.08h-.17l-2.59 5.95c-.41.95-.89 1.48-1.36 1.7v.12h2.15v-.12c-.44-.27-.65-.79-.27-1.74l.16-.45h3l.24.58c.39.94.24 1.46-.15 1.6v.12h2.66v-.12c-.45-.28-.75-.67-1.13-1.56zm-4.48-.95l1.33-3.36 1.4 3.36h-2.73zm13.59 1.04l-2.83-6.05h-1.91v.12c.48.27.75.69.73 1.86l-.05 3.64c-.02 1.11-.36 1.7-.76 1.9v.12h1.97v-.12c-.41-.2-.75-.76-.77-1.91l-.1-4.31 3.06 6.47h.28l2.69-6.64v5.17c0 .75-.16 1.06-.47 1.21v.12h2.26v-.12c-.3-.16-.47-.47-.47-1.21V66c0-.75.16-1.06.47-1.21v-.12h-1.79l-2.31 6.04zm14.16-.09l-2.54-6.08h-.17l-2.59 5.95c-.41.95-.89 1.48-1.36 1.7v.12h2.15v-.12c-.44-.27-.65-.79-.27-1.74l.16-.45h3l.24.58c.39.94.24 1.46-.15 1.6v.12h2.66v-.12c-.45-.28-.76-.67-1.13-1.56zm-4.49-.95l1.33-3.36 1.4 3.36h-2.73zm13.37.11l-.87-1.06c1.09-.16 2.13-.76 2.13-2.03 0-1.25-.98-2.03-3.03-2.03h-2.61v.12c.3.15.47.45.47 1.21v4.97c0 .75-.16 1.06-.47 1.21v.12h2.26v-.12c-.28-.15-.47-.45-.47-1.21v-5.98h.45c1.31 0 1.93.66 1.93 1.74s-.65 1.85-2.07 2.01v.11l1.42 1.94c.95 1.23 1.44 1.63 2.21 1.63.41 0 .64-.1.85-.27l.01-.12c-.54-.29-1.1-.87-2.21-2.24zm11.43.84l-2.54-6.08h-.17l-2.59 5.95c-.41.95-.89 1.48-1.36 1.7v.12h2.15v-.12c-.44-.27-.65-.79-.27-1.74l.16-.45h3l.24.58c.39.94.24 1.46-.15 1.6v.12h2.66v-.12c-.45-.28-.76-.67-1.13-1.56zm-4.48-.95l1.33-3.36 1.4 3.36h-2.73zm-33.99 8.32h-.15c-.12 0-.17-.04-.17-.14v-1.02c0-.13.02-.18.08-.21v-.02h-.32v.02c.06.03.08.07.08.21v.99c0 .13-.02.18-.08.21v.02h.19.76v-.37h-.01c-.05.24-.13.31-.38.31z"/><path d="M34.44 77.91h-.42c.35-.27.77-.54.77-.89 0-.22-.17-.42-.47-.42-.23 0-.41.14-.41.3 0 .07.05.12.11.12s.1-.04.1-.1-.04-.09-.09-.11c.05-.11.15-.16.28-.16.19 0 .31.15.31.38 0 .35-.36.59-.73.9v.1h.89l.05-.25h-.02c-.07.09-.17.13-.37.13zm1.68 0h-.42c.35-.27.77-.54.77-.89 0-.22-.17-.42-.47-.42-.23 0-.41.14-.41.3 0 .07.05.12.11.12s.1-.04.1-.1-.04-.09-.09-.11c.05-.11.15-.16.28-.16.19 0 .31.15.31.38 0 .35-.36.59-.73.9v.1h.89l.05-.25h-.01c-.08.09-.19.13-.38.13zm2.51.08h-.18c-.12 0-.17-.04-.17-.14v-.52l.25.01c.13 0 .19.05.22.18h.02v-.43h-.02c-.03.13-.09.19-.22.19l-.26.01v-.64h.3c.23 0 .33.06.39.23h.02v-.29h-.71-.24v.02c.06.03.08.07.08.21v.99c0 .13-.02.18-.08.21v.02h.19.79v-.33H39c-.05.22-.12.28-.37.28zm2.08-.14l-.59-1.25h-.23v.02c.08.04.13.11.13.34l-.02.71c0 .22-.06.32-.13.35v.02h.34v-.02c-.07-.04-.13-.13-.13-.36l-.01-.83.58 1.22h.03l.55-1.27v1.02c0 .13-.02.18-.08.21v.02h.32v-.02c-.06-.03-.08-.07-.08-.21v-.99c0-.13.02-.18.08-.21v-.02h-.24l-.52 1.27z"/><use xlink:href="#B"/><path d="M44.51 77.63l-.22-.26c.25-.03.45-.16.45-.4 0-.23-.19-.37-.55-.37h-.41v.02c.06.03.08.07.08.21v.99c0 .13-.02.18-.08.21v.02h.32v-.02c-.06-.03-.08-.07-.08-.21v-1.16h.12c.27 0 .44.11.44.34 0 .22-.16.36-.47.37v.02l.31.37c.21.25.28.32.4.32.06 0 .1-.02.12-.04V78c-.1-.03-.16-.06-.43-.37zm2.29.17l-.51-1.23h-.02l-.48 1.14c-.08.2-.15.27-.23.31v.02h.34v-.02c-.06-.04-.1-.11-.01-.32l.05-.12h.62l.08.19c.06.15.04.22-.01.24v.02h.35v-.02c-.08-.03-.12-.06-.18-.21zm-.84-.27l.28-.71.29.71h-.57zm1.71-.57h.02c.04-.2.12-.31.34-.31h.15v1.16c0 .13-.02.18-.08.21v.02h.32v-.02c-.06-.03-.08-.07-.08-.21v-1.16h.15c.21 0 .3.11.34.31h.02v-.37h-1.17v.37zm2.64 1.03h-.18c-.12 0-.17-.04-.17-.14v-.52l.25.01c.13 0 .19.05.22.18h.02v-.43h-.02c-.03.13-.09.19-.22.19l-.26.01v-.64h.3c.23 0 .33.06.39.23h.02v-.29h-.71-.24v.02c.06.03.08.07.08.21v.99c0 .13-.02.18-.08.21v.02h.19.79v-.33h-.02c-.04.22-.11.28-.36.28z"/><use xlink:href="#C"/><path d="M54.88 76.61c.06.03.08.07.08.21v.46h-.8v-.46c0-.13.02-.18.08-.21v-.02h-.32v.02c.06.03.08.07.08.21v.99c0 .13-.02.18-.08.21v.02h.32v-.02c-.06-.03-.08-.07-.08-.21v-.47h.8v.47c0 .13-.02.18-.08.21v.02h.32v-.02c-.06-.03-.08-.07-.08-.21v-.99c0-.13.02-.18.08-.21v-.02h-.32v.02z"/><use xlink:href="#B" x="13.74"/><use xlink:href="#D"/><use xlink:href="#D" x="1.82"/><use xlink:href="#C" x="9.56"/></g><defs ><path id="B" d="M42.46 76.61c.06.03.08.07.08.21v.99c0 .13-.02.18-.08.21v.02h.32v-.02c-.06-.03-.08-.07-.08-.21v-.99c0-.13.02-.18.08-.21v-.02h-.32v.02z"/><path id="C" d="M51.67 76.87c0-.14.1-.25.26-.25s.3.12.36.34h.02v-.3c-.07-.05-.19-.09-.37-.09-.24 0-.42.15-.42.36 0 .45.7.41.7.81 0 .13-.09.27-.28.26-.15 0-.31-.1-.38-.36h-.02v.31c.09.05.21.1.41.1.25 0 .42-.16.42-.37-.01-.44-.7-.4-.7-.81z"/><path id="D" d="M58.08 77.99h-.15c-.12 0-.17-.04-.17-.14v-1.02c0-.13.02-.18.08-.21v-.02h-.32v.02c.06.03.08.07.08.21v.99c0 .13-.02.18-.08.21v.02h.19.76v-.37h-.02c-.04.24-.12.31-.37.31z"/></defs></svg>