<svg xmlns="http://www.w3.org/2000/svg" viewBox="0 0 100 32.68" xmlns:v="https://vecta.io/nano"><path d="M21.91 26.39l-1.98-2.38.04 1.51c.01.44.15.66.31.74v.05h-.79v-.05c.16-.08.29-.31.3-.74l.02-1.36c.01-.46-.12-.71-.32-.85v-.05h.52l1.87 2.28-.02-1.52c-.01-.42-.14-.63-.3-.72v-.05h.77v.05c-.16.08-.29.31-.3.72l-.05 2.36h-.07zm3.66-.75v.14c0 .3.07.42.19.49v.05h-.89v-.05c.12-.06.19-.19.19-.49v-.14h-1.35v-.25l1.49-2.05h.37v1.96h.45l-.06.34h-.39zm-.51-.35v-1.57l-1.05 1.57h1.05zm3.05 1.07c-.16 0-.39-.03-.5-.07l.02-.06c1.03.03 1.3-.66 1.34-1.31-.13.17-.39.36-.74.36-.44 0-.88-.3-.88-.93a1 1 0 0 1 1.07-1.06c.77 0 1.11.59 1.11 1.4 0 .93-.5 1.67-1.42 1.67zm.27-2.95c-.29 0-.51.3-.51.77s.2.77.62.77c.18 0 .37-.09.49-.2v-.22c0-.49-.16-1.12-.6-1.12zm7.32.76c0 .63-.49.97-1.17.97-.07 0-.14 0-.21-.02v-.05c.53-.07.79-.34.79-.89 0-.59-.34-.8-.82-.8h-.17v2.39c0 .29.07.43.19.49v.05h-.9v-.05c.12-.06.19-.19.19-.49v-1.98c0-.3-.07-.43-.19-.49v-.05h.72.33c.79.01 1.24.35 1.24.92zm4.12 2.09v.05h-1.06v-.05c.15-.05.21-.26.06-.64l-.09-.23h-1.2l-.07.18c-.15.38-.07.58.11.69v.05h-.86v-.05c.19-.09.38-.3.54-.68l1.03-2.38h.07l1.02 2.43c.16.37.28.52.45.63zm-1.15-1l-.56-1.34-.53 1.34h1.09zm4.75.16v.9h-1.65-.55v-.05c.12-.06.19-.2.19-.49V23.8c0-.3-.06-.42-.19-.49v-.05h.9v.05c-.11.06-.19.19-.19.49v2.03c0 .26.11.37.39.37h.18c.52 0 .73-.25.85-.77h.07zm1.44-2.16h.76l1.13 2.42.93-2.42h.72v.05c-.12.06-.19.19-.19.49v1.98c0 .3.07.42.19.49v.05h-.9v-.05c.12-.06.19-.19.19-.49v-2.07l-1.07 2.65h-.11l-1.22-2.58.04 1.72c.01.46.14.68.31.76v.05h-.79v-.05c.16-.08.29-.31.3-.76l.02-1.46c.01-.47-.1-.63-.29-.74v-.04zm7.39 3.64l-.02-.05c.28-.25.41-.56.41-1.11v-1.95c0-.3-.06-.42-.19-.49v-.05h.91v.05c-.12.06-.19.19-.19.49v1.83c-.01.68-.1 1.07-.92 1.28zm2.94-3.11c0-.3-.07-.43-.19-.49v-.05h.91v.05c-.12.06-.19.19-.19.49v1.47c0 .63.29.89.8.89.47 0 .75-.27.75-.88L57.26 24c0-.45-.19-.62-.35-.7v-.05h.88v.05c-.16.08-.33.25-.34.7l-.03 1.28c-.02.68-.35 1.06-1.02 1.06-.68 0-1.19-.26-1.19-1.05v-1.5zm4.06-.53h.76l1.13 2.42.93-2.42h.72v.05c-.12.06-.19.19-.19.49v1.98c0 .3.07.42.19.49v.05h-.9v-.05c.12-.06.19-.19.19-.49v-2.07L61 26.36h-.11l-1.22-2.58.04 1.72c.01.46.14.68.31.76v.05h-.79v-.05c.16-.08.29-.31.3-.76l.02-1.46c.01-.47-.1-.63-.29-.74v-.04zm7.44 2.31v.75h-1.64-.55v-.05c.12-.06.19-.18.19-.49V23.8c0-.3-.07-.43-.19-.49v-.05h.72 1.39v.7h-.06c-.14-.37-.38-.57-.86-.57h-.47v1.33l.39-.03c.29-.02.42-.18.5-.43h.05v.98h-.05c-.09-.25-.22-.39-.51-.41l-.38-.03v1.02c0 .26.11.37.37.37h.21c.49 0 .71-.2.84-.62h.05zm2.42.69v.05h-.9v-.05c.12-.06.19-.19.19-.49v-1.98c0-.3-.07-.43-.19-.49v-.05h.9v.05c-.11.06-.19.18-.19.49v1.98c0 .31.07.43.19.49zm2.55-1.33v-.05c.57-.06.82-.37.82-.8s-.25-.69-.77-.69h-.18v2.39c0 .3.07.43.19.49v.05h-.9v-.05c.12-.06.19-.19.19-.49V23.8c0-.3-.07-.43-.19-.49v-.05h1.04c.82 0 1.21.31 1.21.81 0 .51-.42.75-.85.81l.35.42c.44.55.67.78.89.9v.05c-.09.07-.18.11-.34.11-.31 0-.5-.16-.88-.65-.2-.24-.38-.5-.58-.78zm5.97 1.33v.05h-1.06v-.05c.15-.05.21-.26.06-.64l-.09-.23h-1.2l-.07.18c-.15.38-.07.58.11.69v.05h-.86v-.05c.19-.09.38-.3.54-.68l1.03-2.38h.07l1.02 2.43c.15.37.27.52.45.63zm-1.15-1l-.56-1.34-.53 1.34h1.09zm5.23-1.47v1.98c0 .3.07.42.19.49v.05H81v-.05c.12-.06.19-.19.19-.49v-.93h-1.44v.93c0 .3.07.42.19.49v.05h-.9v-.05c.12-.06.19-.19.19-.49v-1.98c0-.3-.07-.43-.19-.49v-.05h.9v.05c-.11.06-.19.18-.19.49v.92h1.44v-.92c0-.3-.07-.43-.19-.49v-.05h.9v.05c-.11.07-.19.19-.19.49z" fill="#6d6e71"/><path d="M20.46 17.02v.14h-2.95v-.14c.43-.15.59-.73.16-1.77l-.26-.64h-3.32l-.19.49c-.42 1.04-.19 1.62.3 1.93v.14h-2.38v-.14c.53-.25 1.06-.83 1.51-1.89l2.87-6.6h.19l2.82 6.75c.42.98.76 1.41 1.25 1.73zm-3.19-2.79l-1.55-3.73-1.47 3.73h3.02zm15.97-5.42l-4.87 8.07 2.09-.09c1.47-.08 2.22-.81 2.61-2.11h.15v2.48h-5.09-1.52v-.14l4.87-8.08-2.03.09c-1.35.06-2.05.77-2.44 2.05h-.16v-2.4h4.95 1.45v.13zm14.8 8.21v.14h-2.95v-.14c.43-.15.59-.73.16-1.77l-.26-.64h-3.32l-.19.49c-.42 1.04-.19 1.62.3 1.93v.14H39.4v-.14c.53-.25 1.06-.83 1.51-1.89l2.87-6.6h.19l2.82 6.75c.42.98.76 1.41 1.25 1.73zm-3.2-2.79l-1.55-3.73-1.47 3.73h3.02zm15.95.43v2.49h-4.58-1.52v-.14c.33-.16.52-.55.52-1.35v-5.51c0-.83-.18-1.17-.52-1.35v-.13h2.5v.14c-.31.16-.52.52-.52 1.35v5.63c0 .72.3 1.02 1.08 1.02h.5c1.43 0 2.04-.71 2.37-2.14h.17zm12.97.42v2.08H69.2h-1.52v-.14c.33-.16.52-.5.52-1.35v-5.51c0-.84-.19-1.18-.52-1.35v-.14h1.99 3.85v1.94h-.16c-.39-1.02-1.07-1.57-2.38-1.57h-1.31v3.69l1.09-.08c.79-.05 1.16-.49 1.38-1.2h.14v2.72h-.14c-.24-.69-.6-1.1-1.41-1.15l-1.07-.08v2.83c0 .72.3 1.02 1.02 1.02h.58c1.36 0 1.98-.57 2.33-1.72h.17zm14.75 1.94v.14h-2.95v-.14c.43-.15.59-.73.16-1.77l-.26-.64h-3.32l-.19.49c-.42 1.04-.19 1.62.3 1.93v.14h-2.38v-.14c.53-.25 1.06-.83 1.51-1.89l2.87-6.6h.19l2.82 6.75c.42.98.76 1.41 1.25 1.73zm-3.2-2.79l-1.55-3.73-1.47 3.73h3.02z"/></svg>