<svg xmlns="http://www.w3.org/2000/svg" xmlns:xlink="http://www.w3.org/1999/xlink" viewBox="0 0 100 100" xmlns:v="https://vecta.io/nano"><use xlink:href="#B"/><use xlink:href="#C"/><path d="M37.97 74.58c-.82-.59-2.04-.87-3.06-1.2-.51-.17-.96-.35-1.28-.59s-.52-.52-.52-.91c0-.48.29-.87.73-1.15.44-.27 1.04-.42 1.64-.42.57 0 1.15.14 1.61.43s.81.74.94 1.36l.06.33.01-.34v-.08c0-.67-.39-1.19-.97-1.54s-1.34-.53-2.09-.53c-.72 0-1.44.17-1.99.53a1.95 1.95 0 0 0-.91 1.68c0 .74.36 1.28.9 1.69.8.61 1.99.95 2.98 1.34.49.19.94.4 1.25.65.32.25.51.55.51.94 0 .5-.33.89-.84 1.16s-1.2.41-1.9.41c-.72 0-1.44-.15-1.98-.47s-.9-.79-.9-1.44c0-.06 0-.13.01-.19l-.08-.01a1.65 1.65 0 0 0-.06.43c0 .65.42 1.16 1.05 1.5s1.46.52 2.31.52c.86 0 1.73-.19 2.39-.58s1.1-1 1.1-1.82c.01-.77-.36-1.3-.91-1.7z"/><use xlink:href="#C" x="18.17"/><use xlink:href="#B" x="41.1"/><use xlink:href="#C" x="41.1"/><path d="M79.55 70.16s0 .02.01.05c0 .01.01.03.01.04.01.01.02.03.04.04.04.01.11.07.18.17.22.3.5.97.5 1.98v4.29l-6.17-6.61h-.55v.04 8.26h1.03v-.04s0-.02-.01-.05c0-.01-.01-.03-.02-.04s-.03-.03-.05-.03h0c-.04-.01-.11-.07-.18-.17-.22-.3-.51-1.02-.51-2.26v-4.34l6.47 6.94h.2.04v-8.3h-1.01v.03z"/><use xlink:href="#C" x="60.22"/><path d="M98.55 77.41s-.02 0-.05.01c-.02.01-.06.01-.08.05h0 0c-.01.03-.07.1-.2.17-.37.22-1.27.51-2.88.51h-1.49v-8.03H92.7v8.3h5.55l.01-.03.35-.98h-.06zM34.59 42.02v-.03a11.03 11.03 0 0 1-1.63-.23c-.63-.17-1.41-.34-1.74-.96-.17-.39.07-.81.33-1.1.19-.19.45-.31.7-.42 1.28-.51 2.65-.74 4.01-.97 3.27-.51 6.58-.79 9.88-.81.88.01 7.1-.04 4.85 1.81l.01.02c.39-.28.81-.73.34-1.17-1.91-1.41-9.32-.84-11.85-.6-1.65.19-3.3.43-4.93.78-1.02.24-2.09.48-2.99 1.05-.31.24-.53.6-.6.98-.13 1.45 2.6 1.62 3.62 1.65zm14.54 6.84c-3.03-.47-6.12-.06-9.14.29l-6 1.11-2.94.88c-.21.1-.45.19-.62.37-.84.91-.19 1.55.82 1.69l.01-.03c-.84-.17-1.53-.69-.79-1.5.16-.2.41-.28.64-.38.95-.35 1.94-.57 2.93-.79 2.82-.62 14.56-2.7 16.43-.93.18.19.15.47.04.69s-.28.41-.46.59l.02.02c1.31-1.14.33-1.77-.94-2.01z"/><path d="M53 65.09a3.89 3.89 0 0 0-.68-.32l-.01-2.74c.17-.25.4-.46.66-.64 2.07-1.34 4.67-.75 6.97-.55 2.03.23 4.12.26 6.09-.32.66-.17 1.3-.41 1.94-.66l-.01-.03-1.97.53c-1.31.32-2.66.41-4 .34-2.7-.08-5.54-.96-8.18.07-.58.27-1.16.63-1.5 1.18l.02-2.19 2.81-.63-2.81.48.29-7.46.04-.71c1.17-.39 2.39-.63 3.6-.85 2.36-.4 4.75-.61 7.14-.71h7.19v-.09c-5.4-.56-10.91-.64-16.26.39a39.57 39.57 0 0 0-1.61.39c.25-3.55.7-7.11 1-10.67.44-.1.89-.19 1.33-.28 4.5-.82 9.08-1.17 13.64-1.52l-.01-.09c-4.61.02-9.19.19-13.77.89l-1.13.21c.31-3.97.42-7.94-.14-11.91-.12-.92-.31-1.83-.55-2.73l-.09.03c.09.53.16 1.05.22 1.58-.17-.32-.41-.62-.71-.88-.45-.4-1-.65-1.32-1.16-.05-.07-.09-.14-.12-.21.48-.84 1.79-1.26 2.65-1.48 1.55-.36 3.16-.38 4.75-.25.92.09 1.94.18 2.86.22 6.35.21 12.83.07 19.11-.22-6.32-.06-12.79.13-19.1-.07-.92-.03-1.93-.11-2.85-.19-1.61-.1-3.24-.05-4.81.35-.86.25-2.16.71-2.64 1.56-.39-1.02.9-1.81 1.78-2.12 1.68-.6 3.5-.67 5.27-.56 7.14.61 14.34.27 21.5.14.57 0 1.2-.14 1.69.24.46.33.68.98.49 1.52-.04.13-.11.27-.17.41l-.17.41c-.19.47-.86 2.01-1.05 2.48l.12.05.77-1.62.68-1.42.05-.1.05-.12c.43-1.2-.56-2.36-1.79-2.27h-.22-.45c-6.25-.07-12.52-.07-18.76-.44-.88-.05-1.79-.18-2.66-.26-1.24-.11-2.51-.11-3.79.07-1.91.25-5.01 1.31-4.43 3.8.17.66.68 1.21 1.16 1.58.17.12.51.36.65.49.4.39.69.84.57 1.3-.22.53-1.15.57-1.76.54l-11.87-.74c-2.41-.07-4.81-.11-7.25 0-1.29.07-2.53.11-3.81.48-1.82.5-3.18 1.9-2.59 3.87.24.79.64 1.38 1.06 1.92.63.78 1.33 1.43 2.11 2.03.15.12.32.25.44.41-.2.18-.43.28-.72.4-.76.29-1.57.44-2.39.57-2.3.35-4.59.36-6.93.12l-7.14-.68c-2.63-.14-10.81-1.01-9.76 3.47.3 1.6 1.14 3.05 2.29 4.19l-.11 2.16c-.84.13-1.51.31-1.92.59-.28.2-.48.5-.56.84-.23 1.2 1.22 1.89 2.29 2.24l-.21 4.84c-.73.19-1.43.51-1.66 1.27-.23 1.14.3 2.15 1.52 2.19l-.24 6.17c-.53.25-1 .61-1.21 1.17-.51 1.41.14 2 1.09 2.11l-.22 6.95c-.44.32-.76.82-.86 1.35-.18.82.13 1.68.78 2.17L2.66 80l.17-1.96a1.18 1.18 0 0 0 .19.11l.01.01h0 0c.03-.04.01-.02.02-.02h0c-.03-.03-.09-.07-.13-.1-.03-.02-.06-.05-.09-.07l.27-3.39c.29-.16.62-.25.94-.33 1.72-.46 3.55-.57 5.26-.64-1.33-.18-2.69-.13-4.01.07-.73.14-1.48.23-2.16.55l.44-6.74c.41-.03.85-.12 1.25-.25l-.01-.05a5.66 5.66 0 0 1-1.23.14l.15-2.95c.19-.06.38-.11.56-.16 1.33-.31 2.69-.39 4.05-.47 3.62-.24 7.32-.07 10.85-1.01l-.01-.05c-.9.16-1.79.26-2.7.32-1.56.11-3.85.14-5.43.17-2.29.08-4.61.08-6.86.63-.14.04-.29.08-.44.13l.33-9.03.51-.06c.94-.09 1.89-.11 2.83-.14l2.84-.13c1.89-.13 3.75-.53 5.63-.77a82.59 82.59 0 0 1 5.65-.6v-.06c-2.86-.13-5.72.12-8.55.51-.93.14-1.84.24-2.78.3-1.86.16-3.75.14-5.68.4a8.28 8.28 0 0 0-.44.08l.16-7.94c1-.08 2.01-.08 3.02-.08 3.18.03 6.36.15 9.54.08 2.12-.06 4.26-.14 6.32-.68l-.02-.06c-.52.08-1.05.14-1.57.18-2.63.16-5.27.06-7.91-.01-1.86 0-6.42-.29-9.38.07l.02-1.84a9.16 9.16 0 0 0 1.32 1l.07-.11a8.61 8.61 0 0 1-1.38-1.18l.03-4.45h-.06l-.24 4.15c-.9-1.03-1.56-2.28-1.85-3.62-.09-.53-.21-1.1.01-1.61.75-1.72 4.01-1.62 5.66-1.61 4.78.12 9.49 1.21 14.27 1.33 1.04.02 5.46-.14 7.09-1.26l-.06 2.27a165.64 165.64 0 0 1-.42 7.03c-1.23.18-2.44.41-3.64.75-1.13.37-2.36.76-3.15 1.71-.93 1.18.14 2.44 1.19 3.05l.05-.08c-.86-.58-1.86-1.79-.99-2.77 1.33-1.39 4.52-1.76 6.41-2.01.03 0 .06-.01.09-.01-.28 3.23-.68 6.45-1.23 9.64l-.21 1.19-2.1.36c-1.19.25-2.41.47-3.54.95-.18.09-.38.18-.55.33-.09.08-.18.18-.25.27-.96 1.11-.27 1.86.98 1.96l.01-.09c-1.09-.17-1.69-.76-.79-1.69.2-.23.44-.38.72-.48.55-.21 1.14-.34 1.73-.46s1.18-.21 1.77-.3l1.92-.25c-.14.84-.27 1.68-.38 2.52-.19 1.44-.35 2.89-.47 4.33l.08.01.8-4.29.54-2.64c6.9-.8 13.87-1.01 20.8-1.56 1.64-.18 3.68-.87 2.01-2.72-.16-.22-.47-.37-.52-.65 0-.54.74-.9 1.16-1.13a12.79 12.79 0 0 1 .65-.29 105.4 105.4 0 0 0-.1 7.95 90.54 90.54 0 0 1-6.97.77l-7.03.41c-1.76.13-3.53.37-5.25.79-.85.22-1.79.4-2.49.99-.87.7-.55 1.74.19 2.38l.02-.02c-.21-.2-.38-.44-.51-.71-.73-1.69 1.64-2.18 2.83-2.44 4.02-.87 8.17-.81 12.25-1.12 2.3-.2 4.66-.47 6.95-.88a107.09 107.09 0 0 0 .23 4.75c-1.99-.57-5.06-.49-6.77-.45-2.12.06-4.23.24-6.33.5-3.15.39-6.29.92-9.33 1.8 6.11-1.26 12.53-2.11 18.84-2.07 1.05.02 2.11.08 3.15.26.15.03.3.06.46.1a107.7 107.7 0 0 0 .38 4.03h.09l-.04-1.39-.03-2.53c.22.07.43.16.63.28.56.31.55.85.16 1.3l.02.02c.43-.44.44-1.02-.15-1.38zM2.7 77.84c-.8-.78-.81-2.21.03-2.98l.04-.04-.07 3.02zm.4-13.06l-.09 2.51c-.82-.14-1.22-.68-.85-1.64.15-.49.52-.8.95-1.02-.01.05-.01.1-.01.15zm.27-6.82c-.44-.06-.87-.29-1.1-.67-.29-.56-.28-1.51.3-1.89.28-.18.59-.3.91-.37l-.11 2.93zm.35-8.34c-.34-.15-.66-.31-.97-.51-.82-.5-1.5-1.37-.55-2.14.5-.3 1.09-.36 1.67-.42l-.15 3.07zm25-13.86h0 0 0zm-.48-1.8a9.95 9.95 0 0 1-1.22-1.29c-.73-.96-.99-1.71-.92-2.29.62-1.11 2.67-1.21 3.79-1.29 1.86-.11 3.73-.09 5.6-.04 3.72.06 7.53.4 11.19.58-3.71-.48-7.44-.79-11.18-.89-1.87-.04-3.75-.05-5.62.11-1.09.07-2.95.31-3.7 1.21.53-1.43 3.33-1.68 5.32-1.73 5.96-.19 11.94.23 17.88.64.87.06 1.87.2 2.71-.08.67-.21 1.08-.59 1.28-1.04.23 3.82-.06 7.62-.46 11.43-1.54.36-3.2.96-3.58 2.2-.2.59.07 1.35.29 1.78.13.27.23.5.26.64.03.11.01.11-.01.18-.01.01-.01.03-.02.04l-.01.02a.86.86 0 0 1-.29.19c-.67.29-1.47.35-2.24.43l-13.68.82-4.17.41c.25-3.24.34-6.49.22-9.73.13-.27.14-.58-.04-.93a69.14 69.14 0 0 0-.41-4.98h-.08c.05 1.47.06 2.95.05 4.42-.29-.28-.65-.51-.96-.81zm23.91 12.56a124.2 124.2 0 0 0-.33 4.33c-1.08.38-2.12.9-2.57 1.66a1.32 1.32 0 0 0 .19 1.54c.28.29.7.67.76 1.03-.45.38-1.15.46-1.84.56-5.28.4-10.82.68-16.09 1.29-1.49.16-2.97.35-4.45.57.37-1.77.74-3.55.99-5.3.26-1.83.47-3.67.62-5.51 5.41-.5 10.85-.58 16.27-.86 1.42-.12 2.91-.11 4.25-.67.57-.23.98-.84.8-1.47-.38-1.21-1.29-1.97.24-2.85.58-.31 1.2-.54 1.84-.72l-.68 6.4z"/><path d="M82.91 64.11c.33-.47.17-1.14-.21-1.53a1.82 1.82 0 0 0-.7-.43c-.47-.17-1.02-.2-1.53-.2l-.17-10.68c.83 0 1.66.08 2.43.35.54.21.75.59.47 1.07-.13.2-.43.37-.66.49-.54.29-1.13.53-1.7.75l.02.06c.6-.17 1.2-.36 1.77-.62.43-.19.89-.45.98-.96.24-1.39-2.23-1.56-3.32-1.62l-.09-5.04c.74-.09 1.47-.24 2.14-.56.35-.18.75-.49.72-.93-.07-.66-1.09-.91-1.63-1.06l-1.27-.24-.04-8.4.65-.04c.35 0 .75.03 1.08.12.44.12.77.37.87.82.3.99-1.28 1.46-2.02 1.66l.01.06c.78-.13 1.67-.32 2.18-.98.33-.47.17-1.14-.21-1.53a1.82 1.82 0 0 0-.7-.43c-.5-.17-1.08-.21-1.61-.2l-.26.01.04-3.35.06-3a3.7 3.7 0 0 1 .74.13c.18.07.37.14.51.27.07.05.13.13.19.2l.07.12c.41.76-.5 1.33-1.13 1.54l.01.06c.24-.05.46-.13.68-.23.5-.22.94-.73.77-1.3-.01-.11-.08-.25-.13-.34-.06-.1-.13-.21-.22-.29-.25-.26-.61-.41-.95-.51a9.87 9.87 0 0 0-.53-.1l.01-.23c.09-1.84-.64-3.88-2.7-4.13l-.01.09c.95.18 1.74.94 2.04 1.85.27.76.25 1.57.19 2.37-1.15-.08-2.31.1-3.44.27l-8.45 1.36-2.82.44s-1.88.35-2.77.69l.02.06c1.82-.42 3.78-.5 5.64-.7a77.27 77.27 0 0 0 5.68-.71l2.8-.55c.92-.18 1.84-.31 2.75-.38l.55-.01v.05l-.33 5.87-.02.5c-.74.07-1.47.19-2.2.33l-9.52 1.82-6.4.87v.06c2.18.09 4.34-.17 6.48-.45l6.39-1.07 5.23-1.02-.11 8.22-1.01-.06c-3.23-.12-6.45.24-9.63.73a91.91 91.91 0 0 0-6.33 1.25l.01.05.8-.12 8.76-1.17c2.44-.21 4.95-.43 7.41-.24l.03 2.49c-.03 0-.05.01-.08.01v.05c.03 0 .05 0 .08-.01l.12 4.93c-4.14.02-8.23.8-12.35 1.08-1.87.06-3.75.34-5.59.64l-3.69.65.01.06 3.73-.39c1.55-.16 3.09-.34 4.63-.4.92-.01 1.92-.06 2.83-.13l9.3-.95 1.14-.06.52 10.67c-.93.05-1.85.2-2.76.37l-9.52 1.82c-2.12.36-4.25.76-6.4.87v.06c2.18.09 4.34-.17 6.48-.45s4.27-.67 6.39-1.07c1.71-.32 3.98-.92 5.85-1.1l.44 6.35.09-.01-.02-6.38c.1-.01.2-.01.3-.01.35 0 .75.03 1.08.12.44.12.77.37.87.82.3.99-1.28 1.46-2.02 1.66l.01.06c.8-.07 1.69-.26 2.2-.93zm-2.73-20.73c.39.05.79.1 1.17.18.83.18 2.2.63.89 1.41-.61.34-1.32.52-2.03.66l-.03-2.25zM35.2 35.76l.01-.03c-.37-.08-.75-.17-1.07-.38a.73.73 0 0 1-.29-.97c.19-.33.54-.53.87-.71 1.72-.84 3.62-1.21 5.49-1.57a46.25 46.25 0 0 1 4.54-.61c1.52-.12 3.06-.19 4.58-.04v-.03a11.12 11.12 0 0 0-1.14-.15c-1.15-.1-2.31-.08-3.46-.02-1.54.08-3.06.28-4.58.55-1.88.37-3.81.78-5.53 1.7-.52.28-1.19.78-.96 1.47.26.6.98.71 1.54.79zM4.29 37.55c.53-.09 1.07-.05 1.6-.02l3.21.32 9.63.98c2.12.08 4.4.17 6.44-.21-5.33.43-10.74-.5-16.04-1.05-1.07-.11-2.14-.24-3.23-.28-.81-.03-1.71-.06-2.46.34-1.4.78-.82 2.68-.15 3.77l.03-.02a5.69 5.69 0 0 1-.55-1.51c-.26-1.21.25-2.13 1.52-2.32z"/><defs ><path id="B" d="M18.35 78.24c-1.36 0-2.43-.62-3.17-1.53a5.17 5.17 0 0 1-1.13-3.18c0-.86.24-1.67.75-2.27s1.27-.98 2.34-.98a2.38 2.38 0 0 1 .99.23c.34.17.6.45.61.89 0 .12-.02.26-.07.42l-.01.04.04.01c.08.02.16.04.24.04.21 0 .4-.09.53-.22a.76.76 0 0 0 .21-.52c0-.27-.15-.57-.49-.79-.35-.22-.89-.38-1.68-.38-1.23 0-2.38.37-3.23 1.09s-1.39 1.78-1.39 3.17c0 1.08.41 2.16 1.22 2.97s2.03 1.35 3.66 1.35c.93 0 1.64-.19 2.19-.52.55-.34.94-.82 1.25-1.41l-.07-.04c-.67.93-1.55 1.63-2.79 1.63z"/><path id="C" d="M26.51 70.12h-.25l-4.21 8.3h1.22v-.04s0-.02-.01-.05c0-.01-.01-.03-.02-.04s-.03-.03-.05-.03h0c-.03-.01-.09-.06-.13-.16s-.07-.23-.07-.4c0-.31.09-.74.36-1.27l2.53-4.99 2.53 4.98c-.83-.8-1.99-1.39-3-1.39-.73 0-1.38.29-1.78 1.03l.07.04c.45-.6 1.05-.85 1.68-.85 1.36 0 2.91 1.11 3.58 2.25l.48.94h1.27l-.03-.06-4.17-8.26z"/></defs></svg>