<?xml version="1.0" encoding="UTF-8"?>
<svg xmlns="http://www.w3.org/2000/svg" xmlns:xlink="http://www.w3.org/1999/xlink" width="150px" height="150px" viewBox="0 0 35 35" version="1.1">
<g id="surface1">
<path style="fill:none;stroke-width:2;stroke-linecap:butt;stroke-linejoin:miter;stroke:rgb(73.333333%,54.901961%,29.019608%);stroke-opacity:1;stroke-miterlimit:10;" d="M 10.679688 22.5 C 10.710938 19.703125 11.65625 17.21875 13.117188 14.890625 C 13.140625 14.859375 13.15625 14.84375 13.171875 14.8125 C 14.382812 12.65625 16.171875 11.351562 18.640625 11.007812 C 19.390625 10.90625 20.140625 10.796875 20.890625 10.710938 C 21.53125 10.640625 22.03125 10.898438 22.351562 11.460938 C 22.921875 12.4375 23.46875 13.421875 24.039062 14.398438 C 25.296875 16.539062 26.546875 18.6875 27.828125 20.820312 C 28.640625 22.171875 28.632812 22.898438 27.5 24.007812 C 26.5 24.992188 25.390625 25.859375 24.328125 26.78125 C 23.828125 27.21875 23.359375 27.679688 22.882812 28.132812 C 22.109375 28.84375 21.96875 29.65625 22.46875 30.570312 C 23.078125 31.671875 23.6875 32.773438 24.34375 33.851562 C 26.40625 37.28125 28.929688 40.34375 32.101562 42.8125 C 33.570312 43.960938 35.148438 44.976562 36.71875 45.992188 C 37.671875 46.601562 38.679688 47.101562 39.679688 47.632812 C 40.4375 48.03125 41.148438 47.882812 41.710938 47.273438 C 42.601562 46.320312 43.429688 45.3125 44.3125 44.34375 C 44.960938 43.617188 45.601562 42.898438 46.320312 42.242188 C 47.171875 41.460938 47.851562 41.398438 48.84375 41.976562 C 50.210938 42.78125 51.53125 43.648438 52.890625 44.4375 C 54.460938 45.34375 56.046875 46.1875 57.640625 47.0625 C 59.34375 47.992188 59.53125 48.367188 59.210938 50.28125 C 59.070312 51.09375 58.859375 51.890625 58.679688 52.6875 C 58.351562 54.109375 57.523438 55.179688 56.359375 56.039062 C 53.8125 57.921875 51.03125 59.1875 47.8125 59.289062 C 45.992188 59.34375 44.242188 58.9375 42.546875 58.34375 C 39.796875 57.359375 37.023438 56.460938 34.421875 55.101562 C 31.679688 53.679688 29.21875 51.851562 26.898438 49.828125 C 23.65625 47.023438 20.710938 43.929688 18.078125 40.523438 C 15.617188 37.320312 13.84375 33.78125 12.59375 29.960938 C 12.023438 28.226562 11.460938 26.5 10.976562 24.742188 C 10.75 24.03125 10.757812 23.25 10.679688 22.5 Z M 10.679688 22.5 " transform="matrix(0.5,0,0,0.5,0,0)"/>
</g>
</svg>
