<svg xmlns="http://www.w3.org/2000/svg" viewBox="0 0 18 18" xmlns:v="https://vecta.io/nano"><path d="M0 9.79V8.31c.01-.04.03-.07.04-.11L.2 7.13c.22-.96.57-1.87 1.09-2.71.55-.91 1.23-1.71 2.07-2.38A8.38 8.38 0 0 1 5.47.76C6.18.47 6.92.25 7.69.15c.2-.02.4-.07.6-.1H9.7l.26.07 1.19.2c.83.19 1.61.51 2.34.93.93.53 1.73 1.22 2.42 2.04a8.45 8.45 0 0 1 1.4 2.32 8.65 8.65 0 0 1 .59 2.19c.02.18.07.37.1.55v1.41c-.01.02-.03.05-.03.07l-.2 1.19a8.71 8.71 0 0 1-1.1 2.74c-.56.92-1.27 1.71-2.12 2.38-.62.49-1.3.89-2.03 1.2-.67.29-1.37.48-2.1.62v-6.3h2.08l.4-2.6h-2.5v-1.6c0-.09-.01-.19 0-.28.08-.56.33-.98.94-1.13.24-.06.49-.06.74-.07h.91V3.76l-.34-.03-1.33-.13c-.36-.01-.73.02-1.09.06-.77.09-1.4.43-1.9 1.03-.47.55-.69 1.23-.73 1.96l-.01 2.21v.2H5.32v2.6h2.27c0 .04.01.06.01.09v6.03.05c0 .1-.04.13-.15.1l-.55-.13c-.87-.19-1.68-.54-2.45-.99-.57-.33-1.08-.73-1.57-1.17-.44-.4-.82-.85-1.17-1.33-.44-.59-.79-1.24-1.06-1.92-.28-.71-.49-1.44-.57-2.21L0 9.79z" fill="#d2ab67"/></svg>