<?xml version="1.0" encoding="UTF-8"?>
<svg xmlns="http://www.w3.org/2000/svg" xmlns:xlink="http://www.w3.org/1999/xlink" width="150px" height="150px" viewBox="0 0 150 150" version="1.1">
<g id="surface1">
<path style="fill:none;stroke-width:2;stroke-linecap:butt;stroke-linejoin:miter;stroke:rgb(73.333333%,54.901961%,29.019608%);stroke-opacity:1;stroke-miterlimit:10;" d="M 58.429948 45.120833 C 53.220052 39.940104 48.019271 34.739323 42.829427 29.540365 C 40.270052 26.979167 37.730729 24.39974 35.149479 21.80026 C 34.939844 21.989844 34.790365 22.119271 34.65 22.259635 C 26.970052 29.930469 19.290104 37.590365 11.630208 45.270313 C 11.369531 45.529167 11.190885 45.990365 11.190885 46.360417 C 11.159896 53.190885 11.170833 60.019531 11.170833 66.85 C 11.170833 67.119792 11.170833 67.380469 11.170833 67.679427 C 11.409635 67.710417 11.579167 67.739583 11.750521 67.739583 C 17.040625 67.739583 22.330729 67.730469 27.620833 67.759635 C 28.320833 67.759635 28.289844 67.400521 28.289844 66.919271 C 28.280729 60.810677 28.289844 54.70026 28.289844 48.589844 C 28.289844 48.3 28.320833 48.019271 28.329948 47.749479 C 32.890885 47.749479 37.369792 47.749479 41.919792 47.749479 C 41.919792 54.430469 41.919792 61.049479 41.919792 67.690365 C 47.640104 67.690365 53.280208 67.690365 59.000521 67.690365 C 59.000521 67.340365 59.000521 67.039583 59.000521 66.74974 C 59.000521 60.019531 58.989583 53.289323 59.009635 46.559115 C 59.020573 45.959375 58.849219 45.540104 58.429948 45.120833 Z M 58.429948 45.120833 " transform="matrix(2.142857,0,0,2.142857,0,0)"/>
<path style="fill:none;stroke-width:2;stroke-linecap:butt;stroke-linejoin:miter;stroke:rgb(73.333333%,54.901961%,29.019608%);stroke-opacity:1;stroke-miterlimit:10;" d="M 35.109375 2.759896 C 25.690365 12.200781 16.260417 21.659896 6.859635 31.080729 C 8.540365 32.759635 10.290365 34.509635 12.14974 36.359896 C 19.749479 28.720052 27.40026 21.020052 35.160417 13.219792 C 42.869531 20.970833 50.529427 28.650781 58.149219 36.310677 C 59.930208 34.529688 61.669271 32.790625 63.370052 31.089844 C 53.949219 21.650781 44.519271 12.200781 35.109375 2.759896 Z M 35.109375 2.759896 " transform="matrix(2.142857,0,0,2.142857,0,0)"/>
</g>
</svg>
