<svg xmlns="http://www.w3.org/2000/svg" viewBox="0 0 18 18" fill="#d2ab67" xmlns:v="https://vecta.io/nano"><path d="M17.99 8.23c-.19-2.24-1.18-4.36-3.07-6.01C13.03.58 10.81-.16 8.31.02 6 .19 4.04 1.15 2.47 2.83.71 4.7-.14 6.95.02 9.53c.16 2.46 1.17 4.55 3.02 6.19 1.89 1.68 4.12 2.46 6.65 2.25 2.37-.19 4.37-1.17 5.97-2.93 1.68-1.85 2.45-4.05 2.33-6.81zm-3.96.95v1.56c-.01.45-.02.91-.18 1.33a2.99 2.99 0 0 1-.67 1.05c-.35.36-.77.6-1.23.76a1.91 1.91 0 0 1-.58.1l-4.53.03c-.65 0-1.24-.24-1.75-.65a2.87 2.87 0 0 1-.97-1.47 2.62 2.62 0 0 1-.09-.56l-.05-2.41H4V6.67c.02-.39.14-.77.33-1.11a2.85 2.85 0 0 1 .53-.72c.44-.42.94-.7 1.54-.81a3.56 3.56 0 0 1 .57-.04h3.75c.39 0 .78 0 1.16.11.37.11.72.28 1.02.52.28.23.53.49.72.81s.33.67.37 1.04c.09.9.02 1.81.04 2.71zM10.67 7.3c-.55-.54-1.23-.73-1.99-.65-.97.1-2.1 1.01-2.05 2.46.04 1.16 1.06 2.27 2.33 2.26a2.29 2.29 0 0 0 1.72-.69c.54-.54.75-1.22.67-1.98-.05-.55-.29-1.02-.68-1.4zm.92-1.47c-.22 0-.41.24-.42.51 0 .22.21.51.48.5s.58-.23.52-.51c.01-.36-.16-.5-.58-.5z"/></svg>