<svg xmlns="http://www.w3.org/2000/svg" viewBox="0 0 18 18" xmlns:v="https://vecta.io/nano"><path d="M0 9.74V8.26c.01-.02.03-.05.04-.07l.23-1.4c.24-1.01.67-1.95 1.26-2.82.52-.78 1.15-1.47 1.9-2.05.76-.6 1.58-1.07 2.49-1.39.6-.21 1.2-.39 1.84-.44.17-.01.34-.07.51-.1h1.44l.8.14a8.93 8.93 0 0 1 2.32.72c.75.36 1.45.8 2.08 1.36.48.43.93.89 1.31 1.4.49.67.9 1.38 1.19 2.16a8.13 8.13 0 0 1 .53 2.16c.05.44.05.89.03 1.33-.01.42-.04.85-.1 1.26-.1.69-.31 1.35-.58 1.99-.37.88-.85 1.69-1.51 2.39l-1.25 1.19c-.6.5-1.29.88-2.01 1.19-.93.41-1.91.63-2.92.71-.46.05-.93.01-1.41-.01-.53-.02-1.03-.14-1.54-.27-1.49-.39-2.77-1.15-3.89-2.2-.53-.5-.98-1.07-1.37-1.68C.68 12.7.22 11.48.07 10.14.06 10 .02 9.87 0 9.74zm7.9-2.96c0 .02-.01.05-.01.07v5.39c0 .04 0 .08.01.12h1.68c0-.05.01-.08.01-.11V9.29c0-.29.12-.54.3-.76.23-.27.51-.43.88-.47.35-.04.77.11.91.42.12.28.16.56.17.86v2.84c0 .06.01.12.01.18h1.67c0-.05.01-.08.01-.12l-.03-3.43a3.13 3.13 0 0 0-.18-1.05c-.2-.58-.55-1.03-1.19-1.14-.36-.06-.74-.05-1.11 0-.43.06-.82.25-1.13.56l-.32.3v-.76H8.32l-.42.02v.04zm-2.81 5.58h1.67V6.75H5.09v5.61zm-.02-7.02c-.05.42.42.86.8.85.51-.01.89-.34.87-.85-.01-.54-.29-.81-.83-.84-.46-.02-.85.34-.84.84z" fill="#d2ab67"/></svg>