<svg xmlns="http://www.w3.org/2000/svg" viewBox="0 0 18 18" xmlns:v="https://vecta.io/nano"><path d="M9 0C4.03 0 0 4.03 0 9s4.03 9 9 9 9-4.03 9-9-4.03-9-9-9zM4.35 4.92h2.81 6.43c.34 0 .66.05.97.24-.04.04-.07.07-.11.1l-5.09 4.2c-.23.19-.49.19-.72 0L3.76 5.43l-.33-.27a1.81 1.81 0 0 1 .92-.24zM2.8 11.84V7.3 6.17c0-.27.1-.5.29-.72L7.39 9l-4.3 3.55c-.18-.21-.29-.44-.29-.71zm10.82 1.24h-2-7.24a1.96 1.96 0 0 1-.79-.16c-.03-.02-.07-.03-.1-.05l-.04-.04 4.29-3.55.53.44c.44.37 1.01.38 1.45.01l.54-.44 4.3 3.55c-.3.18-.61.24-.94.24zm1.58-1.25a1.03 1.03 0 0 1-.29.72L10.61 9l4.3-3.55c.18.21.29.45.29.72v3.04 2.62z" fill="#d2ab67"/></svg>