<svg xmlns="http://www.w3.org/2000/svg" viewBox="0 0 100 32.68" xmlns:v="https://vecta.io/nano"><path d="M6.52 11.93C2.66 11.93 0 13.72 0 16.4c0 2.73 2.83 4.35 6.35 4.35 3.85 0 6.52-1.83 6.52-4.51 0-2.69-2.83-4.31-6.35-4.31zm-.06 8.3c-2.86 0-4.93-1.46-4.93-3.92 0-2.54 2.17-3.86 4.86-3.86 2.86 0 4.95 1.45 4.95 3.92 0 2.53-2.19 3.86-4.88 3.86zm17.2-8.04l.05 6.5-3.52-2.54-5.47-4.2v-.02h-.16l.03 8.56c.24-.05.63-.05.87 0l-.09-6.44 4.3 3.12 4.68 3.59h.14l.05-8.56c-.24.04-.65.04-.88-.01zm9.79 7.67h-5.28l-.07-3.38h3.66c.51 0 1.86.01 2.29.13-.03-.17-.03-.29-.03-.43 0-.15 0-.28.03-.44-.43.1-1.78.13-2.29.13H28.1l.07-3.07h5.64c.59 0 1.43.06 1.61.33l.1-.02-.16-.81c-.02-.08-.07-.12-.16-.12l-4.81.05c-1.13 0-2.56-.03-3.69-.05.06.76.13 1.31.13 4.09l-.13 4.2 3.6-.05 4.75.05c.2 0 .24-.01.32-.18l.44-.92-.1-.05c-.47.5-1.12.54-2.26.54zm15.48.35c-3.05 0-5.19-1.61-5.19-4.01 0-2.5 2.27-3.74 5.12-3.74 2.1 0 3.59.63 4.23 1.53l.11-.02-.2-1.08c-.05-.13-.2-.22-.32-.26-1.16-.49-2.38-.69-3.8-.69-3.97 0-6.62 1.55-6.62 4.3 0 2.89 2.92 4.52 6.62 4.52 1.44 0 2.63-.21 3.8-.55.24-.08.31-.1.35-.25l.23-.91-.12-.05c-1.02.82-2.44 1.21-4.21 1.21zm11.56-8.02l-.71.03c-.23 0-.59-.03-.82-.03v.12c.33.02.54.09.68.3l-5.38 7.88c.22-.05.82-.05 1.04 0l1.54-2.52h6.07l1.39 2.52c.76-.05.99-.05 1.75 0l-4.93-7.92c-.16-.34-.31-.38-.63-.38zm-3.27 5.16l2.75-4.22 2.58 4.22h-5.33zm19.15-5.16l.05 6.5-3.52-2.54-5.47-4.2v-.02h-.16l.03 8.56c.24-.05.63-.05.87 0l-.09-6.44 4.3 3.12 4.68 3.59h.14l.05-8.56c-.23.04-.65.04-.88-.01zm8.33 0l-.71.03c-.23 0-.59-.03-.82-.03v.12c.33.02.54.09.68.3l-5.38 7.88c.22-.05.82-.05 1.04 0l1.54-2.52h6.07l1.39 2.52c.76-.05.99-.05 1.75 0l-4.93-7.92c-.16-.34-.31-.38-.63-.38zm-3.26 5.16l2.75-4.22 2.58 4.22h-5.33zm18.46 2c-.47.49-.77.52-1.36.52H93l-.07-3.58.13-4.09-.75.05c-.24 0-.51-.03-.75-.05.06.76.13 1.31.13 4.09l-.13 4.2 1.41-.05c.21 0 .06.03 6.28.05.14 0 .17-.02.22-.1l.53-.99-.1-.05z"/></svg>