<svg xmlns="http://www.w3.org/2000/svg" xmlns:xlink="http://www.w3.org/1999/xlink" viewBox="0 0 100 100" xmlns:v="https://vecta.io/nano"><path d="M22.49 81.81h-.47-.63v.05c.17.07.22.2.22.56v2.65c0 .36-.06.49-.22.56v.05h.85v-.05c-.17-.07-.22-.2-.22-.56v-3.12h.31c.77 0 1.23.32 1.23 1 0 .65-.44 1.03-1.32 1.06v.05c.1.02.21.03.32.03.79 0 1.46-.37 1.46-1.17.01-.7-.53-1.11-1.53-1.11z"/><use xlink:href="#B"/><path d="M32.03 85.53h-.4c-.33 0-.46-.11-.46-.38v-2.74c0-.36.06-.49.22-.56v-.05h-.85v.05c.17.07.22.2.22.56v2.65c0 .36-.06.49-.22.56v.05h.5 2.05v-.99h-.06c-.13.67-.32.85-1 .85zm4.8-.36l-1.6-3.36h-.62v.05c.22.1.34.29.34.92l-.02 1.9c-.01.58-.16.85-.35.95v.05h.91v-.05c-.2-.1-.35-.34-.36-.95l-.04-2.21 1.55 3.27h.07l1.47-3.41v2.75c0 .36-.06.49-.22.56v.05h.85v-.05c-.17-.07-.22-.2-.22-.56v-2.65c0-.36.06-.49.22-.56v-.05h-.61l-1.37 3.35zm6.77-3.32c.17.07.22.2.22.56v2.42c0 .77-.12 1.19-.48 1.54l.02.03c.71-.34.87-.6.87-1.46V82.4c0-.36.06-.49.22-.56v-.05h-.85v.06zm5.14 0c.2.1.37.31.38.92l.02 1.66c.01.73-.4 1.08-1.04 1.08-.68 0-1.08-.32-1.08-1.14v-1.96c0-.36.06-.49.22-.56v-.05h-.85v.05c.17.07.22.2.22.56v2.02c0 .92.61 1.29 1.43 1.29.74 0 1.23-.4 1.25-1.29l.03-1.66c.01-.59.21-.83.4-.92v-.05h-.97v.05zm4.82 3.32l-1.6-3.36h-.62v.05c.22.1.34.29.34.92l-.02 1.9c-.01.58-.16.85-.35.95v.05h.91v-.05c-.2-.1-.35-.34-.36-.95l-.04-2.21 1.55 3.27h.07l1.47-3.41v2.75c0 .36-.06.49-.22.56v.05h.85v-.05c-.17-.07-.22-.2-.22-.56v-2.65c0-.36.06-.49.22-.56v-.05h-.63l-1.35 3.35zm5.58.36h-.47c-.33 0-.46-.11-.46-.38v-1.39l.68.02c.36.01.52.13.6.49h.05v-1.15h-.05c-.08.36-.23.5-.59.52l-.69.02v-1.7h.81c.63 0 .87.15 1.04.63h.06v-.77h-1.91-.63v.05c.17.07.22.2.22.56v2.65c0 .36-.06.49-.22.56v.05h.5 2.12v-.88h-.06c-.13.56-.33.72-1 .72zm2.78-3.68c.17.07.22.2.22.56v2.65c0 .36-.06.49-.22.56v.05h.85v-.05c-.17-.07-.22-.2-.22-.56v-2.65c0-.36.06-.49.22-.56v-.05h-.85v.05zm4.83 2.73l-.6-.69c.67-.08 1.22-.42 1.22-1.08 0-.62-.52-1-1.48-1h-1.1v.05c.17.07.22.2.22.56v2.65c0 .36-.06.49-.22.56v.05h.85v-.05c-.17-.07-.22-.2-.22-.56v-3.12h.31c.73 0 1.18.3 1.18.9 0 .59-.42.96-1.26.98v.05l.83 1c.56.68.74.85 1.06.85.17 0 .26-.05.32-.12v-.05c-.24-.05-.39-.15-1.11-.98z"/><use xlink:href="#B" x="43.62"/><path d="M76.72 81.85c.17.07.22.2.22.56v1.25h-2.15v-1.25c0-.36.06-.49.22-.56v-.05h-.85v.05c.17.07.22.2.22.56v2.65c0 .36-.06.49-.22.56v.05h.85v-.05c-.17-.07-.22-.2-.22-.56V83.8h2.15v1.27c0 .36-.06.49-.22.56v.05h.85v-.05c-.17-.07-.22-.2-.22-.56v-2.65c0-.36.06-.49.22-.56v-.05h-.85v.04zM18.01 65.02l.02-.06-.02.06a.79.79 0 0 1 .26.13.67.67 0 0 1 .18.25v7.47l-5.44-8.03-.02-.03-.02-.03h-.18-.07-.07v9.28l-.01.02c-.06.12-.12.2-.19.25s-.15.09-.26.13l-.69.24h2.7l-.77-.24c-.08-.03-.16-.06-.24-.12a.71.71 0 0 1-.2-.26v-7.47l5.46 8.03.02.03.02.03h.18.07.07v-9.3c.05-.13.11-.21.19-.26.08-.06.17-.09.25-.12l.76-.24h-2.69l.69.24zm3.9 9.31c-.07.06-.16.09-.27.13l-.69.24h5.44v-1.5l-.25.73a.71.71 0 0 1-.13.24c-.06.07-.14.13-.28.18h-2.66v-4.77h1.69c.13.05.21.11.26.17.06.06.09.14.13.25l.25.66v-2.57l-.25.73c-.03.08-.06.16-.13.24-.06.07-.14.13-.28.18h-1.68v-4.09h2.66a.74.74 0 0 1 .27.17c.06.07.1.14.14.25l.25.66V64.8h-5.46l.7.24.02-.06-.02.06a.97.97 0 0 1 .29.15h0c.05.04.1.12.16.24v8.66c-.03.11-.09.18-.16.24zm21.8-1.14v-1.81h-.24-.05-.05l-.02.04-.02.04c-.04.11-.1.21-.16.34-.8 1.51-2.43 2.55-4.33 2.55-1.22 0-2.26-.51-3.01-1.34-.74-.83-1.19-1.98-1.19-3.26h0 0c0-1.27.44-2.43 1.19-3.26s1.79-1.35 3.01-1.35c1.82 0 3.4.95 4.22 2.36l.02.03.02.03h.2.07.07V65.7l-.25.73h0c-.04.11-.08.22-.2.31-.97-1.2-2.44-1.95-4.14-1.95h0 0 0c-2.87 0-5.19 2.23-5.19 4.97h0 0c0 1.37.58 2.61 1.52 3.51s2.24 1.45 3.67 1.45c1.9 0 3.57-.98 4.46-2.42.07.08.1.16.13.24l.27.65zM5.32 64.86h0 0a5.07 5.07 0 0 0-3.67 1.36A5.31 5.31 0 0 0 0 69.83c-.08 1.89.85 3.61 2.3 4.56-.08.06-.17.09-.26.12l-.7.22 1.86.08.01-.24v-.05-.05l-.04-.02-.04-.02c-.11-.05-.21-.11-.34-.18-1.51-.87-2.51-2.54-2.43-4.44a3.88 3.88 0 0 1 1.51-2.94c.89-.71 2.09-1.1 3.4-1.04h0 0c1.31.06 2.48.55 3.31 1.33s1.31 1.85 1.26 3.06a4.85 4.85 0 0 1-2.61 4.12l-.03.02-.03.02-.01.2v.07.07l1.91.08-.74-.29c-.11-.04-.22-.09-.31-.21 1.28-.91 2.11-2.35 2.19-4.05h0 0 0c.12-2.85-2.07-5.27-4.89-5.39zm46.22 9.44c.02 0 .05.01.06.02.02.01.29.41.29.41v-1.29h-.24-.05-.05l-.01.05-.01.05c-.1.38-.35.67-.69.78h0 0 0c-.05.02-.09.03-.13.03-.06 0-.13-.02-.2-.06-.11-.06-.23-.19-.36-.39-.12-.2-.25-.47-.37-.82-.22-.66-.36-1.22-.59-1.67a1.93 1.93 0 0 0-.75-.83c.79-.1 1.51-.31 2.06-.7.65-.46 1.05-1.18 1.05-2.2h0 0 0 0c0-.54-.13-1-.36-1.38-.35-.57-.93-.95-1.63-1.18s-1.54-.33-2.42-.33h-2.06l.69.24a1.36 1.36 0 0 1 .27.13c.07.05.13.13.19.26v8.67a.77.77 0 0 1-.16.24.97.97 0 0 1-.29.15l-.73.24h3.27l-.66-.24a1.04 1.04 0 0 1-.28-.14.52.52 0 0 1-.16-.23v-3.43h.16l.23-.01c.27.14.46.43.62.81.24.59.39 1.36.66 2.01.14.33.31.62.56.85.25.22.57.37.98.39h0 0 0 .1 0c.37 0 .69-.14.93-.37.02-.05.05-.06.08-.06zm-3.86-4.01l-.41.02h0 0 0-.06v-5.18c.71.01 1.53.15 2.17.51.33.19.62.44.82.76s.32.71.32 1.21c0 1.02-.37 1.64-.91 2.04-.53.4-1.25.58-1.93.64zm28.11 1.09h-.24-.05-.05l-.02.04-.02.04c-.04.11-.1.21-.16.34-.8 1.51-2.42 2.55-4.33 2.55-1.22 0-2.26-.51-3.01-1.34-.74-.83-1.19-1.98-1.19-3.25h0v-.01c0-1.27.44-2.43 1.19-3.26s1.79-1.35 3.01-1.35c1.82 0 3.4.95 4.22 2.36l.02.03.02.03h.2.07.07V65.7l-.25.73h0c-.03.1-.12.15-.22.15-.07 0-.13-.02-.18-.08-.96-1.06-2.35-1.71-3.93-1.71h0 0 0 0c-2.87 0-5.19 2.23-5.19 4.97h0c0 1.37.58 2.61 1.52 3.51s2.24 1.45 3.67 1.45c1.8 0 3.4-.88 4.32-2.2.03-.05.08-.07.13-.07.06 0 .12.03.14.09h0 0l.25.67v-1.83zm14.57-6.36l.02-.06-.02.06a.79.79 0 0 1 .26.13.67.67 0 0 1 .18.25v7.47l-5.44-8.03-.02-.03-.02-.03h-.18-.07H85v9.28.02c-.06.12-.12.2-.19.25s-.15.09-.26.13l-.69.24h2.7l-.77-.24c-.08-.03-.16-.06-.24-.12a.71.71 0 0 1-.2-.26v-7.47l5.46 8.03.02.03.02.03h.18.07.07v-9.3c.05-.13.11-.21.19-.26.08-.06.17-.09.25-.12l.76-.24h-2.69l.68.24zm3.19-.24v.06.06 1.37l.25-.73c.03-.08.06-.16.12-.24.06-.07.14-.13.27-.18h2.06v8.95c-.05.13-.1.2-.17.25-.07.06-.16.09-.27.13l-.69.24h3.25l-.69-.24c-.11-.04-.2-.07-.27-.13-.07-.05-.12-.12-.17-.24v-8.96h2.1c.13.04.2.1.25.17.06.07.1.16.14.25l.25.51v-1.29h-6.43zm-28.99 7.71c0-.64-.24-1.17-.59-1.65-.53-.72-1.3-1.32-1.93-1.99-.63-.68-1.12-1.41-1.12-2.41 0-.35.13-.67.36-.91.23-.23.56-.38.98-.38.77 0 1.32.35 1.68.85h0l.02.03.02.03h.19.07.07v-1.42l-.25.66h0c-.03.07-.09.11-.17.11-.03 0-.07-.01-.1-.03a4.08 4.08 0 0 0-.7-.36c-.27-.12-.56-.21-.82-.21h0 0 0c-.57 0-1.13.15-1.55.5-.42.34-.7.88-.7 1.6h0 0 0c0 .68.25 1.25.6 1.77.54.77 1.33 1.41 1.98 2.09.32.34.61.68.82 1.05s.33.76.33 1.19h0 0c0 .43-.2.74-.51.96s-.73.33-1.16.33h0a2.23 2.23 0 0 1-1.8-.85l-.02-.03-.02-.03h-.2-.07-.07v1.42l.25-.66h0c.03-.07.09-.1.16-.1.04 0 .07.01.1.03a2.59 2.59 0 0 0 1.65.56h0c.57 0 1.19-.15 1.67-.49.49-.35.83-.9.83-1.66h0 0 0 0zm-6.85-7.36a.74.74 0 0 1 .27.17c.06.07.1.14.14.25l.25.66v-1.43H52.9l.7.24.02-.06-.02.06a.97.97 0 0 1 .29.15h0c.05.04.1.12.16.24v8.66a.7.7 0 0 1-.19.26c-.07.06-.16.09-.27.13l-.69.24h5.44v-1.5l-.25.73c-.03.08-.06.16-.13.24-.06.07-.14.13-.28.18h-2.66v-4.77h1.69c.13.05.21.11.26.17.06.06.09.14.13.25l.25.66v-2.57l-.25.73c-.03.08-.06.16-.13.24-.06.07-.14.13-.28.18h-1.68v-4.09h2.7zm20.25-.11l.02-.06-.02.06a.97.97 0 0 1 .29.15h0c.05.04.1.12.16.24v8.66a.7.7 0 0 1-.19.26c-.07.06-.16.09-.27.13l-.69.24h5.44v-1.5l-.25.73a.71.71 0 0 1-.13.24c-.06.07-.14.13-.28.18H79.4v-4.77h1.69c.13.05.21.11.26.17.06.06.09.14.13.25l.25.66v-2.57l-.25.73c-.03.08-.06.16-.13.24-.06.07-.14.13-.28.18H79.4v-4.09h2.66a.74.74 0 0 1 .27.17c.06.07.1.14.14.25l.25.66V64.8h-5.46l.7.22z"/><path d="M5.29 71.73c.07.01.13.01.18.01.57.07 1.07.31 1.54.65a5.27 5.27 0 0 1 .57.49.24.24 0 0 0 .12.07c.05.01.12 0 .16-.04l.03-.02c.04-.04.06-.09.06-.15 0-.05-.03-.1-.05-.13l-.03-.03h0l-.03-.03h0a5.07 5.07 0 0 0-.61-.52c-.56-.4-1.18-.69-1.89-.72h-.06v-.06h0v-.03-.01-.01-.02h.01l.04-.01c.37-.04.74-.04 1.1.02.7.13 1.28.44 1.73 1.01h0 0 0c.01.02.03.04.05.07s.05.07.11.09.12.01.17-.03l.02-.01c.03-.02.05-.05.06-.08.02-.05.01-.1-.01-.15-.02-.04-.04-.09-.08-.13h0 0c-.53-.67-1.24-1.05-2.06-1.18-.38-.06-.76-.07-1.14-.01h0v-.09-.04l.01-.01c.01-.01.02-.01.05-.02a4.53 4.53 0 0 1 1.26-.24c.56-.03 1.09.06 1.6.29a3.68 3.68 0 0 1 .75.48c.04.03.08.06.13.07s.11 0 .15-.04c.01-.01.03-.02.04-.04.03-.04.05-.09.05-.13 0-.05-.02-.09-.05-.12l-.06-.06-.24-.19c-.87-.62-1.83-.78-2.85-.63-.29.04-.57.1-.84.2v-.03c0-.01.01-.02.02-.03s.03-.02.05-.03c.4-.18.8-.34 1.22-.43.77-.18 1.52-.22 2.27.08a.36.36 0 0 0 .11.02c.04 0 .08-.01.11-.04.03-.02.05-.05.06-.09.01-.03.02-.07.01-.1 0-.03-.02-.07-.04-.09-.01-.05-.05-.07-.09-.09-.03-.01-.06-.03-.09-.04a3.29 3.29 0 0 0-.93-.2c-.77-.06-1.5.09-2.21.35l-.49.2v-.01c.01-.03.03-.06.04-.07h.01c.44-.28.89-.54 1.38-.74.43-.18.86-.32 1.32-.3.05 0 .11 0 .16-.04s.07-.1.07-.16c0-.05-.01-.09-.04-.13-.02-.03-.05-.05-.08-.06s-.06-.02-.09-.02a2.13 2.13 0 0 0-.44.02c-.54.08-1.04.29-1.52.52l-.8.45v-.02c0-.03.01-.05.03-.08.25-.27.51-.52.79-.74.16-.13.33-.25.51-.35.11-.07.23-.12.35-.19l.03-.02c.03-.03.06-.06.07-.11a.22.22 0 0 0-.02-.14l-.02-.04c-.03-.04-.07-.07-.12-.07a.19.19 0 0 0-.13.02c-.05.02-.11.05-.16.08-.27.15-.53.31-.77.5a5.27 5.27 0 0 0-.56.5v-.05c.01-.08.02-.14.06-.2.16-.26.33-.51.55-.69l.18-.12.03-.02c.04-.03.07-.07.07-.12.01-.05-.01-.1-.03-.14v-.04c-.03-.04-.07-.07-.12-.07a.19.19 0 0 0-.13.02c-.03.01-.05.03-.07.04-.06.03-.12.07-.17.12-.14.11-.25.24-.36.37v-.54-.09c0-.04-.01-.08-.04-.12-.03-.05-.09-.07-.15-.08-.04-.01-.1 0-.14.03a.19.19 0 0 0-.07.11c-.01.04-.01.08-.02.13v.54c-.02-.02-.03-.04-.05-.06-.14-.18-.31-.35-.52-.47-.02-.03-.06-.04-.1-.05s-.1 0-.14.04c-.02.02-.04.04-.05.06-.02.03-.03.07-.03.12a.21.21 0 0 0 .04.11c.02.03.05.05.07.07l.17.12c.09.07.16.16.23.24.1.13.2.28.29.43a.51.51 0 0 1 .08.29c-.43-.45-.9-.84-1.45-1.13-.03-.02-.07-.03-.11-.04s-.1 0-.14.04c-.02.02-.04.05-.06.07 0 .03-.01.06-.01.1s.02.08.04.1c.03.04.06.06.1.08.6.33 1.11.78 1.57 1.3l.03.03c.02.03.03.05.04.07l.01.04c-.55-.37-1.11-.7-1.74-.93-.32-.11-.64-.19-.98-.19-.05 0-.12 0-.18.05-.04.03-.07.09-.07.15 0 .05.01.1.04.13a.19.19 0 0 0 .11.07c.04.01.07.01.1.01.29 0 .56.07.84.17.64.24 1.22.59 1.79.97.03.02.05.04.06.05.01.02.02.04.02.06l-.48-.22c-.65-.26-1.32-.44-2.04-.45-.4-.01-.8.05-1.18.18-.03.01-.06.03-.1.05-.03.02-.05.05-.07.1-.01.04-.01.09.01.13l.03.06c.03.05.09.07.14.07s.09-.01.13-.02c.42-.15.85-.18 1.3-.15.63.05 1.23.24 1.81.5.14.06.27.13.41.21h0c.01.01.02.03.02.06l-.03-.01a5 5 0 0 0-1.14-.28c-.91-.11-1.77.04-2.54.55-.03.05-.09.09-.15.14a.27.27 0 0 0-.08.07c-.04.03-.07.08-.08.14-.01.05.01.11.05.15v.01h0 0c.04.04.09.07.14.07s.09-.02.13-.04l.03-.02.03-.03h0a3.05 3.05 0 0 1 1.74-.65c.61-.04 1.2.07 1.77.29l.13.05h.01v.14c-.42-.07-.84-.08-1.26-.02-.56.08-1.06.28-1.49.62-.18.14-.34.3-.49.48-.03.03-.05.07-.07.12-.01.01-.01.04-.01.08 0 .03.02.06.04.09l.03.04c.04.03.09.06.13.05.05 0 .09-.02.12-.04a.27.27 0 0 0 .07-.08 2.65 2.65 0 0 1 .41-.41c.02-.02.05-.03.07-.05.69-.49 1.46-.6 2.29-.48.06.01.1.01.12.02l.02.01c0 .01.01.06 0 .13h0-.01a2.27 2.27 0 0 0-.52.03c-.65.11-1.22.41-1.72.8h0c-.13.1-.26.22-.38.33-.04.03-.07.08-.07.13-.01.05.01.11.05.15l.01.01h0c.04.05.1.07.15.07a.19.19 0 0 0 .13-.05l.01-.01c.03-.02.05-.04.07-.06l.29-.24c.28-.22.59-.41.93-.55s.68-.21 1.05-.21h.02v.02c-.01.13 0 .26 0 .38v.14.02h0-.16-.11c-.03.01-.07.02-.1.04a.19.19 0 0 0-.07.11c-.02.05-.02.09-.02.14l-.01 1.79v.09l.08.01.23.02.1.01v-.1V74l.01-1.29v-.02h.01l.5.01h0l-.01 1.69v.1h.1l.23-.01.08-.01v-.09l.01-1.85c0-.06-.01-.11-.05-.16-.05-.06-.12-.08-.19-.08s-.14-.01-.22 0h0v-.01c.01-.18.01-.36 0-.54v-.02l.02.01zm-2.67.42h0 0zm-.57-7.29h0 0zm55.15-29.5c-.34-.1-.62-.13-.97-.13l-2.13.05c-.56 0-1.25-.01-2.11-.06l-7.04-.49-1.07-.04c-1.07 0-1.74.13-1.75.13l.02.1c.09-.01.73-.13 1.73-.13l1.06.04 7.05.49 2.11.06 2.13-.05a3.39 3.39 0 0 1 .95.12c.16.05.27.11.33.17s.08.13.09.2c0 .07-.02.15-.07.23a1.4 1.4 0 0 1-.23.3.73.73 0 0 1-.1.09l-.03.03-.01.01h0l.06.08s.12-.09.23-.23c.06-.07.12-.15.16-.23.04-.09.08-.18.08-.27s-.03-.19-.11-.27c-.01-.01-.03-.03-.05-.04.03-.3.02-.64-.17-.88-.07-.08-.17-.14-.27-.19-.39-.18-.82-.3-1.24-.4.42.11.84.22 1.24.41a.98.98 0 0 1 .27.18c.19.24.2.58.18.88-.09-.06-.2-.12-.34-.16z"/><path d="M10.78 54.31l26.87.01h.01.24l51.33-.01-9.81-.02c-4.26 0-8.68-.01-13.18-.01v-7.19h-.1v3.71c-3.04-.22-6.11-.27-9.16-.29v-3.43h1.78v2.97h0v-2.97h1.73v3.2h0v-3.2h1.78v2.83h0v-2.83h1.77c-.03.49-.01 1.13-.01 1.58 0 .5-.02 1.25.02 1.75.04-.5.02-1.24.02-1.75 0-.5.02-1.25-.02-1.75 0 .05-.01.11-.01.17h-1.77v-.03.03h-1.78v-.03.03h-1.73v-.03.03h-1.78v-.03.03h-1.21a4.13 4.13 0 0 0-.02-.37c3.41-.16 6.82-.29 10.23-.12.35.02.72.02 1.06.11.05.02.12.05.09.09-.03.05-.08.08-.12.11-.11.08-.24.13-.35.21-.01.01-.02.02-.04.02-.01.01-.03.03-.03.05 0 .03.03.04.05.04h.06c.28 0 .56-.07.83-.09.17-.01.36-.04.53 0 .03.01.05.02.06.04s0 .05-.01.07c-.2.36-.91.37-1.31.36v.03c.24.02.48.02.72-.02s.53-.1.66-.34c.02-.04.04-.09.01-.14-.01-.03-.03-.05-.05-.06-.08-.05-.17-.05-.25-.06-.13 0-.25 0-.37.01l-.59.06c.05-.03.1-.05.15-.08.07-.05.12-.08.17-.17.03-.06.01-.14-.03-.18-.04-.05-.1-.08-.15-.09-.13-.04-.25-.06-.38-.08-.16-.02-.32-.03-.47-.05v-6.5h-.1v5.94c-.08-.17-.26-.31-.45-.41.12.06.22.14.32.23a.75.75 0 0 1 .13.18v.55c-.05 0-.1-.01-.15-.01l-1.92-.11.02-1.25c.18.02.36.05.54.08a27.95 27.95 0 0 0 .02.98c.01-.28.02-.62.02-.97.22.04.43.1.65.16.06.02.12.04.18.07-.06-.03-.12-.05-.18-.07-.21-.07-.43-.12-.65-.16v-2.25l-.02-3.22c-.04.92-.02 2.29-.02 3.22v2.24c-.18-.03-.36-.06-.54-.08v-1.91l-.02-3.34c0 .04 0 .09-.01.13h-1.78v-.03.03h-1.78v-.03.03h-1.73v-.03.03h-1.78v-.03.03h-1.22c0-.09-.01-.17-.01-.25.03 0 .07 0 .1-.01l5.56-.4c1.86-.07 3.71-.04 5.57.05.7.04 1.39.07 2.08.15.12.01.23.03.34.05.07.02.16.02.22.06h0c-.02.02-.05.03-.07.03-.22.05-.46.04-.69.05-.51.02-1.71-.05-1.96.46.26-.51 1.47-.42 1.96-.44h.35c.14-.01.31.01.43-.08 0 0 .01-.01.01-.02 0-.02-.02-.03-.03-.03-.18-.07-.37-.08-.56-.11-.23-.03-.46-.05-.69-.07-1.39-.12-2.78-.17-4.18-.2-3.71-.1-7.42.45-11.13.55-1.86.06-3.71.09-5.57.02-2.78-.1-5.57-.42-8.36-.2-1.85.14-3.71.16-5.56-.03-.46-.04-.92-.1-1.38-.15s-.93-.1-1.39-.09a1.09 1.09 0 0 0-.26.03c-.03.01-.06.02-.08.04-.03.02-.04.06-.03.09.02.09.08.16.13.23l.05.07c.02.02.03.05.03.07-.05.25-1.65-.03-1.85-.06.46.08.92.15 1.38.17.12 0 .23.01.35-.02.04-.01.09-.02.12-.05.04-.04 0-.1-.02-.13l-.05-.07c-.03-.05-.07-.1-.09-.15-.03-.04-.05-.11-.01-.15.1-.06.22-.05.33-.06a12.99 12.99 0 0 1 1.39.1c1.84.25 3.7.38 5.56.3 1.11-.05 2.23-.13 3.34-.14-.04.41-.02 1.01-.02 1.42v.66c-.47.09-.93.21-1.37.41a.37.37 0 0 1-.11.05v-2.1 2.1c-.05.03-.11.06-.15.1l-.09.83.1-.83c.04-.04.1-.07.15-.1v.9c-.34.1-.51.19-.51.19l.04.09h0 0c.05-.02.68-.32 1.97-.48-.04 1.1-.02 2.77-.02 3.88l-1.48-.07v-1.11l.49.03-.49-.03v-1.92 1.92l-1.7-.1v-5.49 5.49l-1.75-.1v-5.39 5.39l-1.75-.09V40v5.19l-1.66-.05v-5.18 5.18c-.3-.01-.6-.01-.89-.01v-2.08l-.02-3.23c-.04.92-.02 2.3-.02 3.23v2.08h-.54v-2.07l-.02-3.4c-.04.97-.02 2.42-.02 3.4v2.07h-.13l-1.28.04v-5.18h-.1v.39c-.14-.16-.3-.31-.47-.42a1.54 1.54 0 0 0-.45-.21c-.33-.08-.43-.2-.14-.37.35-.17.75-.21 1.14-.22a1.03 1.03 0 0 0 .3-.14c.14-.09.23-.28.15-.44l-.01-.02c-.02-.04-.01-.08.02-.11.07-.07.17-.11.27-.14.2-.06.41-.1.62-.13 1.05-.15 2.12-.18 3.18-.23h.1v.02h0v-.02c.7-.02 1.44-.04 2.13-.02a30.35 30.35 0 0 1 2.86.24c3.37.45 6.75.89 10.14 1.2 2.12.18 4.27.05 6.36-.37.81-.15 1.69-.36 2.5-.52.71-.14 1.42-.25 2.14-.35v.09h0v-.09a37.97 37.97 0 0 1 6.74-.32c.46.04 2.29.07 2.29.68h0 0v.7h.03l.02-.7v.01c.02-.07-.01-.13-.03-.19l-.02-.04c-.03-.04-.06-.07-.09-.1-.26-.21-.6-.28-.91-.35-.42-.08-.85-.11-1.28-.15l-1.01-.06v-6.14h-.1v6.13c-.49-.02-.97-.03-1.46-.02v-2.76l-.02-2.91c-.04.81-.02 2.09-.02 2.91l.02 2.76c-.19 0-.38 0-.57.01.03-.83.01-1.97.02-2.76l-.02-2.93c-.01.13-.01.28-.01.43h-1.77v-.03.03h-1.78v-.03.03h-1.73v-.03.03h-1.78v-.03.03h-1.2v-.1c-.01-.11-.01-.22-.02-.33-.01.11-.02.22-.02.33v.99.99c.01.11.01.22.02.33.01-.11.02-.22.02-.33v-.99-.89h1.2v2h0c.01-.5.01-1.48 0-2h1.78v5.78a38.65 38.65 0 0 0-2.34.46c-.81.16-1.67.3-2.5.39a27.39 27.39 0 0 1-1.25.1c-1.3.08-2.6.01-3.9-.12.02-.45.01-1.01.01-1.41v-.88c1.6.07 3.2.07 4.8 0-1.6-.07-3.2-.07-4.8 0 0-.27-.01-.54-.03-.76-.04.47-.02 1.17-.02 1.65 0 .4-.01.96.01 1.4l-.56-.06c.02-.44 0-.97.01-1.35 0-.47.02-1.18-.02-1.65-.02.22-.02.48-.03.75a33.51 33.51 0 0 0-3.75 0 33.51 33.51 0 0 0 3.75 0v.89c0 .38-.01.91.01 1.34l-1.15-.13-5.31-.62c.03-.87.01-2.09.02-2.9l-.02-3.06c.12.01.25.03.37.04 2.02.21 4.07.28 6.1.18 0 .04-.01.07-.01.11v.18.36.36.18c.01.06.01.12.02.18.01-.06.02-.12.02-.18v-.18-.36-.36-.18c0-.04-.01-.07-.02-.11l.56-.03c0 .01-.01.02-.01.03v.07.13.13.07c.01.02.01.04.02.07.01-.02.02-.04.02-.07v-.07-.13-.07-.07c0-.01-.01-.02-.01-.03 1.22-.08 2.43-.22 3.63-.44 4-.67 8.08-1.06 12.14-.77.77.08 1.57.16 2.29.48-.01.01-.02.02-.04.03-.07.05-.15.1-.2.19-.01.02 0 .05.01.06.02.01.03.02.05.02v-.03c-.01 0-.02-.01-.03-.01.01-.04.03-.06.05-.08.04-.04.09-.07.14-.1.02-.01.05-.03.07-.04.01 0 .02.01.03.01-.01 0-.02-.01-.03-.01a.92.92 0 0 0 .34-.54c.04-.18.04-.38-.02-.56-.09-.18-.28-.27-.45-.35a3.33 3.33 0 0 0-.51-.16v-6.02h-.1v5.99c-.03-.01-.05-.01-.08-.02-.46-.1-.93-.16-1.4-.2.03-.79.01-1.89.02-2.66 0-.8.02-1.99-.02-2.77-.04.79-.02 1.97-.02 2.77l.02 2.65c-.19-.02-.38-.03-.58-.04.03-.77.01-1.82.02-2.55 0-.78.02-1.94-.02-2.71-.01.18-.02.38-.02.58h-1.76v-.03.03h-1.78v-.03.03h-1.73v-.03.03h-1.78v-.03.03h-1.23 1.23v.4a2.67 2.67 0 0 0 0-.4h1.78v4.73l-1.17.08-.61.06v-2.74 2.74a47.6 47.6 0 0 0-3.59.47c-.15.03-.72.13-.87.16l-.87.18-1.71.41a23.93 23.93 0 0 1-1.17.21c.02-.44 0-.97.01-1.36v-.48a27.55 27.55 0 0 0 3.4 0 27.55 27.55 0 0 0-3.4 0c0-.4 0-.85-.03-1.17-.04.47-.02 1.18-.02 1.66 0 .39-.01.92.01 1.36-.19.03-.37.05-.55.07.02-.45 0-.99.01-1.39 0-.49.02-1.22-.02-1.7-.03.33-.03.76-.03 1.17-1.64-.07-3.29-.07-4.93 0 1.64.07 3.29.07 4.93 0v.54c0 .39-.01.94.01 1.39-2.2.22-4.29 0-6.45-.42.02-.44 0-.97.01-1.36 0-.48.02-1.19-.02-1.66-.04.47-.02 1.18-.02 1.66 0 .38-.01.92.01 1.35-.18-.04-.37-.07-.55-.11.02-.42 0-.94.01-1.32 0-.46.02-1.14-.02-1.58-.04.45-.02 1.13-.02 1.58 0 .37-.01.89.01 1.31l-1.46-.32-1.74-.34v-5.22 5.22c-.58-.1-1.17-.2-1.75-.27v-4.94 4.94l-.69-.09-1.06-.11v-4.64 4.64a30.79 30.79 0 0 0-1.66-.1v-4.59 4.59c-.3-.01-.61-.01-.91-.01.03-.79.01-1.91.02-2.65 0-.81.02-2.03-.02-2.84-.04.81-.02 2.02-.02 2.84l.02 2.65c-.19 0-.38 0-.57.01.03-.72.01-1.71.02-2.39 0-.74.02-1.85-.02-2.58-.04.73-.02 1.83-.02 2.58l.02 2.39c-.48.01-.97.03-1.43.11v-4.1l.15.12-.15-.12v-1.08h-.1v1a4.1 4.1 0 0 1-.62-.63c-.03-.05-.07-.1-.09-.16-.01-.03-.02-.06-.01-.09s.03-.05.06-.07c.08-.05.17-.07.26-.09.48-.09.98-.09 1.47-.12.13-.01.25-.01.37-.06.01-.01.03-.02.04-.05 0-.03-.01-.04-.03-.05-.07-.06-.16-.1-.24-.14-.12-.06-.61-.25-.44-.44.08-.09.2-.13.31-.16.23-.07.48-.1.72-.14.98-.13 1.96-.19 2.95-.23 1.72-.05 3.45-.06 5.16.17l1.51.25c-.04.49-.02 1.2-.02 1.69 0 .45-.01 1.1.02 1.59-.21.07-.42.15-.62.26-.35.18-.69.44-.93.75-.16.21-.27.45-.32.7l.03.01c.06-.22.2-.43.35-.61.36-.42.87-.68 1.39-.85l.06-.02c.13-.03.27-.07.4-.1.16-.03.31-.06.47-.08l.47-.05c2.54-.15 5.04.52 7.57.64 1.12.03 2.67-.06 3.81-.07v-.03c-1.08-.08-2.25-.1-3.33-.13-.46-.02-.94-.07-1.4-.12-.28-.03-.56-.07-.85-.11v-.92-.6-.3c-.01-.1-.01-.2-.02-.3-.01.1-.02.2-.02.3v.24a49.32 49.32 0 0 0-4.55 0 49.32 49.32 0 0 0 4.55 0v.06.6.09c-.26-.02-.53-.08-.79-.13-.54-.12-1.07-.26-1.61-.34-1.35-.2-2.73-.11-4.04.25v-.73c0-.44.02-1.1-.02-1.55 2.95.52 5.89 1.06 8.89 1.2.98.05 1.98.07 2.96-.02.22-.01.52-.06.74-.09.24-.04.49-.08.73-.14.05-.01.1-.02.15-.04 0 .01-.01.02-.01.04v.08.16.16.08c.01.03.01.05.02.08.01-.03.02-.05.02-.08v-.08-.16-.18-.08c0-.01-.01-.03-.01-.04a11.08 11.08 0 0 0 .55-.14v.04.09.14c.01.02.01.03.02.05.01-.02.02-.03.02-.05v-.05-.09-.09-.05c.7-.21 1.39-.44 2.08-.62 1.42-.38 2.9-.6 4.37-.74 1.95-.17 3.96-.28 5.88.17a2.88 2.88 0 0 1 .69.26c.1.06.21.13.27.23.03.05 0 .11-.05.15-.05.03-.1.07-.15.1l-.6.43-1.76 1.35 1.77-1.34c.2-.15.4-.29.6-.43.1-.07.27-.12.21-.28-.06-.12-.17-.19-.28-.25-.22-.12-.46-.2-.69-.26-1.93-.48-3.94-.36-5.9-.21-1.47.14-2.95.35-4.38.73-.94.24-1.9.6-2.85.81-.24.06-.49.1-.72.14l-.73.09c-.98.09-1.97.06-2.95.01-3.45-.18-6.85-.85-10.25-1.43-.49-.08-.98-.16-1.47-.2-1.97-.16-3.95-.11-5.92.03-.49.04-.98.09-1.47.16-.25.05-1.05.12-1.1.42 0 .11.09.18.17.23.16.1.33.17.49.25.03.01.05.03.07.05.01.01.02.02.02.03s-.01.01-.02.02c-.05.02-.11.03-.17.04-.18.02-.37.03-.55.04-.25.01-.49.03-.74.05-.21.03-.44.04-.63.15-.03.02-.05.04-.06.07-.02.06.02.12.05.18a2.11 2.11 0 0 0 .36.43c.1.1.21.19.32.28v4.19c-.9.14-2.23.64-1.8 1.77.09.23.27.42.41.6.44.53.91 1.03 1.38 1.53v5.31c-.4.02-1.02.1-1.28.4-.03.03-.05.09-.04.14.01.06.05.1.08.12.12.09.26.09.39.14.33.11.62.33.85.6v4.73c-.08 0-.15.01-.23.01-.27.02-.53.02-.8.05-.2.03-.4.05-.58.15-.05.03-.12.08-.11.15l-.21.88c-.04.01-.08.02-.13.03-.05.02-.1.05-.12.1-.03.07.02.14.02.2v.03s-.01.04-.01.06c0 .1.07.16.13.21.15.11.33.17.51.23.46.15.93.25 1.4.34l.01-.03c-.47-.1-.93-.22-1.38-.38a2.12 2.12 0 0 1-.48-.23c-.04-.03-.09-.08-.09-.13 0-.02.02-.05.02-.09 0-.03 0-.07-.01-.09-.01-.03-.02-.06-.01-.08s.03-.03.06-.04c.11-.03.23-.03.35-.04a30.4 30.4 0 0 1 1.68-.01v.05h.1v-.05l1.09.01h.34c-.04.58-.02 1.43-.02 2.01 0 .59-.02 1.47.02 2.05.04-.58.02-1.46.02-2.05 0-.57.02-1.43-.02-2.01 3.27.02 6.58.3 9.87.46l.02 3.62-3.21-.03v-3.41 3.41l-3.51.02v-3.37 3.37l-1.1.01c-.19 0-.37.01-.57.01v-3.38h.06-.06v-.03.03l-.77.01.77-.01v3.38l-1.78.04-1.16.03v-3.53h-.1v3.53c-.3.01-.59.02-.81.04-.14.02-.41.04-.37.24.06.23.88.38 1.12.44l.01-.03-.56-.18c-.72-.27-.51-.34.1-.33.17 0 .34 0 .51.01v3.4l-19.08.03zm45-5.61l-.01-1.61h1.21v3.43h-.53-.69c.04-.56.02-1.3.02-1.82zm0 3.73c0-.44.01-1.07-.01-1.57l10.37-.02v3.44H64.3a42.67 42.67 0 0 0 0-1.6c.02 0 .03-.01.05 0 .03.02.08.06.11.02.05-.04.07-.1.12-.15a.95.95 0 0 1 .38-.21c-.14.03-.28.11-.38.21-.04.05-.07.1-.12.15-.01.02-.04.02-.06.01s-.03-.02-.05-.03-.04-.01-.05 0v-.07.07c-.05.02-.09.09-.1.15 0-.05.04-.13.1-.15a42.67 42.67 0 0 0 0 1.6h-.18c.01-.56.01-1.11 0-1.67-.01.56-.01 1.11 0 1.67h-4.57a38.51 38.51 0 0 0 0-1.52c.02 0 .03-.01.05 0 .03.02.07.06.11.02s.07-.1.11-.14c.1-.1.23-.17.37-.2a.79.79 0 0 0-.37.2c-.04.04-.07.1-.11.14-.03.04-.07 0-.1-.02-.02-.01-.04-.01-.05 0v-.07.07a.17.17 0 0 0-.09.14c0-.04.04-.12.09-.14a38.51 38.51 0 0 0 0 1.52h-.17a42.14 42.14 0 0 0 0-1.59 42.14 42.14 0 0 0 0 1.59h-3.63c.04-.54.02-1.32.02-1.85zm6.62-6.16h-.12v-1.26c.59-.01 1.17-.01 1.76.06a46.87 46.87 0 0 0 .02 1.26c-.55-.03-1.1-.05-1.66-.06zm1.66-6.32c-.03.95-.01 2.29-.02 3.21v1.9c-.58-.06-1.17-.07-1.75-.06v-5.06l1.77.01zm-1.78 6.32c-.57-.01-1.18 0-1.78.01v-1.2a18.3 18.3 0 0 1 1.06-.06c.24-.01.48-.01.73-.02l-.01 1.27zm.01-6.32v5.06c-.24 0-.48.01-.73.02-.35.01-.7.03-1.06.06v-5.13l1.79-.01zm-1.79 6.33l-.97.02-.76.02v-1.08a50.45 50.45 0 0 1 1.73-.15v1.19zm0-6.33v5.13c-.58.04-1.15.1-1.73.15v-5.28h1.73zm-1.73 6.37l-1.78.06v-1c.05 0 .1 0 .15-.01l1.62-.14.01 1.09zm-1.78-6.37v.78-.78h1.78v5.28l-1.62.14c-.05 0-.1 0-.15.01v-1.6 1.6c-.14.01-.29.01-.43-.02-.01 0-.03-.01-.02-.02l.01-.01h-.02l-.75-.06v-2.14l-.02-3.18h1.22zm-1.21 5.32l.75.06c-.01.01.01.02.02.02.14.03.29.02.43.02v1c-.41.01-.81.03-1.22.05.02-.34.02-.74.02-1.15zm8.28-12.9c-.02.79-.01 1.81-.01 2.51l.02 2.76a26.85 26.85 0 0 0-1.78.09v-5.35l1.77-.01zm-1.77 0v5.35c-.6.04-1.19.1-1.78.18v-5.53h1.78zm-1.79 0v5.53a47.99 47.99 0 0 0-1.73.25v-5.78h1.73zm-18.78-6.33c1.31-.35 2.69-.44 4.04-.24.54.07 1.07.22 1.61.33.26.05.52.11.79.13v.81c-1.5-.2-3.1-.47-4.56-.47a12.24 12.24 0 0 0-1.21.05l-.49.07c-.06.01-.12.02-.19.04l.01-.72zm-.03-2.28c-.04.45-.02 1.1-.02 1.55 0 .42-.01 1.02.02 1.47a5.99 5.99 0 0 0-.57.15c.03-.48.01-1.13.01-1.58 0-.48.01-1.2-.02-1.69l.58.1zm-.02 11.51l.02 2.9c-.19-.02-.38-.05-.57-.07.03-.87.01-2.07.01-2.87l-.02-3.09c.2.02.39.05.58.07-.04.89-.02 2.18-.02 3.06zm22.38-10.14l-.01 2.13.02 2.55c-.59-.04-1.18-.06-1.78-.06v-4.62h1.77zm-3.55 0v4.23h0v-4.23h1.78v4.62c-1.17-.01-2.35.04-3.52.11v-4.73h1.74zm-31.68 7.58l-.45-.54c-.22-.27-.45-.56-.45-.92.02-.81 1.05-1.1 1.76-1.2v.03h.1v-.04c.34-.05.76-.06 1.07-.07 2.46-.06 4.92.24 7.34.71 1.84.36 3.66.86 5.52 1.1 2.32.32 4.72.22 6.99-.37l1.02-.25a26.48 26.48 0 0 0 .86-.19c.13-.02.72-.14.86-.17 1.76-.32 3.54-.53 5.32-.67v.03h0v-.03l1.66-.11c1.21-.06 2.43-.09 3.64-.04l.58.03c.7.06 1.41.11 2.07.35.16.06.33.14.41.29.08.27.06.59-.1.83-.05.08-.12.15-.2.21-.11-.05-.22-.1-.34-.14-.24-.08-.49-.14-.74-.19-2.81-.47-5.69-.3-8.52-.09-3.25.23-6.42 1.06-9.68 1.12-3.45.12-6.91-.27-10.29-.92-1.39-.29-2.8-.54-4.23-.51-1.02 0-2.04.12-3.02.37-.59.15-1.17.34-1.72.61.64-.31 1.33-.51 2.02-.66 1.69-.37 3.44-.37 5.14-.11.99.17 2 .41 2.99.57a46.02 46.02 0 0 0 2.66.4c-.04.89-.02 2.2-.02 3.09l.01 2.87-1.69-.21a29.59 29.59 0 0 0-3.27-.21v-5.36 5.36c-.59 0-1.17.01-1.75.05v-5.29 5.29c-.04 0-.07 0-.11.01l-1.56.1V32.4v5.44a14.01 14.01 0 0 0-.91.09c.04-.86.02-2.11.02-2.96l-.02-3.02c-.04.84-.02 2.17-.02 3.02s-.02 2.11.02 2.96l-.72.1c-.27.05-.55.1-.81.22-.13.06-.26.19-.22.36.02.05.05.1.04.15 0 .06-.04.13-.11.18-.06.05-.13.08-.2.11v-6.96h-.1v1.61l-.85-.99zm.86 13.65c-.08 0-.16 0-.24.01l-1.44.05c-.08.01-.17.01-.25.03l.21-.88c-.01-.07.06-.12.11-.15.18-.09.38-.12.58-.15.27-.03.53-.03.8-.05.08 0 .15-.01.23-.01v1.15zm.1-.01V45.2c.43-.02.85-.04 1.28-.04h.13a41.43 41.43 0 0 0 .02 1.18l-1.43.01zm2.93-.01c-.5-.01-1-.01-1.5 0l.02-1.18h.54c0 .42.01.82.02 1.14l.02-1.14.89.01.01 1.17zm1.67.03a46.51 46.51 0 0 0-1.67-.03v-1.18l1.66.05.01 1.16zm1.76.06l-1.75-.06v-1.16a51.25 51.25 0 0 1 1.75.09v1.13zm1.75.08l-1.75-.08v-1.14l1.75.1v1.12zm1.71.1c-.04 0-.08 0-.11-.01l-1.59-.09v-1.12l1.7.1v1.12zm11.24 7.66a42.14 42.14 0 0 0 0-1.59 42.14 42.14 0 0 0 0 1.59h-.17a38.51 38.51 0 0 0 0-1.52c.05.02.09.1.09.15-.01-.06-.04-.14-.09-.15v-.07.07h-.05c-.03.02-.07.06-.1.02-.04-.04-.07-.1-.11-.14-.1-.1-.23-.17-.37-.2a.79.79 0 0 1 .37.2c.04.04.07.1.11.14.03.04.07 0 .11-.02.02-.01.04-.01.05 0a38.51 38.51 0 0 0 0 1.52h-1.91c.04-.97.02-2.46.02-3.43l6.37.02c-.02.5-.01 1.13-.01 1.58 0 .53-.02 1.31.02 1.83h-4.33zm4.33 0c.04-.53.02-1.31.02-1.83l-.01-1.58h.56c-.02.5 0 1.13-.01 1.57 0 .53-.01 1.31.02 1.84h-.58zm.59-14.58c-.04.98-.02 2.44-.02 3.43v2.14c-.18-.01-.36-.03-.54-.04v-2.15l-.02-3.35a5.78 5.78 0 0 0 .58-.03zm-.57 5.54c.18.01.36.03.54.04 0 .41.01.81.02 1.15-.19.01-.39.02-.58.02.02-.35.02-.77.02-1.21zm.57 1.49c-.04.57-.02 1.41-.02 1.98l.01 1.81h-.57c.03-.55.01-1.29.01-1.81 0-.56.02-1.4-.02-1.96.2 0 .39-.01.59-.02zm-.61.56c-2.13-.07-4.26-.07-6.39 0 2.13.07 4.26.07 6.39 0-.01.48 0 1.02 0 1.43l.01 1.81c-2.12.02-4.25.06-6.37.16l-.02-3.34c-.04.95-.02 2.35-.02 3.34l-.54.03v-.29l-.02-3.36c2.33-.06 4.66-.19 7-.31a2.93 2.93 0 0 0-.04.53zm-13.43-3.51c2.14.07 4.29.07 6.43 0v1.27.23c-.07.01-.15.02-.2.03-2.07.27-4.16.29-6.24.26l.01-1.79zm6.24 1.53c.05-.01.12-.02.2-.03 0 .44-.01.98.01 1.43-2.16.06-4.31.07-6.46 0l.02-1.14c2.07.03 4.16.01 6.23-.26zm.19-1.53c-2.14-.07-4.29-.07-6.43 0v-.56-.47c.39-.03.82-.05 1.29-.05.17 0 .34 0 .51.01l5.22.21v.44 1.84a3.06 3.06 0 0 0-.32.05c-.05.01-.13.02-.22.03v-.22c0-.58.02-1.44-.02-2-.02.2-.03.45-.03.72zm.05 1.5c.08-.01.16-.03.22-.03.11-.02.21-.03.32-.05l.02 1.5c-.19.01-.38.01-.56.02.01-.46 0-1 0-1.44zm.57 1.41l.02-1.5c.72-.09 1.45-.11 2.17-.12 1.4 0 2.79.06 4.18.16a43.12 43.12 0 0 0 .02 1.22l-6.39.24zm5.58-3.75c-.01-.01-.01-.02-.02-.02s-.01-.01-.02-.01c-.02 0-.03-.01-.05-.01h-.03v.02c-.07 0-.2.01-.44.01a148.38 148.38 0 0 1-2.17-.03l-2.84-.08v-.96c.12 0 .24 0 .36-.01a50.82 50.82 0 0 0 3.02-.13c.75-.06 1.5-.14 2.26-.13.24.01.49.01.72.07v1.43.7c-2.12-.07-4.24-.07-6.36 0v-.43-.44l2.83.08 2.17.03c.21 0 .34 0 .41-.01.04 0 .06 0 .08-.01h.02s.01 0 .02-.01c.02-.02.02-.03.02-.04.03-.01.02-.02.02-.02zm-5.56.85c2.12.07 4.24.07 6.36 0v1.44c-1.39-.1-2.79-.16-4.18-.16-.72 0-1.45.03-2.17.12l-.01-1.4zm6.38-4.05c-.02.55-.02 1.24-.02 1.92-.23-.06-.48-.06-.72-.07-.76-.01-1.51.07-2.26.13a50.46 50.46 0 0 1-3.02.13c-.12.01-.24.01-.36.01l-.02-1.96c2.13.03 4.27-.03 6.4-.16zm-6.41.16c-.02.56-.02 1.27-.02 1.96a9.74 9.74 0 0 1-.54-.02v-.6c0-.39.01-.95-.02-1.35.19 0 .39 0 .58.01zm-.56 1.94c.18.02.36.02.54.02v.95l-5.21-.21c-.18-.01-.35-.01-.52-.01-.48 0-.91.02-1.29.05v-1.1c.03 0 .05-.01.08-.01 1.82-.31 3.7-.22 5.51.16.28.07.56.11.84.14 0 .29 0 .59.03.81.02-.22.02-.52.02-.8zm-6.27-2.25c1.86.03 3.71.22 5.57.28.22.01.45.01.67.02-.03.4-.01.96-.02 1.35v.59c-.28-.03-.56-.07-.84-.14-1.81-.38-3.69-.47-5.51-.16-.03 0-.05.01-.08.01l-.02-1.96c.07.01.15.01.23.01zm-.24 0c-.02.56-.02 1.27-.02 1.97-.18.03-.36.06-.54.1V41c0-.41.01-1-.02-1.42a5.61 5.61 0 0 1 .58 0zm-.58 3.22l.56-.06v.46l.02 3.5c-.19-.01-.37-.01-.56-.02l-.02-3.88zm-1.51.21v-.9c.04-.02.07-.04.11-.05.44-.19.9-.31 1.36-.41 0 .29 0 .57.03.8.02-.23.03-.52.03-.81.18-.03.36-.07.54-.1v1.1c-.97.09-1.65.25-2.07.37zm-9.82 7.87l7.87.04a2.09 2.09 0 0 0 .01.25c0-.08 0-.17.01-.25h.11a2.09 2.09 0 0 0 .01.25c0-.08 0-.17.01-.25l8.4-.07v-.05c-.78-.06-1.56-.09-2.35-.13l-2.73-.07c.03-1.02.02-2.53.02-3.62 1.36.07 2.72.11 4.07.11l2.97-.04c0 .07-.01.15-.01.22a95.73 95.73 0 0 0-6.34 0 95.73 95.73 0 0 0 6.34 0c-.03.95-.01 2.24-.02 3.14v.29l-1.42.09 1.42.03.02 2.96c.03-.81.02-2.03.02-2.96.18 0 .36 0 .54.01l.02 3.43h-2.99a38.51 38.51 0 0 0 0-1.52c.02 0 .03-.01.05 0 .03.02.07.06.11.02s.07-.1.11-.14c.1-.1.23-.17.37-.2a.79.79 0 0 0-.37.2c-.04.04-.07.1-.11.14-.03.04-.07 0-.1-.02-.02-.01-.04-.01-.05 0v-.07.07a.17.17 0 0 0-.09.14c0-.04.04-.12.09-.14a38.51 38.51 0 0 0 0 1.52h-.17a42.14 42.14 0 0 0 0-1.59 42.14 42.14 0 0 0 0 1.59h-7.71c-.02-.52-.08-1.07-.12-1.59l.11 1.59h-.23c.01-.52 0-1.12 0-1.67l-.01 1.67h-.54a42.14 42.14 0 0 0 0-1.59 42.14 42.14 0 0 0 0 1.59h-.17a38.51 38.51 0 0 0 0-1.52c.05.02.09.1.09.15-.01-.06-.04-.14-.09-.15v-.07.07h-.05c-.03.02-.07.06-.1.02-.04-.04-.07-.1-.11-.14-.1-.1-.23-.17-.37-.2a.79.79 0 0 1 .37.2c.04.04.07.1.11.14.03.04.07 0 .11-.02.02-.01.04-.01.05 0a38.51 38.51 0 0 0 0 1.52h-4.57c.01-.56.01-1.11 0-1.67-.01.56-.01 1.11 0 1.67h-.18a42.67 42.67 0 0 0 0-1.6c.06.02.09.1.1.16-.01-.07-.04-.14-.1-.16v-.07.07c-.02 0-.03-.01-.05 0-.03.02-.07.06-.11.02-.05-.04-.07-.1-.12-.15a.95.95 0 0 0-.38-.21c.14.03.28.11.38.21.04.05.07.1.12.15.04.04.08 0 .11-.02.02-.01.04-.01.05 0a42.67 42.67 0 0 0 0 1.6h-2.41v-3.38z"/><path d="M32.28 52.81a.76.76 0 0 1 .03-.21.82.82 0 0 0-.03.21zm.06-.27c.01-.02.03-.04.05-.06-.02.02-.04.04-.05.06z"/><path d="M32.28 52.81zm.11-.33l.13-.05h.01-.01 0 0-.02l-.1.04c.02-.02.05-.03.08-.04-.03.02-.06.03-.09.05l-.03.01c.01 0 .02 0 .03-.01h0z"/><path d="M31.42 51.67c-.11-.05-.27-.06-.37 0 .11-.28.46-.17.7-.21a.55.55 0 0 1-.23-.27l.2.07h0 .03s-.01 0-.03-.01c-.01 0-.02-.03-.01-.04s.03-.02.04-.01c.07.03.22.12.29.15h.01a.33.33 0 0 1 .06-.19c.05.05.09.13.09.21v.03l.01-.03c.04-.11.13-.2.24-.22.02 0 .02.02.01.02h0c-.01 0-.03.01-.04.01h.04 0c.24-.07.49-.08.73-.01l-.46.13h0v.01h0a.78.78 0 0 1 .22-.03c.02 0 .03.01.04.03-.01.06-.09.03-.13.07h-.01c.06.04.12.08.19.11h-.05-.03l.02.01c.15.07.26.21.3.36-.25-.04-.54-.06-.74.11h-.01l-.03.03h.04c.19-.11.42-.11.62-.02-.25.04-.49.1-.73.17v.01c.2-.05.41-.09.62-.04.2.04.39.18.45.39-.32-.11-.71-.12-1.05-.04a2.08 2.08 0 0 1 1.05.04h0 0c-.08-.32-.46-.45-.76-.41-.06.01-.11.01-.16.03a6.5 6.5 0 0 1 .6-.14h.01l-.01-.01a.68.68 0 0 0-.59-.01c.2-.14.47-.11.7-.08h.01v-.01a.6.6 0 0 0-.29-.37h.08c-.08-.03-.15-.08-.22-.12.04-.02.13-.01.13-.08 0-.02-.03-.03-.05-.03h-.09l.36-.1.02-.01c-.25-.08-.52-.08-.76 0 0-.02-.01-.03-.02-.03-.05.01-.1.03-.14.07-.05.04-.08.09-.11.15 0-.08-.04-.15-.1-.2-.04.05-.06.12-.06.19l-.29-.15c-.02 0-.04 0-.05.02-.01.01-.01.03 0 .04l-.19-.06h-.01c.04.12.12.22.22.28-.23.02-.58-.07-.68.21.24-.11.54.03.64.25-.05-.13-.16-.23-.27-.27z"/><path d="M31.68 51.92v.01h0zm.71.56c.02 0 .04-.01.05-.01-.01 0-.03.01-.05.01z"/><path d="M30.88 52.47c.04-.18.22-.32.41-.29h0l-.18-.24.09-.02h0c0-.02-.01-.03-.03-.04.16-.13.35.04.52.06-.17-.02-.36-.19-.52-.06h0 0l.03.03-.09.02h0 0l.18.24c-.19-.02-.38.12-.41.3h0 0a.86.86 0 0 1 .64-.12c-.22-.05-.46-.01-.64.12zm1.51.01l-.02.01s.01 0 .02-.01z"/><path d="M32.1 52.33l-.42-.31.43.34c-.05-.3-.16-.59-.33-.85.16.25.26.53.32.82z"/><path d="M32.44 52.13l.03-.06c.01-.02.03-.04.02-.06.01.02-.01.04-.02.06l-.03.06c-.06.08-.13.21-.18.29-.01.02-.02.03-.03.04.02-.33-.02-.66-.12-.97l.1.49c.02.17.02.34.01.52.01-.01.02-.03.03-.04.02-.01.04-.07.06-.09l.07-.12.06-.12zm4.59.75zm-1.35-.33c0-.01.01-.02.01-.02s-.01.01-.01.02z"/><path d="M37.03 52.88c0-.07.01-.14.03-.2-.03.06-.04.14-.03.2zm.11-.32l.12-.04h.01-.01 0 0c-.05-.01-.09.01-.12.04l-.03.01c0-.01.01-.01.03-.01h0 0zm.11-.04l-.1.04c.02-.03.06-.04.1-.04z"/><path d="M37.08 52.62a.12.12 0 0 1 .05-.05c-.02.01-.03.03-.05.05zm-.88-.84c-.11-.04-.26-.06-.36 0 .11-.27.44-.17.67-.2a.51.51 0 0 1-.22-.26l.19.07h0 .03s-.01 0-.03-.01c-.01 0-.02-.02-.01-.04.01-.01.03-.02.04-.01.06.02.21.11.28.14h.01v-.01c0-.06.02-.12.06-.17.06.06.09.14.08.22.03-.1.1-.19.2-.23.02-.01.05-.02.06 0v.01c-.01 0-.03.01-.04.01h.04 0a1.28 1.28 0 0 1 .7-.01l-.44.13h0v.01h0c.07-.02.14-.03.21-.02.02 0 .03.01.03.02-.01.06-.09.03-.12.07h-.01l.18.11h-.07c.15.07.27.2.31.36-.12-.02-.24-.03-.36-.02s-.24.05-.34.13h-.01l-.03.03.04-.02c.18-.1.41-.11.59-.02-.24.04-.47.09-.69.17v.01c.19-.05.39-.08.59-.04.19.04.38.18.43.37-.3-.1-.68-.11-1-.03.33-.07.68-.07 1.01.04h0a.42.42 0 0 0-.16-.25c-.2-.17-.47-.17-.72-.12l.57-.13h.01l-.01-.01c-.17-.09-.39-.09-.56-.01.19-.13.45-.1.67-.07H38v-.01c-.04-.15-.14-.28-.28-.35h.07c-.07-.03-.15-.07-.21-.12.04-.02.12-.01.12-.08 0-.02-.03-.03-.05-.03h-.09l.34-.1.02-.01c-.24-.07-.49-.07-.73 0 0-.02-.01-.03-.02-.03a.31.31 0 0 0-.13.06c-.05.04-.08.09-.1.14 0-.07-.04-.15-.09-.19a.28.28 0 0 0-.06.18c-.07-.03-.21-.12-.27-.14-.02 0-.04 0-.05.02-.01.01-.01.02 0 .03l-.18-.06h-.01c.04.11.12.21.22.27-.22.02-.56-.07-.65.2.23-.1.51.03.62.24-.06-.1-.17-.19-.27-.24z"/><path d="M37.13 52.56c.02 0 .03-.01.05-.01-.01 0-.03.01-.05.01z"/><path d="M37.11 52.57c.01 0 .01 0 .02-.01l-.02.01zm-1.04-.3h0l-.17-.23.09-.02h0c0-.02-.01-.03-.03-.04.15-.13.33.04.5.06-.16-.02-.34-.18-.5-.05h0 0l.03.03-.09.02h0 0c0-.01.17.23.17.23a.36.36 0 0 0-.38.26c.05-.16.21-.28.38-.26z"/><path d="M35.68 52.55a.8.8 0 0 1 .62-.11.8.8 0 0 0-.62.11zm.77-.53v.01h.01z"/><path d="M36.85 52.41l-.4-.3.41.32c-.05-.29-.16-.57-.31-.81.15.25.25.51.3.79z"/><use xlink:href="#C"/><path d="M64.1 52.48h0c.01 0 .02 0 .03.01l-.03-.01c-.02-.02-.04-.02-.05-.03.01.01.03.01.04.02l-.12-.04h0 0 0 0 0-.01.01l.13.05z"/><path d="M63.97 52.43h0c.01 0 .02 0 .04.01-.02 0-.03 0-.04-.01z"/><path d="M65.62 52.47h0 0a.38.38 0 0 0-.4-.3c0 .01.18-.24.18-.24h0 0l-.09-.02c0-.02.02-.03.03-.04-.07-.07-.18-.06-.26-.03l-.26.09c.1-.24.4-.36.64-.26h0c-.02-.07-.07-.12-.12-.15-.17-.1-.37-.04-.56-.06.1-.06.18-.16.23-.28H65c-.01 0-.12.04-.19.06.01-.01 0-.03 0-.04-.04-.05-.11.02-.15.03l-.19.1a.33.33 0 0 0-.06-.19c-.06.05-.09.13-.1.2-.02-.06-.06-.11-.11-.15-.03-.02-.14-.1-.16-.05-.25-.06-.52-.07-.76.01l.02.01.36.1h-.09c-.02 0-.04.01-.05.03 0 .07.09.05.13.08a.94.94 0 0 1-.22.12h.08a.6.6 0 0 0-.29.37v.01h.01c.23-.03.5-.07.7.08a.68.68 0 0 0-.59.01l-.01.01h.01a6.43 6.43 0 0 1 .6.13c-.26-.05-.54-.05-.76.13-.08.07-.15.16-.17.26h0a2.08 2.08 0 0 1 1.05-.04c-.34-.08-.73-.07-1.05.04.05-.21.25-.35.45-.39s.42-.01.62.04v-.01a4.55 4.55 0 0 0-.73-.17.68.68 0 0 1 .62.02l.04.02-.03-.03h0c-.11-.08-.24-.13-.36-.13-.13-.01-.26.01-.38.03a.62.62 0 0 1 .32-.37h-.03-.05a1.18 1.18 0 0 0 .19-.11c-.03-.03-.08-.02-.11-.04-.01-.01-.03-.02-.03-.04s.02-.02.04-.03a.42.42 0 0 1 .22.03h0v-.01h0l-.46-.13c.24-.07.5-.06.73.01h0 .04c-.01 0-.03-.01-.04-.01h0c-.01 0-.01-.02.01-.02.11.02.2.12.24.22l.01.03v-.03c0-.08.03-.15.09-.21a.3.3 0 0 1 .06.18c.08-.03.24-.13.3-.15.02 0 .04 0 .04.01.01.01.01.04-.01.04-.01.01-.03.01-.03.01h.03 0l.2-.07a.55.55 0 0 1-.23.27c.23.03.58-.07.7.21-.1-.06-.26-.04-.37 0-.11.05-.23.15-.27.26.17-.02.36-.19.52-.06-.01.01-.02.02-.03.04h0l.09.02-.18.24c.16-.01.35.12.39.31-.19-.13-.43-.17-.65-.12.22-.05.46-.01.65.12z"/><path d="M64.11 52.49c.01 0 .01 0 .02.01l-.02-.01z"/><path d="M64.15 52.54c-.01-.02-.03-.04-.04-.05.01.01.03.03.04.05zm.06.27c0-.06 0-.14-.03-.21a.82.82 0 0 1 .03.21z"/><path d="M64.21 52.84v-.02.02zm-.11-.36c-.02 0-.03-.01-.05-.01.01.01.03.01.05.01zm.71-.47l-.42.31a2.4 2.4 0 0 1 .31-.82 2.39 2.39 0 0 0-.33.85l.44-.34z"/><path d="M64.25 52.45c.01.01.02.03.03.04a3.01 3.01 0 0 1 .01-.52 2.66 2.66 0 0 1 .1-.49c-.1.31-.14.64-.12.97-.01-.01-.02-.03-.03-.04l-.18-.29-.04-.06c-.01-.01-.03-.03-.02-.06-.01.02.01.04.02.06l.03.06.07.12.07.12c.01.02.04.08.06.09zm-4.84.17c-.01-.02-.03-.04-.04-.05.01.01.02.03.04.05z"/><path d="M59.39 52.57l-.02-.01c0 .01.01.01.02.01zm.07.33v-.02.02z"/><path d="M59.36 52.56c-.02 0-.03-.01-.05-.01.02 0 .03.01.05.01zm.67-.53h.01v-.01zm-.57.85c0-.06 0-.14-.03-.2.03.06.03.13.03.2z"/><path d="M59.36 52.56c.01 0 .02 0 .02.01l-.02-.01c-.02-.02-.04-.02-.05-.03.01.01.03.01.04.02l-.12-.04h-.01.01l.13.05h0z"/><path d="M60.66 51.78c-.1-.27-.43-.18-.65-.2.1-.06.18-.16.22-.27h-.01c-.01 0-.12.04-.18.06v-.03c-.01-.02-.03-.02-.05-.02-.06.02-.21.11-.27.14a.3.3 0 0 0-.06-.18c-.05.05-.09.12-.09.19-.02-.06-.06-.11-.1-.14-.03-.02-.13-.09-.15-.05a1.39 1.39 0 0 0-.73.01l.02.01.33.1c-.06-.01-.11 0-.12.04 0 .07.09.05.12.08-.07.05-.14.09-.21.12h.07c-.14.07-.24.2-.28.35V52h.01c.22-.03.48-.06.67.07-.18-.08-.39-.08-.56.01l-.01.01h.01a3.9 3.9 0 0 1 .57.13c-.25-.05-.52-.05-.72.12a.42.42 0 0 0-.16.25h0c.32-.1.68-.11 1.01-.04-.32-.08-.7-.07-1 .03.05-.2.24-.33.43-.37.2-.04.4-.01.59.04v-.01h0c-.23-.07-.46-.13-.69-.17.18-.09.41-.08.59.02l.04.02-.03-.03h0c-.2-.16-.48-.14-.71-.1a.56.56 0 0 1 .29-.35l.02-.01h-.07c.06-.03.12-.07.18-.11-.03-.03-.08-.02-.11-.04-.01-.01-.03-.02-.02-.04 0-.01.02-.02.03-.02.07-.01.14 0 .21.02h0v-.01l-.44-.13a1.28 1.28 0 0 1 .7.01h0 .04c-.01 0-.03-.01-.04-.01h0c-.01 0-.01-.02.01-.02.11.02.2.11.23.21l.01.03v-.03c0-.07.03-.15.08-.2.04.05.06.11.06.17l.29-.14c.02 0 .04 0 .04.01.01.01.01.03-.01.04-.01.01-.03.01-.03.01h.03 0l.19-.07a.51.51 0 0 1-.22.26c.18.05.51-.05.63.22-.1-.06-.26-.05-.36 0-.11.04-.21.14-.25.24.09-.21.38-.34.61-.24z"/><path d="M60.81 52.55h0 0c-.03-.17-.22-.31-.39-.28l.17-.23h0 0l-.09-.02c0-.01.01-.03.03-.03h0 0c-.15-.13-.34.04-.5.05.16-.01.34-.18.5-.06-.01.01-.02.02-.03.04h0l.09.02-.17.23h0 0c.18-.03.35.11.39.28-.18-.12-.41-.16-.62-.12.21-.04.44 0 .62.12z"/><path d="M60.04 52.11l-.4.3c.05-.28.16-.54.3-.79-.16.25-.27.52-.31.81l.41-.32z"/><path d="M59.5 52.53c.01.01.02.03.03.04-.02-.32.01-.65.1-.96-.1.3-.13.62-.11.93-.01-.01-.02-.02-.03-.04l-.17-.28-.03-.06c-.01-.02-.03-.04-.02-.06-.01.02.01.04.02.06l.03.06.07.11.07.11c0 .02.02.08.04.09zm-8.63.03c.02 0 .03-.01.05-.01-.01 0-.03.01-.05.01zm-.1.32zm-1.35-.33c.03-.17.21-.3.39-.28h0l-.17-.23.09-.02h0c0-.02-.01-.03-.03-.04.15-.13.33.04.5.06-.16-.02-.34-.18-.5-.05h0 0l.03.03-.09.02h0 0l.17.23c-.18-.03-.36.11-.39.28.18-.12.41-.16.62-.12-.21-.04-.45 0-.62.12z"/><path d="M50.84 52.57c.01 0 .01 0 .02-.01l-.02.01zm-.9-.79c-.11-.04-.26-.06-.36 0 .11-.27.44-.17.67-.2a.51.51 0 0 1-.22-.26l.19.07h0 .03s-.01 0-.03-.01c-.01 0-.02-.02-.01-.04.01-.01.03-.02.04-.01.06.02.21.11.28.14h.01v-.01c0-.06.02-.12.06-.17.06.06.09.14.08.22.03-.1.1-.19.2-.23.02-.01.05-.02.06 0v.01c-.01 0-.03.01-.04.01h.04 0a1.28 1.28 0 0 1 .7-.01l-.44.13h0v.01h0c.07-.02.14-.03.21-.02.02 0 .03.01.03.02-.01.06-.09.03-.12.07h-.01l.18.11h-.07c.15.07.27.2.31.36-.12-.02-.24-.03-.36-.02s-.24.05-.34.13h-.01l-.03.03.04-.02c.18-.1.41-.11.59-.02-.24.04-.47.09-.69.17h0v.01c.19-.05.39-.08.59-.04.19.04.38.18.43.37-.3-.1-.68-.11-1-.03.33-.07.68-.07 1.01.04h0a.42.42 0 0 0-.16-.25c-.2-.17-.47-.17-.72-.12l.57-.13h.01l-.01-.01c-.17-.09-.39-.09-.56-.01.19-.13.45-.1.67-.07h.01v-.01c-.04-.15-.14-.28-.28-.35h.07c-.07-.03-.15-.07-.21-.12.04-.02.12-.01.12-.08 0-.02-.03-.03-.05-.03h-.09l.34-.1.02-.01c-.24-.07-.49-.07-.73 0 0-.02-.01-.03-.02-.03a.31.31 0 0 0-.13.06c-.05.04-.08.09-.1.14 0-.07-.04-.15-.09-.19a.28.28 0 0 0-.06.18c-.07-.03-.21-.12-.27-.14-.02 0-.04 0-.05.02-.01.01-.01.02 0 .03l-.18-.06h-.01c.04.11.12.21.22.27-.22.02-.56-.07-.65.2.23-.1.51.03.62.24-.09-.1-.2-.19-.3-.24z"/><path d="M50.87 52.56l.13-.04h.01H51h0 0c-.05-.01-.1.01-.13.04l-.03.01c.01-.01.02-.01.03-.01h0 0zm.11-.04l-.1.04c.03-.03.07-.04.1-.04z"/><path d="M50.82 52.62a.12.12 0 0 1 .05-.05c-.02.01-.03.03-.05.05zm-.05.26c0-.07.01-.14.03-.2-.03.06-.04.14-.03.2zm-.58-.86v.01h0z"/><path d="M50.59 52.41l-.4-.3.41.32c-.05-.29-.16-.57-.31-.81.15.25.25.51.3.79z"/><use xlink:href="#C" x="13.74"/><path d="M46.87 51.78c-.1-.27-.43-.18-.65-.2.1-.06.18-.16.22-.27h-.01c-.01 0-.12.04-.18.06v-.03c-.01-.02-.03-.02-.05-.02-.06.02-.21.11-.27.14a.3.3 0 0 0-.06-.18c-.05.05-.09.12-.09.19-.02-.06-.06-.11-.1-.14-.03-.02-.13-.09-.15-.05a1.39 1.39 0 0 0-.73.01l.02.01.33.1c-.06-.01-.11 0-.12.04 0 .07.09.05.12.08-.07.05-.14.09-.21.12h.07c-.14.07-.24.2-.28.35V52h.01c.22-.03.48-.06.67.07-.18-.08-.39-.08-.56.01l-.01.01h.01a3.9 3.9 0 0 1 .57.13c-.25-.05-.52-.05-.72.12a.42.42 0 0 0-.16.25h0c.32-.1.68-.11 1.01-.04-.32-.08-.7-.07-1 .03.05-.2.24-.33.43-.37.2-.04.4-.01.59.04v-.01h0c-.23-.07-.46-.13-.69-.17.18-.09.41-.08.59.02l.04.02-.03-.03h0c-.2-.16-.48-.14-.71-.1a.56.56 0 0 1 .29-.35l.02-.01h-.07c.06-.03.12-.07.18-.11-.03-.03-.08-.02-.11-.04-.01-.01-.03-.02-.02-.04 0-.01.02-.02.03-.02.07-.01.14 0 .21.02h0v-.01l-.44-.13a1.28 1.28 0 0 1 .7.01h0 .04c-.01 0-.03-.01-.04-.01h0c-.01 0-.01-.02.01-.02.11.02.2.11.23.21l.01.03v-.03c0-.07.03-.15.08-.2.04.05.06.11.06.17l.29-.14c.02 0 .04 0 .04.01.01.01.01.03-.01.04-.01.01-.03.01-.03.01h.03 0l.19-.07a.51.51 0 0 1-.22.26c.18.05.52-.05.63.22-.1-.06-.26-.05-.36 0-.11.04-.21.14-.25.24a.49.49 0 0 1 .61-.24z"/><path d="M46.25 52.03h0l.01-.01zm-.8.48h0 .03c-.01.01-.02.01-.03 0z"/><path d="M45.58 52.56c.01 0 .02 0 .02.01l-.02-.01c-.02-.02-.04-.02-.05-.03.01.01.03.01.04.02l-.12-.04h0 0 0 0-.01.01l.13.05h0z"/><path d="M45.57 52.56c-.02 0-.03-.01-.05-.01.02 0 .04.01.05.01zm.11.32c0-.06 0-.14-.03-.2.02.06.03.13.03.2z"/><path d="M45.6 52.57l-.02-.01c.01.01.01.01.02.01zm.08.33v-.02.02z"/><path d="M45.62 52.62c-.01-.02-.03-.04-.04-.05.01.01.03.03.04.05zm1.4-.07h0 0c-.03-.17-.22-.31-.39-.28l.17-.23h0 0l-.09-.02c0-.01.01-.03.03-.03h0 0c-.15-.13-.34.04-.5.05.16-.01.34-.18.5-.06-.01.01-.02.02-.03.04h0l.09.02-.17.23h0 0c.18-.03.36.11.39.28-.18-.12-.41-.16-.62-.12.22-.04.45 0 .62.12z"/><path d="M46.25 52.11l-.4.3c.05-.28.16-.54.3-.79-.16.25-.27.52-.31.81l.41-.32z"/><path d="M45.71 52.53c.01.01.02.03.03.04-.02-.32.01-.65.1-.96-.1.3-.13.62-.11.93-.01-.01-.02-.02-.03-.04l-.17-.28-.03-.06c-.01-.02-.03-.04-.02-.06-.01.02.01.04.02.06l.03.06.07.11.07.11c0 .02.03.08.04.09zM39.6 20.85h0v-3.17 3.17zm0 4.35v2.12h0V25.2zm17.39.85v.29-.29zm-19.1 11.39h0v-5.12 5.12zm1.71-2.87h0v-2.12 2.12zm-3.46 12.6v1.93h0v-1.93zm0 2.2v.46c.01-.15 0-.3 0-.46z"/><path d="M36.14 50.26v.29c.01-.09 0-.19 0-.29zm3.46-2.98v.98-.98zm-.47-29.7l.9.02-.9-.02z"/><use xlink:href="#D"/><path d="M40.03 25.06h.14l.55-.02c-.18.02-.37.02-.55.02h-.14zm-7.26.09l6.36-.1c-.2 0-.4-.01-.6-.01-1.84-.01-3.87.08-5.76.11z"/><path d="M40.03 25.06l-.9-.02.9.02zm-.9 7.23c-.2 0-.4-.01-.6-.01l-5.76.11 6.36-.1z"/><path d="M39.13 32.29l.9.02-.9-.02z"/><use xlink:href="#D" y="14.71"/><use xlink:href="#D" y="22.28"/><path d="M39.13 39.86l.9.02-.9-.02z"/><path d="M39.13 39.86c-.2 0-.4-.01-.6-.01l-5.76.11 6.36-.1zm0 7.27l.9.02-.9-.02z"/><path d="M39.13 47.13c-.2 0-.4-.01-.6-.01l-5.76.11 6.36-.1z"/><use xlink:href="#D" y="29.55"/><path d="M30.67 17.88c.08-.03.17-.05.25-.07l-.25.07c-.23.07-.57.25-.5.53l.01 1.3v-1.3c-.07-.29.27-.45.49-.53zm20.26 1.88c-.72 0-1.44-.13-2.14-.32.7.2 1.42.32 2.14.32.92-.03 1.86-.27 2.78-.08h0c-.92-.19-1.85.05-2.78.08zm-3.08 3.81h0c-1.23-.14-2.42-.52-3.58-.95 1.15.44 2.35.81 3.58.95zm7.31-.54l-.7.16c-1.79.37-3.62.57-5.44.53 1.82.04 3.66-.15 5.44-.53l.7-.16.69-.19.68-.22-.68.21-.69.2zm-14.65 3.39a2.67 2.67 0 0 1 .41-.22c-.13.06-.28.14-.41.22-.17.1-.35.24-.48.39-.23.24-.39.55-.46.88.11-.53.49-.99.94-1.27zm4.29 7.05l2.54.24h0l-2.54-.24c-.42-.03-.85-.04-1.27-.02-.42.03-.85.07-1.25.23.39-.15.83-.2 1.25-.22.42-.03.84-.02 1.27.01zM29.52 20.7l.03-.01c-.36-.89-.69-1.82-.83-2.77-.1-.71.12-1.47.63-1.99.5-.53 1.23-.76 1.95-.82.48-.04.97 0 1.44.07l2.86.52 4.31.64c1.93.18 3.88.19 5.81-.02l1.44-.2c3.81-.68 7.65-1.24 11.51-1.56 1.45-.11 2.9-.2 4.35-.11.47.05.97.08 1.4.31a.58.58 0 0 1 .23.26c.11.22.17.45.18.69.02.24-.08.51.08.72.32.35 1.27.4 1.72.54.23.06.46.15.65.29.47.35.2.89-.14 1.22l.02.03c.09-.08.17-.18.24-.28.25-.35.27-.76-.08-1.03-.41-.32-.93-.39-1.39-.49-.23-.05-.47-.11-.68-.2-.22-.09-.33-.19-.3-.43.02-.24.03-.52-.04-.76-.05-.2-.12-.4-.24-.56-.14-.16-.35-.25-.54-.31-.84-.24-1.72-.24-2.58-.26a52.85 52.85 0 0 0-1.78.04c-.35-.05-.74-.02-1.11.06-.34.02-.69.05-1.03.08-.22-.13-.47-.22-.72-.29-1.05-.28-2.16-.19-3.23 0l-.17.04-.33.07c-1.07.26-2.17.34-3.26.3-2.78-.11-5.54-.75-8.32-.87-.74-.04-1.51-.01-2.23.2-.5.16-1.01.43-1.29.89-.2.32-.27.71-.22 1.09-1.7-.24-3.4-.58-5.09-.84-1.46-.22-3.29-.01-3.97 1.5-.45.94-.13 1.98.18 2.9.16.45.34.9.54 1.34zm8.66-5.94c.69-.97 2.33-.97 3.41-.9 2.79.2 5.54.87 8.34.94.9.02 1.8-.04 2.68-.23.77-.17 1.52-.39 2.3-.47.77-.08 1.57-.08 2.32.14a2.08 2.08 0 0 1 .32.12l-1.8.17c-2.41.25-4.82.59-7.21.99l-1.43.25c-2.36.41-4.77.46-7.16.25-.67-.05-1.35-.14-2.02-.23-.04-.36.04-.74.25-1.03zm6.42 3.72l.73.07c.59.08 1.17.18 1.75.34-.57-.16-1.16-.27-1.75-.35l-.73-.06c-.74-.04-1.47.13-2.17.32.7-.18 1.43-.35 2.17-.32z"/><path d="M66.24 17.74h-.1v4.05l-.35-.04-1.12-.08.02-2.54-.02-2.64c.02.06.04.11.08.17.14.18.36.27.57.35s.43.13.65.17c.44.1 1.88.47 1.06 1.06.82-.58-.58-.97-1.05-1.08a4.67 4.67 0 0 1-.64-.18c-.2-.08-.42-.17-.55-.35-.22-.3.02-.66-.39-.89-.29-.17-.64-.22-.96-.3-2.17-.5-4.43-.74-6.66-.52-2.23.26-4.32 1.11-6.47 1.71-.86.22-1.76.28-2.64.34a35.25 35.25 0 0 1-5.34-.1c-2.66-.31-5.33-.67-8.01-.54a9.83 9.83 0 0 0-1.33.14l-1.32.24-1.33.14c-.43.06-.95.16-1.15.6-.09.21-.14.43-.12.66.01.23.07.44.13.66l.36 1.29-.34-1.29c-.05-.22-.11-.43-.12-.66-.01-.22.04-.44.13-.64a.8.8 0 0 1 .48-.42 2.9 2.9 0 0 1 .65-.14l.88-.09-.02 2.77.02 2.58c-.3.13-.56.3-.73.53-.11.15-.16.36-.11.55l.01.07v.07c-.03.26-.29.48-.6.66v-6.22h-.1v6.27c-.3.16-.63.27-.83.34l.01.03c.22-.06.43-.13.64-.22l.19-.09v.03h.1v-.09c.32-.16.65-.38.69-.72 0-.05 0-.12-.01-.17-.08-.45.33-.73.75-.91v.07-.08a4.23 4.23 0 0 1 .5-.17c.03-.01.06-.01.09-.02.84-.2 1.71-.19 2.57-.23l.01.06h0v-.06l.99-.02.76.01v.06h0v-.06a27.08 27.08 0 0 1 4.22.44 25.85 25.85 0 0 1 2.6.62l3.2 1c4.57 1.38 6.04 1.04 10.45-.49 2.95-.98 6.04-1.82 9.17-1.54.88.08 1.78.18 2.61.5.3.13.62.29.78.58.05.09.08.21.06.31l.03.01c.09-.47-.45-.79-.84-.97-.69-.29-1.44-.43-2.18-.52v-4.06zM48.2 18.76c0-.49.01-1.22-.02-1.72.19-.02.39-.03.58-.05-.04.53-.02 1.29-.02 1.81s-.01 1.29.02 1.81c-.19-.04-.39-.08-.58-.13.03-.5.01-1.22.02-1.72zm-10.31 2.95a34.14 34.14 0 0 0-1.75-.08v-4.02l1.76-.03-.01 4.13zm3.19-2.13l.02 2.58c-1.06-.21-2.13-.36-3.2-.44v-4.13h1.23c-.2 0-.4-.01-.6-.01h-.63c-.57 0-1.16.02-1.76.03v-.03.03l-3.37.08 3.37-.07v4.02l-1.1.01c-.22.01-.43.01-.65.03V17.7v3.98l-1.02.06c-.19.01-.41.03-.64.06v-4.1 4.1c-.29.03-.6.09-.91.16.03-.75.01-1.78.02-2.49 0-.77.02-1.92-.02-2.68-.04.76-.02 1.9-.02 2.68l.02 2.5c-.2.05-.39.11-.57.19.03-.78.01-1.85.02-2.57 0-.79.02-1.98-.02-2.77.15-.01.3-.03.45-.05.44-.05.88-.15 1.32-.23.44-.07.88-.11 1.33-.13 2.27-.09 4.54.16 6.8.42-.09.79-.07 1.95-.07 2.75zm.59.15l.01 2.55-.57-.12c.03-.78.01-1.86.02-2.58 0-.79.02-1.96-.02-2.75.2.02.39.05.59.07-.05.8-.03 2.01-.03 2.83zm22.96-.6l.02 2.54c-.19-.01-.38-.01-.57-.01.03-.76.01-1.81.02-2.54 0-.78.02-1.94-.02-2.7-.02.35-.02.77-.03 1.21a1137.13 1137.13 0 0 0-8.26 0 13.36 13.36 0 0 0-.02-.67c-.04.68-.02 1.7-.02 2.4 0 .69-.02 1.72.02 2.4.04-.68.02-1.7.02-2.4v-1.72h8.26v1.49l.02 2.54c-.59.01-1.19.05-1.78.12V17.7v4.09c-.6.07-1.19.17-1.78.29v-4.37 4.37c-.47.1-.94.21-1.4.33l-.33.09v-4.79 4.79a36.28 36.28 0 0 0-1.78.52v-5.31 5.31c-1.22.38-2.42.8-3.65 1.12-.42.1-.86.2-1.28.25-1.1.16-2.19.06-3.27-.14.02-.41 0-.92.01-1.28v-.34a49.32 49.32 0 0 0 4.55 0 49.32 49.32 0 0 0-4.55 0c0-.4.01-.87-.02-1.21-.04.44-.02 1.1-.02 1.55 0 .36-.01.86.01 1.27l-.55-.12c.02-.41 0-.9.01-1.25 0-.45.02-1.11-.02-1.55-.03.37-.03.89-.02 1.31a32.8 32.8 0 0 0-3.71 0 32.8 32.8 0 0 0 3.71 0v.24c0 .35-.01.84.01 1.25a40.78 40.78 0 0 1-1.9-.5c-.59-.17-1.33-.4-1.91-.59a27.18 27.18 0 0 0-2.64-.73c.02-.78.01-1.84.01-2.56 0-.81.02-2.03-.02-2.84l.61.07c1.78.17 3.57.21 5.36.11l.51-.03c-.04.5-.02 1.23-.02 1.72v.18c-.29-.06-.59-.06-.88 0-.04-.01-.09-.02-.13-.04.09.03.18.05.28.08-.05-.01-.09-.03-.13-.04.29.06.59.06.87 0v.31c-.01 0-.02-.01-.03-.01.01 0 .02.01.03.01 0 .41 0 .87.02 1.22-.37-.09-.74-.19-1.12-.3-1.01-.3-1.99-.37-2.72-.37-.74 0-1.22.08-1.22.08l.02.1h.02c.1-.01.55-.07 1.19-.07.72 0 1.69.07 2.69.37 1.69.5 3.37.77 4.65.77a7.92 7.92 0 0 0 .71-.03c.49-.05.9-.09 1.2-.09.17 0 .31.01.39.04.04.01.07.03.09.05s.02.04.02.07a.26.26 0 0 1-.03.11c-.02.05-.06.1-.11.17-.08.11-.12.2-.12.29 0 .06.02.11.05.16.06.08.15.14.26.19.17.08.39.13.61.19s.44.12.62.2a6.68 6.68 0 0 0 .57.23c.12.04.19.04.22.04h.03l-.02-.06-.01-.03v-.01c-.03 0-.09 0-.2-.04-.12-.04-.3-.1-.56-.22-.29-.13-.66-.21-.97-.3-.15-.05-.29-.1-.38-.16a.3.3 0 0 1-.1-.09c-.02-.03-.03-.06-.03-.1 0-.06.03-.14.1-.23.05-.07.09-.13.12-.18.03-.06.04-.11.04-.16a.19.19 0 0 0-.05-.13c-.05-.05-.12-.08-.21-.1a1.65 1.65 0 0 0-.34-.03c-.31 0-.72.04-1.21.09a7.69 7.69 0 0 1-.7.03c-.83 0-1.84-.12-2.91-.34.03-.48.02-1.16.02-1.67a49.32 49.32 0 0 0 4.55 0 49.32 49.32 0 0 0-4.55 0v-.15c0-.52.02-1.29-.02-1.82.3-.03.6-.07.9-.12.66-.11 1.3-.33 1.94-.53 1.9-.6 3.83-1.27 5.83-1.39 2.11-.12 4.24.13 6.3.62.22.05.43.1.63.21.31.17.23.44.29.69-.1.78-.08 1.91-.09 2.67z"/><path d="M55.17 16.96l-.02 2.48.02 2.48.02-2.48-.02-2.48zm0 14.98c-.04.4-.02 1.01-.02 1.42V34c-.96-.07-1.93-.03-2.9 0h-2.9l2.9.01 2.9-.01.03.78c.04-.4.02-1.01.02-1.42l-.03-1.42zm-.02 4.64v.16c.01.05.01.11.02.16.01-.05.02-.11.02-.16v-.16-.32-.32-.16c-.01-.05-.01-.11-.02-.16-.01.05-.02.11-.02.16v.16.32.32zm.58.27v.2l.02.2.02-.2v-.2-.41-.41-.2l-.02-.2-.02.2v.2.41.41zm-6.99-10.07l.02.24.02-.24v-.24-.19l6.18.08h0c-2.06.11-4.12.01-6.18-.08v-.29-.48-.04h4.55a49.32 49.32 0 0 0-4.55 0v-.2l-.02-.24-.02.24v.24.48.72zm-7.05 20.34c-.04.46-.02 1.14-.02 1.61l.02 1.61c.04-.46.02-1.14.02-1.61l-.02-1.61zm-.61 5.32l.02 1.52c.04-.43.02-1.08.02-1.52l-.02-1.52c-.04.43-.02 1.08-.02 1.52zm.59 0l.02 1.52c.04-.43.02-1.08.02-1.52l-.02-1.52c-.04.43-.02 1.08-.02 1.52zm-9.87-5.88c-.04.56-.02 1.39-.02 1.95l.02 1.95c.04-.56.02-1.39.02-1.95l-.02-1.95zm-.59-8.93l.02-2.84-.02-2.84-.02 2.84.02 2.84zm33.45 9.42c-.04.52-.02 1.3-.02 1.82l.02 1.82c.04-.52.02-1.3.02-1.82l-.02-1.82z"/><defs ><path id="B" d="M28.59 85.05l-1.36-3.3h-.05l-1.29 3.05c-.22.53-.4.73-.63.84v.05h.92v-.05c-.16-.1-.26-.29-.04-.86l.13-.32h1.65l.21.52c.17.41.1.58-.04.65v.05h.93v-.05c-.16-.1-.27-.2-.43-.58zm-2.27-.74l.76-1.92.79 1.92h-1.55z"/><path id="C" d="M37.18 52.22l.03-.06c.01-.02.03-.04.02-.06.01.02-.01.04-.02.06l-.03.06-.17.28c-.01.01-.02.03-.03.04a2.67 2.67 0 0 0-.11-.93c.09.31.12.64.1.96.01-.01.02-.03.03-.04.02-.01.04-.06.05-.08l.07-.11.06-.12z"/><path id="D" d="M40.72 17.58c-.18.02-.37.02-.55.02h-.14.14l.55-.02z"/></defs></svg>