<svg xmlns="http://www.w3.org/2000/svg" viewBox="0 0 18 18" xmlns:v="https://vecta.io/nano"><path d="M9 0C4.03 0 0 4.03 0 9s4.03 9 9 9 9-4.03 9-9-4.03-9-9-9zm4.77 12.91c-.08.18-.23.31-.38.43-.54.4-1.13.66-1.81.67-.36 0-.71-.08-1.05-.2-.42-.15-.84-.31-1.26-.48-.56-.23-1.06-.56-1.53-.93a12.37 12.37 0 0 1-2.4-2.5c-.43-.6-.73-1.25-.96-1.93-.11-.34-.24-.67-.32-1.02-.13-.59-.04-1.17.23-1.71a6.2 6.2 0 0 1 .44-.69 1.01 1.01 0 0 1 .56-.39c.24-.06.49-.11.73-.15.19-.04.33.05.43.22l.5.9a25.63 25.63 0 0 0 .53.88c.02.03.03.05.05.08.17.27.16.42-.06.65-.22.2-.45.38-.67.57-.11.1-.21.2-.32.3a.35.35 0 0 0-.07.45c.13.24.26.47.4.7.43.71.95 1.35 1.61 1.86.3.23.62.44.94.65.19.13.4.23.61.34a.32.32 0 0 0 .41-.07c.19-.2.36-.41.54-.61.14-.15.27-.3.42-.44.17-.15.31-.16.5-.05l1.53.89c.15.09.31.17.46.26.13.08.19.19.17.34a3.26 3.26 0 0 1-.23.98z" fill="#d2ab67"/></svg>