<?xml version="1.0" encoding="UTF-8"?>
<svg xmlns="http://www.w3.org/2000/svg" xmlns:xlink="http://www.w3.org/1999/xlink" width="150px" height="150px" viewBox="0 0 35 35" version="1.1">
<g id="surface1">
<path style="fill:none;stroke-width:2;stroke-linecap:butt;stroke-linejoin:miter;stroke:rgb(73.333333%,54.901961%,29.019608%);stroke-opacity:1;stroke-miterlimit:10;" d="M 52.023438 5.296875 C 51.726562 25.453125 52.632812 47.15625 52.34375 67.3125 C 57.5625 67.3125 62.78125 67.3125 68 67.3125 C 68 50.796875 68 34.28125 68 17.773438 C 64.28125 12.726562 58.21875 7.476562 52.023438 5.296875 Z M 52.023438 5.296875 " transform="matrix(0.5,0,0,0.5,0,0)"/>
<path style="fill:none;stroke-width:2;stroke-linecap:butt;stroke-linejoin:miter;stroke:rgb(73.333333%,54.901961%,29.019608%);stroke-opacity:1;stroke-miterlimit:10;" d="M 2.242188 56.90625 L 2.242188 67.3125 L 48.6875 67.3125 L 48.6875 55.023438 Z M 2.242188 56.90625 " transform="matrix(0.5,0,0,0.5,0,0)"/>
<path style="fill:none;stroke-width:2;stroke-linecap:butt;stroke-linejoin:miter;stroke:rgb(73.333333%,54.901961%,29.019608%);stroke-opacity:1;stroke-miterlimit:10;" d="M 2.242188 16.398438 C 2.351562 20.101562 1.898438 23.921875 2.023438 27.632812 C 13.226562 19 27.710938 13.421875 48.6875 16.398438 C 48.6875 12.398438 48.6875 8.429688 48.6875 4.4375 C 35.046875 0.632812 20.09375 2.320312 2.242188 16.398438 Z M 2.242188 16.398438 " transform="matrix(0.5,0,0,0.5,0,0)"/>
<path style="fill:none;stroke-width:2;stroke-linecap:butt;stroke-linejoin:miter;stroke:rgb(73.333333%,54.901961%,29.019608%);stroke-opacity:1;stroke-miterlimit:10;" d="M 2.242188 30.257812 C 2.242188 33.796875 2.242188 37.328125 2.242188 40.859375 C 15.132812 33.351562 30.601562 30.9375 48.6875 33.671875 C 48.6875 29.507812 48.6875 25.359375 48.6875 21.203125 C 33.890625 18.210938 18.429688 20.960938 2.242188 30.257812 Z M 2.242188 30.257812 " transform="matrix(0.5,0,0,0.5,0,0)"/>
<path style="fill:none;stroke-width:2;stroke-linecap:butt;stroke-linejoin:miter;stroke:rgb(73.333333%,54.901961%,29.019608%);stroke-opacity:1;stroke-miterlimit:10;" d="M 2.242188 43.15625 C 2.242188 46.867188 2.242188 50.570312 2.242188 54.257812 C 17.320312 50.351562 32.710938 49.703125 48.6875 50.351562 C 48.6875 46.71875 48.6875 41.492188 48.6875 37.859375 C 31.921875 36.320312 16.53125 38.328125 2.242188 43.15625 Z M 2.242188 43.15625 " transform="matrix(0.5,0,0,0.5,0,0)"/>
</g>
</svg>
