<svg xmlns="http://www.w3.org/2000/svg" xmlns:xlink="http://www.w3.org/1999/xlink" viewBox="0 0 100 100" xmlns:v="https://vecta.io/nano"><style><![CDATA[.B{clip-path:url(#D)}]]></style><defs><path id="A" d="M0 27.32h100v45.37H0z"/></defs><clipPath id="B"><use xlink:href="#A"/></clipPath><g clip-path="url(#B)" fill="#6d6e71"><path d="M33.89 71.72v.03h-.49v-.03c.06-.03.1-.1.1-.26V70.4c0-.16-.04-.23-.1-.26v-.03h.48v.03c-.06.03-.1.1-.1.26v1.06c.01.16.04.23.11.26zm.38-1.24c.12-.16.11-.29.04-.35v-.03h.48v.03c-.14.06-.29.19-.4.33l-.28.33.28.38c.2.27.36.43.48.51v.02c-.04.04-.11.07-.2.07-.17 0-.29-.13-.46-.36l-.32-.43v-.02l.38-.48zm2.16-.12h-.48c-.2 0-.35.06-.42.14h-.03l.06-.35h1.05v.05c-.29.41-.52 1.08-.58 1.54h-.34c.12-.5.47-1.06.74-1.38zm1.43-.23c.39 0 .63.3.63.82s-.25.83-.63.83c-.4 0-.63-.31-.63-.81 0-.56.26-.84.63-.84zm0 .07c-.21 0-.32.28-.32.76 0 .44.12.75.32.75.22 0 .32-.3.32-.75 0-.48-.12-.76-.32-.76zm3.92.4c0 .34-.26.52-.63.52-.04 0-.08 0-.11-.01v-.03c.29-.04.42-.18.42-.48 0-.32-.18-.43-.44-.43h-.09v1.28c0 .16.04.23.1.26v.03h-.48v-.03c.07-.03.1-.1.1-.26V70.4c0-.16-.04-.23-.1-.26v-.03h.38.18c.43 0 .67.19.67.49zm2.21 1.12v.03h-.57v-.03c.08-.03.11-.14.03-.34l-.05-.12h-.64l-.04.09c-.08.2-.04.31.06.37v.03h-.46v-.03c.1-.05.2-.16.29-.36l.55-1.27h.04l.54 1.3c.09.19.15.27.25.33zm-.62-.54l-.3-.72-.28.72h.58zm2.55.09v.48h-.88-.29v-.03c.06-.03.1-.11.1-.26V70.4c0-.16-.03-.23-.1-.26v-.03h.48v.03c-.06.03-.1.1-.1.26v1.08c0 .14.06.2.21.2h.1c.28 0 .39-.14.46-.41h.02zm.77-1.16h.41l.6 1.29.5-1.29h.38v.03c-.07.03-.1.1-.1.26v1.06c0 .16.04.23.1.26v.03h-.48v-.03c.07-.03.1-.1.1-.26v-1.11l-.58 1.42h-.06l-.66-1.38.02.92c0 .24.08.36.17.41v.03h-.42v-.03c.08-.04.16-.17.16-.4l.01-.78c0-.25-.05-.34-.16-.4v-.03zm3.97 1.95l-.01-.02c.15-.13.22-.3.22-.59V70.4c0-.16-.03-.23-.1-.26v-.03h.49v.03c-.06.03-.1.1-.1.26v.98c-.01.36-.06.57-.5.68zm1.58-1.66c0-.16-.04-.23-.1-.26v-.03h.49v.03c-.06.03-.1.1-.1.26v.79c0 .33.16.48.43.48.25 0 .4-.14.4-.47l-.01-.68c0-.24-.1-.33-.19-.37v-.03h.47v.03c-.09.04-.18.14-.18.38l-.02.69c-.01.37-.19.57-.55.57s-.64-.14-.64-.56v-.83zm2.17-.29h.41l.6 1.29.5-1.29h.38v.03c-.07.03-.1.1-.1.26v1.06c0 .16.04.23.1.26v.03h-.48v-.03c.07-.03.1-.1.1-.26v-1.11l-.58 1.42h-.06l-.66-1.38.02.92c0 .24.08.36.17.41v.03h-.41v-.03c.08-.04.16-.17.16-.4l.01-.78c0-.25-.05-.34-.16-.4v-.03zm3.99 1.24v.4h-.88-.29v-.03c.06-.03.1-.1.1-.26V70.4c0-.16-.04-.23-.1-.26v-.03h.38.74v.37h-.03c-.08-.2-.21-.3-.46-.3h-.25v.71l.21-.01c.15-.01.22-.09.27-.23h.03v.52h-.03c-.05-.13-.12-.21-.27-.22l-.21-.01v.55c0 .14.06.2.2.2h.11a.41.41 0 0 0 .45-.33h.03zm1.3.37v.03h-.48v-.03c.06-.03.1-.1.1-.26V70.4c0-.16-.04-.23-.1-.26v-.03h.48v.03c-.06.03-.1.1-.1.26v1.06c0 .16.04.23.1.26zm1.37-.71v-.02c.3-.03.44-.2.44-.43s-.13-.37-.41-.37H61v1.28c0 .16.04.23.1.26v.03h-.48v-.03c.07-.03.1-.1.1-.26V70.4c0-.16-.04-.23-.1-.26v-.03h.56c.44 0 .65.17.65.43 0 .27-.22.4-.46.43l.19.23c.24.29.36.42.48.48v.03c-.05.04-.09.06-.18.06-.17 0-.27-.09-.47-.35-.11-.12-.21-.26-.32-.41zm3.2.71v.03h-.57v-.03c.08-.03.11-.14.03-.34l-.05-.12h-.64l-.04.09c-.08.2-.04.31.06.37v.03h-.46v-.03c.1-.05.2-.16.29-.36l.55-1.27h.04l.54 1.3c.09.19.16.27.25.33zm-.62-.54l-.3-.72-.28.72h.58zm2.81-.78v1.06c0 .16.04.23.1.26v.03h-.48v-.03c.06-.03.1-.1.1-.26v-.5h-.77v.5c0 .16.04.23.1.26v.03h-.48v-.03c.06-.03.1-.1.1-.26V70.4c0-.16-.04-.23-.1-.26v-.03h.48v.03c-.06.03-.1.1-.1.26v.5h.77v-.5c0-.16-.04-.23-.1-.26v-.03h.48v.03c-.06.03-.1.09-.1.26z"/></g><path d="M26.88 66.98c0-.96-1.82-.88-1.82-2.12 0-.59.52-1.01 1.19-1.01.46 0 .79.11 1.02.26v.85h-.07c-.22-.68-.62-.94-.99-.94-.38 0-.6.24-.6.55 0 .95 1.83.91 1.83 2.11 0 .61-.46 1.07-1.24 1.07-.52 0-.88-.16-1.11-.29v-.87h.07c.25.67.65 1 1.06 1 .44-.01.66-.29.66-.61zm6.44-.23v.92H31.3h-.68v-.06c.15-.07.23-.22.23-.6v-2.45c0-.38-.08-.53-.23-.6v-.06h.88 1.71v.86h-.07c-.17-.45-.48-.7-1.06-.7h-.58v1.64l.49-.03c.35-.02.52-.22.62-.53h.06v1.21h-.06c-.11-.31-.27-.49-.63-.51l-.48-.03v1.26c0 .32.13.45.45.45h.26c.6 0 .88-.25 1.04-.77h.07zm6.56.86v.06h-1.31v-.06c.19-.07.26-.32.07-.79l-.12-.29h-1.48l-.08.22c-.18.46-.08.72.13.86v.06h-1.06v-.06c.24-.11.47-.37.67-.84l1.28-2.93h.08l1.25 3c.2.44.35.63.57.77zm-1.42-1.23l-.69-1.66-.66 1.66h1.35zm5.42-.41v-.06c.7-.08 1.02-.46 1.02-.99s-.31-.86-.95-.86h-.22v2.95c0 .38.09.53.23.6v.06h-1.11v-.06c.15-.08.23-.23.23-.6v-2.45c0-.38-.08-.53-.23-.6v-.06h1.29c1.01 0 1.5.39 1.5 1 0 .63-.51.92-1.05 1l.41.53c.55.68.82.96 1.1 1.11l-.01.06c-.11.08-.22.13-.42.13-.38 0-.62-.2-1.09-.81-.24-.28-.46-.6-.7-.95zm7.85.78v.92H49.7h-.68v-.06c.15-.07.23-.22.23-.6v-2.45c0-.38-.08-.53-.23-.6v-.06h.88 1.71v.86h-.07c-.17-.45-.48-.7-1.06-.7h-.58v1.64l.49-.03c.35-.02.52-.22.62-.53h.06v1.21h-.06c-.11-.31-.27-.49-.63-.51l-.48-.03v1.26c0 .32.13.45.45.45h.26c.6 0 .88-.25 1.04-.77h.08zm6 1.02l-2.45-2.94.04 1.87c.02.55.18.82.39.92v.06h-.97v-.06c.2-.1.36-.38.38-.92l.03-1.69c.01-.57-.15-.88-.39-1.05v-.06h.64l2.31 2.82-.03-1.88c-.01-.52-.17-.78-.37-.88v-.06h.95v.06c-.2.1-.35.38-.37.89l-.06 2.91h-.1zm4.86-.16v.06h-1.11v-.06c.15-.07.23-.23.23-.6v-2.45c0-.38-.08-.53-.23-.6v-.06h1.11v.06c-.14.07-.23.22-.23.6v2.45c0 .37.09.53.23.6zm6.25-3.71v1.05h-.07c-.11-.46-.35-.9-.94-.9h-.27v2.96c0 .37.08.52.23.6v.06h-1.11v-.06c.15-.08.23-.23.23-.6v-2.96h-.25c-.59 0-.82.44-.94.9h-.07V63.9h3.19zm6.24 0v.06c-.25.1-.51.37-.78.86l-.63 1.17v1.02c0 .37.09.52.24.6v.06h-1.12v-.06c.16-.08.24-.23.24-.6v-.87l-.83-1.47c-.23-.4-.39-.62-.6-.71v-.06h1.35v.06c-.25.16-.18.49-.03.76l.66 1.14.52-1.05c.19-.39.16-.72-.07-.85v-.06h1.05zM0 50.16h100v.06H0z"/><defs><path id="C" d="M0 27.32h100v45.37H0z"/></defs><clipPath id="D"><use xlink:href="#C"/></clipPath><path d="M65.48 42.96c.15 2.12.15 4.26 0 6.38-.15-2.12-.15-4.25 0-6.38m0-10.25a88.86 88.86 0 0 1 0 8.94 88.86 88.86 0 0 1 0-8.94" class="B"/><path d="M79.44 41.25l-.12-5.52.12.12-3.49.02c-3.49 0-6.98-.02-10.47-.14 3.49-.11 6.98-.14 10.47-.14l3.61.02v.11l-.12 5.53M45.6 35.07l-6.37.12.12-.12.02 3.57-.09 8.92-.05 1.78-.05-1.78c-.09-4.16-.11-8.33-.07-12.49v-.12h.12l6.37.12M8.84 45.48l-.07-1.04 3.63-.08 1.32.02v.12l-.12 2.86-.12-2.86.12.12a75.56 75.56 0 0 1-4.76-.06l.06-.06-.06.98M7.7 50.19l-.13-4.49v-.13h.13 2.22.13v.13l-.13 4.49-.13-4.49.13.13H7.7l.13-.13-.13 4.49" class="B"/><path d="M11.22 47.36a27.68 27.68 0 0 1 5.61 0 27.68 27.68 0 0 1-5.61 0m25.73-5.72l.02 1.32v.02h-.02l-20.44.12v-.14-1.32-.13h.13l20.31.13m0 0l-20.31.13.13-.13v1.32l-.14-.14 20.31.12-.02.02.03-1.32zm0-5.91l-.02-.66.02.02-5.08.09H21.72l-5.08-.09.02-.04.59.68-.63-.64-.04-.04c5.05-.12 10.24-.14 15.29-.08l5.1.09v.02l-.02.65zm28.53-7.67l.04 4.65v.04h-.04l-3.72.03-11.15.05-14.86.02h-.14v-.14l.01-4.65v-.13h.13l29.73.13m0 0l-29.73.13.13-.13.01 4.65-.14-.14 26.01.07 3.72.03-.04.04.04-4.65z" class="B"/><path d="M65.85 27.91l1.12-.48.01.04-24.16.09-8.05-.09.01-.04.98.62-1-.59-.07-.04h.08 32.22.12l-.11.04-1.15.45zm-12.04 4.8l.11 13.11.02 4.37v.12h-.12l-8.43.02-8.43-.02h-.12v-.12l.05-10.93.07-6.56.04 4.38.07 13.11-.12-.12 8.43-.02 8.43.02-.12.12.02-4.37.1-13.11m1.18 8.93l25.32-.14h.14v.14c.01.05 0 1.46 0 1.45l-19.13-.07-6.33-.07 6.33-.07 18.99-.07-.14.14v-1.32l.14.14c-8.2 0-17.14-.02-25.32-.13m-17.71 7.7a223.23 223.23 0 0 1 15.95 0 223.23 223.23 0 0 1-15.95 0m-20.02 0a39.33 39.33 0 0 1 6.69 0 39.33 39.33 0 0 1-6.69 0m37.73 0a524.46 524.46 0 0 1 24.45 0 524.46 524.46 0 0 1-24.45 0m10.49-12.87a171.02 171.02 0 0 1 13.96 0c-4.65.19-9.31.18-13.96 0m13.96-.74l.59-.58-.01.02-.01-.31.04.04c-3.64.11-7.29.12-10.93.06l-3.64-.1c2.43-.1 4.86-.13 7.29-.14l7.33.09c0 .04-.01.33-.01.37l-.01.01-.64.54z" class="B"/><path d="M79.44 34.6l-.07-1.9.07.07-4.97.07c-2.76.01-5.52-.02-8.29-.14l9.94-.13 3.38.06-.06 1.97m-50.39 1.13a30.71 30.71 0 0 1 0 5.91c-.19-1.96-.18-3.94 0-5.91" class="B"/><path d="M35.75 32.71c-2.23.15-4.46.16-6.7.11l.11-.11-.11 2.37-.11-2.47h.11l6.7.1m43.69 10.25l.08 7.3-12.3.05H54.87l.07-13.24.05-4.37.05 4.37.07 13.11-.12-.12 6.11-.01 18.34.06-.07.07.07-7.22" class="B"/><path d="M79.44 46.64c3.45-.15 6.91-.16 10.37-.11h.11l-.11 3.65a104.37 104.37 0 0 1-.11-3.55l.11.11-2.59.03a144.03 144.03 0 0 1-7.78-.13M17.26 35.07l-.12-1.71c0-.23-.03-.45.03-.68.01-.02.04-.06.07-.06.04-.01.02 0 .05 0h.16c3.71-.07 7.43-.08 11.14.09-3.71.17-7.43.16-11.14.09-.05 0-.14 0-.19-.01.03 0 .05-.02.05-.03-.09.76-.04 1.54-.05 2.31m0 7.89l.06 7.23-.06-.06 19.7-.07-.13.13-.01-7.23.01-7.23.13.13-4.92-.01-14.77-.07.05-.05-.05 5.91-.05-5.91v-.05h.05l4.92-.03 14.9-.05v14.59.13h-.13c-5.5.01-14.14-.05-19.7-.07h-.06v-.06l.06-7.23z" class="B"/><path d="M53.81 35.74l-7.94.09v-.76-.1h.1l5.88.05c0 .01 1.98.02 1.96.05 0-.01-7.88.03-7.83-.01v.66c-.06-.01 7.86 0 7.83.02m0 7.23l-7.41.09h-.1v-.1-1.41h.1l3.71.02 3.71.08c0-.01-7.46.02-7.4-.01v1.32a455.72 455.72 0 0 1 7.39.01m-39.79 4.59c.06.76.06 1.54.02 2.3l-.02.33v-2.63m2.16 0c.06.76.06 1.54.02 2.3l-.02.33v-2.63" class="B"/><path d="M54.17 32.71l.02 15.3-.02 2.19a5098.34 5098.34 0 0 1 0-17.49m.26 0l.02 15.3-.02 2.19a5098.34 5098.34 0 0 1 0-17.49m.56 3.02l9.37-.04h.04v.04l-.04 5.91a582.14 582.14 0 0 1 0-5.91h-9.37m-19.02 5.91l-.04-5.17.04.04-2.84.01-2.84-.01.04-.04-.01 2.59-.03 2.59v-5.18h5.68c.01-.01.01 5.18 0 5.17m28.39 7.7l-.03-5.53.04.04h-7.93l.04-.04-.01 2.77-.03 2.77v-5.54h7.93c0-.01 0 5.54-.01 5.53m15.69-14.16l-12.75.02-1.82-.02c-.01-.01 14.58-.01 14.57 0" class="B"/><path d="M65.83 33.01c3.62-.06 7.88-.05 11.5-.02l1.64.02c.01.01-13.15.01-13.14 0m-.35 1.29l12.22-.02 1.75.02c0 .01-13.98.01-13.97 0m1.5-.98l9.21-.02 1.32.02a1848.02 1848.02 0 0 1-10.53 0m-1.5 3.72l3.93-.02.56.02c.01.01-4.5.01-4.49 0m0 1.08l3.93-.02.56.02c.01.01-4.5.01-4.49 0m0 3.12l3.93-.02.56.02c.01.01-4.5.01-4.49 0m0-1.24l3.93-.02.56.02c.01.01-4.5.01-4.49 0m.7-1.31l3.32-.02.47.02c.01.01-3.8.01-3.79 0m-.7.27a18.43 18.43 0 0 1 2.35-.02l.34.02h-2.69" class="B"/><path d="M65.48 39.25l3.93-.02.56.02c.01.01-4.5.01-4.49 0m.42.2l3.57-.02.51.02a138.73 138.73 0 0 1-4.08 0m1.16-1.97c.84-.06 1.71-.06 2.55-.02l.36.02a141.14 141.14 0 0 1-2.91 0" class="B"/><path d="M65.48 37.48c.27-.06.58-.07.84.01-.28-.01-.58.01-.84-.01m0 2.93l3.93-.02.56.02c.01.01-4.5.01-4.49 0m1.58.44c.84-.06 1.71-.06 2.55-.02l.36.02a141.14 141.14 0 0 1-2.91 0" class="B"/><path d="M65.48 40.85c.27-.06.58-.07.84.01-.28-.01-.58.01-.84-.01m0-7.11c.87-.06 1.76-.06 2.63-.02l.38.02c.01.01-3.02.01-3.01 0m3.75 0l6.53-.02.93.02a927.53 927.53 0 0 1-7.46 0m9.07 0c.37-.06.78-.07 1.14.01-.38-.01-.77.01-1.14-.01m-49.25 2.88l-3.66.02-.52-.02a291.21 291.21 0 0 1 4.18 0m-5.07 0c-.73.06-1.49.06-2.22 0h2.22m-3.16 0a32.47 32.47 0 0 1-3.12.02l-.45-.02a212.42 212.42 0 0 1 3.57 0m8.23 1.37l-3.66.02-.52-.02a291.21 291.21 0 0 1 4.18 0m-5.07 0c-.73.06-1.49.06-2.22 0h2.22m-3.16 0a32.47 32.47 0 0 1-3.12.02l-.45-.02a212.42 212.42 0 0 1 3.57 0m8.23 1.93l-3.66.02-.52-.02a291.21 291.21 0 0 1 4.18 0m-5.07 0c-.73.06-1.49.06-2.22 0h2.22m-3.16 0a32.47 32.47 0 0 1-3.12.02l-.45-.02a212.42 212.42 0 0 1 3.57 0" class="B"/><path d="M29.05 37.02c-3.25.06-7.07.05-10.32.02l-1.47-.02a2316.74 2316.74 0 0 1 11.79 0m0 1.95l-3.66.02-.52-.02a291.21 291.21 0 0 1 4.18 0m-5.07 0c-.73.06-1.49.06-2.22 0h2.22m-3.16 0a32.47 32.47 0 0 1-3.12.02l-.45-.02a212.42 212.42 0 0 1 3.57 0m8.23.4c-3.25.06-7.07.05-10.32.02l-1.47-.02a2316.74 2316.74 0 0 1 11.79 0m-8.75-1.95c-.88.06-1.78.06-2.66.02l-.38-.02a154.03 154.03 0 0 1 3.04 0m5.54 0l-3.8.02-.54-.02a313.93 313.93 0 0 1 4.34 0m3.21 0c-.81.06-1.63.06-2.44.02l-.35-.02a129.74 129.74 0 0 1 2.79 0m0 2.96l-3.66.02-.52-.02a291.21 291.21 0 0 1 4.18 0m-5.07 0c-.73.06-1.49.06-2.22 0h2.22m-3.16 0a32.47 32.47 0 0 1-3.12.02l-.45-.02a212.42 212.42 0 0 1 3.57 0m8.23.4c-3.25.06-7.07.05-10.32.02l-1.47-.02a2316.74 2316.74 0 0 1 11.79 0m-8.75.41c-.88.06-1.78.06-2.66.02l-.38-.02a154.03 154.03 0 0 1 3.04 0m5.54 0l-3.8.02-.54-.02a313.93 313.93 0 0 1 4.34 0m3.21 0c-.81.06-1.63.06-2.44.02l-.35-.02a129.74 129.74 0 0 1 2.79 0m0-8.12l-3.66.02-.52-.02a291.21 291.21 0 0 1 4.18 0m-5.07 0c-.73.06-1.49.06-2.22 0h2.22m-3.16 0a32.47 32.47 0 0 1-3.12.02l-.45-.02a212.42 212.42 0 0 1 3.57 0m8.23.46l-3.66.02-.52-.02a291.21 291.21 0 0 1 4.18 0m-5.07 0c-.73.06-1.49.06-2.22 0h2.22m-3.16 0a32.47 32.47 0 0 1-3.12.02l-.45-.02a212.42 212.42 0 0 1 3.57 0m8.23.4c-3.25.06-7.07.05-10.32.02l-1.47-.02a2316.74 2316.74 0 0 1 11.79 0m-8.75.41c-.88.06-1.78.06-2.66.02l-.38-.02a154.03 154.03 0 0 1 3.04 0" class="B"/><path d="M25.84 34.34l-3.8.02-.54-.02a313.93 313.93 0 0 1 4.34 0m3.21 0c-.81.06-1.63.06-2.44.02l-.35-.02a129.74 129.74 0 0 1 2.79 0m-8.75 4.35c-.88.06-1.78.06-2.66.02l-.38-.02a154.03 154.03 0 0 1 3.04 0m5.54 0l-3.8.02-.54-.02a313.93 313.93 0 0 1 4.34 0m3.21 0c-.81.06-1.63.06-2.44.02l-.35-.02a129.74 129.74 0 0 1 2.79 0m-5.11 10.92v-5.72h5.74.01v.01 5.71h-5.75zm.01 0l5.74-.03-.03.03-.02-5.71.05.05-5.74-.02.03-.03-.03 5.71m6.5 0v-5.72h5.74.01v.01 5.71h-5.75zm0 0l5.74-.03-.03.03-.02-5.71.05.05-5.74-.02.03-.03-.03 5.71" class="B"/><path d="M23.94 44.63l5.02-.02.72.02a549.13 549.13 0 0 1-5.74 0m0 .89l5.02-.02.72.02a549.13 549.13 0 0 1-5.74 0m0 1.23l5.02-.02.72.02a549.13 549.13 0 0 1-5.74 0m0 1.5l5.02-.02.72.02a549.13 549.13 0 0 1-5.74 0m6.51-3.62l5.02-.02.72.02a549.13 549.13 0 0 1-5.74 0m0 .89l5.02-.02.72.02a549.13 549.13 0 0 1-5.74 0m0 1.23l5.02-.02.72.02a549.13 549.13 0 0 1-5.74 0m0 1.5l5.02-.02.72.02a549.13 549.13 0 0 1-5.74 0m25.98-3.62l3.25-.02.46.02c.02.01-3.73.01-3.71 0m0 .89l3.25-.02.46.02c.02.01-3.73.01-3.71 0m0 1.23l3.25-.02.46.02c.02.01-3.73.01-3.71 0m0 1.5l3.25-.02.46.02c.02.01-3.73.01-3.71 0m4.21-3.62l3.25-.02.46.02c.02.01-3.72.01-3.71 0m0 .89l3.25-.02.46.02c.02.01-3.72.01-3.71 0m0 1.23l3.25-.02.46.02c.02.01-3.72.01-3.71 0m0 1.5l3.25-.02.46.02c.02.01-3.72.01-3.71 0" class="B"/><path d="M60.39 43.81l.02 4.84-.02.69c-.01.02-.01-5.54 0-5.53m-3.96-8.08l.02 5.17-.02.74a582.14 582.14 0 0 1 0-5.91m-16.8-.66l.02 12.49-.02 1.78c-.01.02-.01-14.28 0-14.27" class="B"/><path d="M39.99 35.07l.02 12.49-.02 1.78c-.01.02-.01-14.28 0-14.27m.36 0l.02 12.49-.02 1.78a1696.95 1696.95 0 0 1 0-14.27m.35 0l.02 12.49-.02 1.78c-.01.02-.01-14.28 0-14.27m.36 0l.02 12.49-.02 1.78c-.01.02-.01-14.28 0-14.27m.36 0l.02 12.49-.02 1.78c-.01.02-.01-14.28 0-14.27m.35 0l.02 12.49-.02 1.78c-.01.02-.01-14.28 0-14.27m.36 0l.02 12.49-.02 1.78c-.01.02-.01-14.28 0-14.27m.36 0l.02 12.49-.02 1.78c-.01.02-.01-14.28 0-14.27m.35 0l.02 12.49-.02 1.78c-.01.02-.01-14.28 0-14.27m.36 0l.02 12.49-.02 1.78c-.01.02-.01-14.28 0-14.27m.36 0l.02 12.49-.02 1.78c-.01.02-.01-14.28 0-14.27m.35 0l.02 12.49-.02 1.78c-.01.02-.01-14.28 0-14.27m.36 0l.02 12.49-.02 1.78c-.01.02-.01-14.28 0-14.27m.36 0l.02 12.49-.02 1.78c-.01.02-.01-14.28 0-14.27m.36 0l.02 12.49-.02 1.78c-.01.02-.01-14.28 0-14.27m.35 0l.02 12.49-.02 1.78c-.01.02-.01-14.28 0-14.27m.36 0l.02 12.49-.02 1.78c-.01.02-.01-14.28 0-14.27m11.22.66l.02 5.17-.02.74a582.14 582.14 0 0 1 0-5.91m.5 0l.02 5.17-.02.74a582.14 582.14 0 0 1 0-5.91m.49 0l.02 5.17-.02.74a582.14 582.14 0 0 1 0-5.91m.5 0l.02 5.17-.02.74a582.14 582.14 0 0 1 0-5.91m.49 0l.02 5.17-.02.74a582.14 582.14 0 0 1 0-5.91m.5 0l.02 5.17-.02.74a582.14 582.14 0 0 1 0-5.91m.49 0l.02 5.17-.02.74a582.14 582.14 0 0 1 0-5.91m.5 0l.02 5.17-.02.74a582.14 582.14 0 0 1 0-5.91m.49 0l.02 5.17-.02.74a582.14 582.14 0 0 1 0-5.91m.5 0l.02 5.17-.02.74a582.14 582.14 0 0 1 0-5.91m.49 0l.02 5.17-.02.74a582.14 582.14 0 0 1 0-5.91m.5 0l.02 5.17-.02.74a582.14 582.14 0 0 1 0-5.91m.49 0l.02 5.17-.02.74a582.14 582.14 0 0 1 0-5.91m.5 0l.02 5.17-.02.74a582.14 582.14 0 0 1 0-5.91m.49 0l.02 5.17-.02.74a582.14 582.14 0 0 1 0-5.91m-28.1-7.17l9.31-.02 1.33.02a1886.83 1886.83 0 0 1-10.64 0m12.27 0l4.19-.02.6.02c.01.01-4.8.01-4.79 0m5.79 0c3.21-.06 6.99-.05 10.21-.02l1.46.02a2269.82 2269.82 0 0 1-11.67 0m-18.06.54l6.97-.02 1 .02c.01.01-7.98.01-7.97 0m9.23 0l5.15-.02.74.02c.01.01-5.9.01-5.89 0m7.12 0l11.7-.02 1.67.02c.02.01-13.38.01-13.37 0m-16.35.79c.96-.06 1.94-.06 2.9-.02l.41.02c.02.01-3.32.01-3.31 0" class="B"/><path d="M39.88 29.89l6.63-.02.95.02a957.61 957.61 0 0 1-7.58 0m8.89 0c1.05-.06 2.12-.06 3.17-.02l.45.02a218.41 218.41 0 0 1-3.62 0m4.55 0c3.2-.06 6.97-.05 10.18-.02l1.45.02c.02.01-11.64.01-11.63 0m12.16 2.08l-9.31.02-1.33-.02a1886.83 1886.83 0 0 1 10.64 0m-12.27 0l-4.19.02-.6-.02c-.01-.01 4.8-.01 4.79 0m-5.79 0c-3.21.06-6.99.05-10.21.02l-1.46-.02a2269.82 2269.82 0 0 1 11.67 0m18.06-.54l-6.97.02-1-.02c-.01-.01 7.98-.01 7.97 0m-9.23 0l-5.15.02-.74-.02c-.01-.01 5.9-.01 5.89 0m-7.12 0c-3.68.06-8.02.05-11.7.02l-1.67-.02c-.02-.01 13.38-.01 13.37 0m16.35-.79c-.96.06-1.94.06-2.9.02l-.41-.02c-.02-.01 3.32-.01 3.31 0m-4.13 0l-6.63.02-.95-.02a957.61 957.61 0 0 1 7.58 0m-8.89 0l-3.17.02-.45-.02a218.41 218.41 0 0 1 3.62 0m-4.55 0c-3.2.06-6.97.05-10.18.02l-1.45-.02c-.02-.01 11.64-.01 11.63 0m-1.94 5.09l.02 5.17-.02.74a582.14 582.14 0 0 1 0-5.91m0 7.96l.02 4.95-.02.71a533.93 533.93 0 0 1 0-5.66m26.8-6.47c.86-.06 1.75-.06 2.61-.02l.37.02a148.01 148.01 0 0 1-2.98 0m0 .89c.86-.06 1.75-.06 2.61-.02l.37.02a148.01 148.01 0 0 1-2.98 0m0 1.23c.86-.06 1.75-.06 2.61-.02l.37.02a148.01 148.01 0 0 1-2.98 0m0 1.51c.86-.06 1.75-.06 2.61-.02l.37.02a148.01 148.01 0 0 1-2.98 0m-24.16-3.63c.75-.06 1.52-.06 2.27 0h-2.27m0 .89c.75-.06 1.52-.06 2.27 0h-2.27m0 1.23c.75-.06 1.52-.06 2.27 0h-2.27m0 1.51c.75-.06 1.52-.06 2.27 0h-2.27m2.48-3.63c.75-.06 1.52-.06 2.27 0h-2.27m0 .89c.75-.06 1.52-.06 2.27 0h-2.27m0 1.23c.75-.06 1.52-.06 2.27 0h-2.27m0 1.51c.75-.06 1.52-.06 2.27 0h-2.27m24.9-3.63c.92-.06 1.86-.06 2.78-.02l.4.02c0 .01-3.19.01-3.18 0m0 .89c.92-.06 1.86-.06 2.78-.02l.4.02c0 .01-3.19.01-3.18 0m0 1.23c.92-.06 1.86-.06 2.78-.02l.4.02c0 .01-3.19.01-3.18 0m0 1.51c.92-.06 1.86-.06 2.78-.02l.4.02c0 .01-3.19.01-3.18 0" class="B"/><path d="M71.95 36.47l.02 4.53-.02.65a447.21 447.21 0 0 1 0-5.18m-1.98 0l.02 4.53-.02.65a447.21 447.21 0 0 1 0-5.18m.48 12.76l-.04-5.42v-.04h.05.88.89.05v.05l-.02 4.15c-.01 0-.01 1.39-.03 1.38v-5.53h-1.77c0-.03 0 5.43-.01 5.41m2.75 0l-.04-5.42v-.04h.05.88.89.05v.05l-.02 4.15c-.01 0-.01 1.39-.03 1.38v-5.53H73.2c.01-.03.01 5.43 0 5.41m2.79 0l-.04-5.42v-.05H76h1.63l-.02 4.19c-.01 0-.01 1.39-.02 1.38V43.8H76c0-.01 0 5.45-.01 5.43" class="B"/><path d="M72.6 36.47l.02 4.53-.02.65a447.21 447.21 0 0 1 0-5.18m3.15 0l.02 4.53-.02.65a447.21 447.21 0 0 1 0-5.18m.24 0l.02 4.53-.02.65a447.21 447.21 0 0 1 0-5.18m-27.6 7.83c-.28.06-.59.07-.86-.01l.86.01m-1.04 0a.61.61 0 0 1-.46 0v-.01c.15 0 .32-.01.46.01m-.65 0c-.24.06-.49.06-.73 0a4.45 4.45 0 0 1 .73 0m1.69 1.37c-.28.06-.59.07-.86-.01l.86.01m-1.04 0a.61.61 0 0 1-.46 0v-.01c.15 0 .32-.01.46.01m-.65 0c-.24.06-.49.06-.73 0a4.45 4.45 0 0 1 .73 0m1.69 1.93c-.28.06-.59.07-.86-.01l.86.01m-1.04 0a.61.61 0 0 1-.46 0v-.01c.15 0 .32-.01.46.01m-.65 0c-.24.06-.49.06-.73 0a4.45 4.45 0 0 1 .73 0" class="B"/><path d="M48.39 44.7a16.29 16.29 0 0 1-2.42 0h2.42m0 1.95c-.28.06-.59.07-.86-.01l.86.01m-1.04 0a.61.61 0 0 1-.46 0v-.01c.15 0 .32-.01.46.01m-.65 0c-.24.06-.49.06-.73 0a4.45 4.45 0 0 1 .73 0" class="B"/><path d="M48.39 47.05a16.29 16.29 0 0 1-2.42 0h2.42m-1.8-1.95c-.2.06-.42.06-.63 0a6.62 6.62 0 0 1 .63 0" class="B"/><path d="M47.73 45.1c-.29.06-.61.07-.89-.01l.89.01m.66 0c-.18.06-.39.06-.57 0a5.42 5.42 0 0 1 .57 0m0 2.96c-.28.06-.59.07-.86-.01l.86.01m-1.04 0a.61.61 0 0 1-.46 0v-.01c.15.01.32-.01.46.01m-.65 0c-.24.06-.49.06-.73 0h.73" class="B"/><path d="M48.39 48.46a16.29 16.29 0 0 1-2.42 0h2.42m-1.8.41c-.2.06-.42.06-.63 0 .2-.02.44-.02.63 0" class="B"/><path d="M47.73 48.87c-.29.06-.61.07-.89-.01l.89.01m.66 0c-.18.06-.39.06-.57 0 .17-.02.4-.02.57 0m-1.8-2.5c-.2.06-.42.06-.63 0a6.62 6.62 0 0 1 .63 0m1.14 0c-.29.06-.61.07-.89-.01l.89.01m.66 0c-.18.06-.39.06-.57 0a5.42 5.42 0 0 1 .57 0m22.06-2.07c-.71.06-1.45.06-2.16 0h2.16" class="B"/><path d="M67.83 44.3c-.37.06-.78.07-1.15-.01l1.15.01m-1.63 0c-.61.06-1.23.06-1.84 0h1.84m4.25 1.37c-.71.06-1.45.06-2.16 0h2.16m-2.62 0c-.37.06-.78.07-1.15-.01l1.15.01m-1.63 0c-.61.06-1.23.06-1.84 0h1.84m4.25 1.93c-.71.06-1.45.06-2.16 0h2.16m-2.62 0c-.37.06-.78.07-1.15-.01l1.15.01m-1.63 0c-.61.06-1.23.06-1.84 0h1.84m4.25-2.9l-5.33.02-.76-.02a618.14 618.14 0 0 1 6.09 0m0 1.95c-.71.06-1.45.06-2.16 0h2.16m-2.62 0c-.37.06-.78.07-1.15-.01l1.15.01m-1.63 0c-.61.06-1.23.06-1.84 0h1.84m4.25.4l-5.33.02-.76-.02a618.14 618.14 0 0 1 6.09 0" class="B"/><path d="M65.93 45.1c-.52.06-1.06.07-1.57-.01l1.57.01m2.86 0a13.96 13.96 0 0 1-2.24 0h2.24" class="B"/><path d="M70.45 45.1c-.47.06-.98.07-1.44-.01l1.44.01m0 2.96c-.71.06-1.45.06-2.16 0h2.16m-2.62 0c-.37.06-.78.07-1.15-.01l1.15.01m-1.63 0c-.61.06-1.23.06-1.84 0h1.84m4.25.4l-5.33.02-.76-.02a618.14 618.14 0 0 1 6.09 0m-4.52.41c-.52.06-1.06.07-1.57-.01l1.57.01" class="B"/><path d="M68.79 48.87a13.96 13.96 0 0 1-2.24 0h2.24" class="B"/><path d="M70.45 48.87c-.47.06-.98.07-1.44-.01l1.44.01m-4.52-2.5c-.52.06-1.06.07-1.57-.01l1.57.01" class="B"/><path d="M68.79 46.37a13.96 13.96 0 0 1-2.24 0h2.24" class="B"/><path d="M70.45 46.37c-.47.06-.98.07-1.44-.01l1.44.01m8.99-2.07c-.56.06-1.14.06-1.71 0h1.71m-4.4 4.56c.29-.06.61-.07.88.01-.29-.01-.6.01-.88-.01" class="B"/><path d="M72.77 44.3c-.18.06-.37.06-.55 0a2.53 2.53 0 0 1 .55 0m6.67 1.37c-.3.06-.64.07-.93-.01l.93.01m-3.96 1.82a.56.56 0 0 1 .44 0v.01c-.14-.01-.3.01-.44-.01m-2.28-1.82c-.32.06-.67.07-.98-.01l.98.01m6.24 1.93c-.61.06-1.25.06-1.86 0h1.86m-4.4-2.04c.29-.06.61-.07.88.01-.29-.01-.6.01-.88-.01M73.2 47.6c-.32.06-.67.07-.98-.01l.98.01" class="B"/><path d="M72.91 44.7c-.23.06-.47.06-.69 0h.69m6.53 1.95c-.34.06-.71.07-1.03-.01l1.03.01m-3.96-.14a.56.56 0 0 1 .44 0v.01c-.14-.01-.3.01-.44-.01m-2.28.14c-.32.06-.67.07-.98-.01l.98.01m6.24.4c-.61.06-1.25.06-1.86 0h1.86m-6.46-1.95c-.25.06-.51.06-.76 0h.76m2.06 2.95c.29-.06.61-.07.88.01-.29 0-.6.01-.88-.01m4.4-2.95c-.56.06-1.14.06-1.71 0h1.71m0 2.96c-.45.06-.94.07-1.38-.01l1.38.01" class="B"/><path d="M75.04 45.1c.29-.06.61-.07.88.01-.29-.01-.6.01-.88-.01m-1.84 2.96c-.32.06-.67.07-.98-.01l.98.01m0 .4c-.32.06-.67.07-.98-.01l.98.01m.11.41c-.36.06-.75.07-1.09-.01l1.09.01m1.73-4.58c.29-.06.61-.07.88.01-.29-.01-.6.01-.88-.01m4.4 4.58c-.56.06-1.14.06-1.71 0h1.71m-6.46-2.5c-.25.06-.51.06-.76 0h.76m2.06.42c.29-.06.61-.07.88.01-.29-.01-.6.01-.88-.01m4.4-.42c-.56.06-1.14.06-1.71 0h1.71m-33.47-5.09c.28-.06.59-.07.86.01-.28 0-.59.01-.86-.01" class="B"/><path d="M47.01 41.28a.61.61 0 0 1 .46 0v.01c-.15 0-.32.01-.46-.01m.65 0c.24-.06.49-.06.73 0a4.45 4.45 0 0 1-.73 0m-1.69-1.37c.28-.06.59-.07.86.01-.28 0-.59.01-.86-.01m1.04 0a.61.61 0 0 1 .46 0v.01c-.15 0-.32.01-.46-.01m.65 0c.24-.06.49-.06.73 0a4.45 4.45 0 0 1-.73 0m-1.69-1.93c.28-.06.59-.07.86.01-.28-.01-.59.01-.86-.01m1.04 0a.61.61 0 0 1 .46 0v.01c-.15-.01-.32.01-.46-.01m.65 0c.24-.06.49-.06.73 0a4.45 4.45 0 0 1-.73 0" class="B"/><path d="M45.97 40.88a16.29 16.29 0 0 1 2.42 0h-2.42m0-1.95c.28-.06.59-.07.86.01-.28 0-.59.01-.86-.01m1.04 0a.61.61 0 0 1 .46 0v.01c-.15 0-.32.01-.46-.01m.65 0c.24-.06.49-.06.73 0a4.45 4.45 0 0 1-.73 0" class="B"/><path d="M45.97 38.53a16.29 16.29 0 0 1 2.42 0h-2.42m1.8 1.95c.2-.06.42-.06.63 0h-.63" class="B"/><path d="M46.63 40.48c.29-.06.61-.07.89.01-.29-.01-.61.01-.89-.01m-.66 0c.18-.06.39-.06.57 0a5.42 5.42 0 0 1-.57 0m0-2.96c.28-.06.59-.07.86.01-.28-.01-.59.01-.86-.01m1.04 0a.61.61 0 0 1 .46 0v.01c-.15-.01-.32.01-.46-.01m.65 0c.24-.06.49-.06.73 0h-.73" class="B"/><path d="M45.97 37.12a16.29 16.29 0 0 1 2.42 0h-2.42m1.8-.41c.2-.06.42-.06.63 0-.2.02-.44.02-.63 0" class="B"/><path d="M46.63 36.71c.29-.06.61-.07.89.01-.29 0-.61.01-.89-.01m-.66 0c.18-.06.39-.06.57 0-.17.02-.4.02-.57 0m1.8 2.5c.2-.06.42-.06.63 0h-.63" class="B"/><path d="M46.63 39.21c.29-.06.61-.07.89.01-.29-.01-.61.01-.89-.01m-.66 0c.18-.06.39-.06.57 0a5.42 5.42 0 0 1-.57 0m7.84 5.09c-.14.06-.29.06-.43 0a2.06 2.06 0 0 1 .43 0h0zm0 1.37c-.14.06-.29.06-.43 0a2.06 2.06 0 0 1 .43 0h0zm0 1.93c-.14.06-.29.06-.43 0a2.06 2.06 0 0 1 .43 0h0zm0-.95c-.14.06-.29.06-.43 0a2.06 2.06 0 0 1 .43 0h0zm-.06-1.55c-.11.06-.25.06-.37 0h0c.12 0 .26-.02.37 0m.06 2.96c-.14.06-.29.06-.43 0 .13-.02.29 0 .43 0h0zm-.06.81c-.11.06-.25.06-.37 0v-.01c.12 0 .26-.01.37.01m0-2.5c-.11.06-.25.06-.37 0v-.01c.12.01.26-.01.37.01" class="B"/><path d="M53.38 41.64v-5.29c.03.01-4.91 0-4.9.01l.01-.01v5.29c-.04 0 4.89 0 4.89 0m0 .01l-4.94.03v-.03l-.02-5.29v-.05h.05l4.91.02h.03v.03l-.03 5.29" class="B"/><path d="M50.88 36.36l.02 4.63-.02.66c-.01.01-.01-5.3 0-5.29m.21 0l.02 4.63-.02.66c-.01.01-.01-5.3 0-5.29m2.29 7.46l-2.45.03-2.45.01.05-.05-.02 4.15-.03 1.38V43.8c-.01.01 4.9 0 4.9.02" class="B"/><path d="M49.28 43.81l.02 4.84-.02.69c-.01.02-.01-5.54 0-5.53m.4 0l.02 4.84-.02.69c-.01.02-.01-5.54 0-5.53m2.54 0l.02 4.84-.02.69c-.01.02-.01-5.54 0-5.53m.4 0l.02 4.84-.02.69c-.01.02-.01-5.54 0-5.53m30.58 2.83c.06 1.03.06 2.08.02 3.1l-.02.44c-.01.02-.01-3.55 0-3.54m3.66 0c.06 1.03.06 2.08.02 3.1l-.02.44c-.01.02-.01-3.55 0-3.54m-74.7-4.87l.04 2.74v.04h-.04-.67-.05v-.05l.02-2.47c.01 0 .01-.83.03-.82v3.28h.67a82.21 82.21 0 0 1 0-2.72" class="B"/><path d="M12.15 41.49c0-.08.14-1.4.33-.95-.02-.08-.01-.16-.02-.24v-.03c.02.06.06.12.06.19h-.01l.04-.49v-.02l.01.02.11.3h-.01l-.01-.29h.01l.04.29h-.01a3.05 3.05 0 0 0 .05-.8c.08.11.13.23.15.37h-.01l.03-.64v-.04l.01.04.14.45h-.02l.06-.67h.02l-.03.65h-.02l.03-1.06h.02l.06.59h-.02l-.22-1.04-.01-.05c.16.21.28.45.35.7l-.02.01-.48-1.09-.04-.09.06.07.73.78-.02.02c-.09-.2-.17-.42-.22-.63l-.01-.05.04.03a.78.78 0 0 1 .27.51h-.03c0-.03-.08-.58-.08-.6.22.27.39.58.51.9l-.03.01c-.12-.26-.18-.54-.18-.82v-.06l.03.05c.24.37.38.79.41 1.23l-.04.01c-.07-.32-.09-.65-.04-.98l.03.07a8.76 8.76 0 0 1 .4 1.19l-.04.01v-.9l.25 1.13h-.04l.08-.35.04.01a2.32 2.32 0 0 0-.02.59l-.04-.01.38-.49-.1.21c-.13.26-.25.53-.35.81l-.03-.03a.43.43 0 0 0 .25-.32l.03.01c-.11.15-.2.32-.27.49l-.04-.03c.22-.18.39-.42.48-.7l.04.03c-.11.11-.19.24-.23.39l-.04-.03a1.64 1.64 0 0 0 .51-.89l.05.01-.1.33-.05-.01.13-.6.05.01v.42h-.05v-.82h.05l-.03.6h-.05l-.02-.99v-.08l.34.44-.05.03-.22-.65.05-.02a1.24 1.24 0 0 0 .29.46l-.04.04a4.93 4.93 0 0 1-.53-.76l.05-.03c.07.13.17.24.29.34l-.04.04a2.09 2.09 0 0 0-.66-.43l-.24-.09.52.09-.01.05a6.1 6.1 0 0 0-.95-.17v-.05a4.43 4.43 0 0 0 .72-.09v.05c-.28-.03-.55-.04-.83-.02l-.01-.05c.18-.03.35-.1.51-.2l.01.05-.98-.02v-.05a2.98 2.98 0 0 0 .72-.21l.01.05-1.02-.07c-.03-.01-.06-.02-.07-.07 0-.04.03-.09.08-.07l.08.04-.08.01c-.1.01-.2-.01-.29-.05a.67.67 0 0 0 .37-.35l.05.02-.13.25-.05-.02c.13-.23.21-.5.22-.77l.05.02c-.11.13-.19.28-.22.45l-.05-.02a1.03 1.03 0 0 0 .17-.5l.04.02c-.07.07-.12.15-.16.23l-.03-.04.32-.1-.01.05c-.19-.11-.39-.19-.6-.25l.01-.05.86.21-.03.04a.93.93 0 0 0-.33-.26l.03-.04a5.28 5.28 0 0 0 .53.27c.13.04.28.13.41.12.02-.01.02-.02.03-.03 0-.02-.01-.03-.01-.03l.02-.04.21.24-.04.02c-.07-.32-.29-.61-.59-.76l.02-.05c.12.04.25.04.37 0l-.01.04a1.15 1.15 0 0 0-.65-.3l.01-.05.35.08-.03.04a.55.55 0 0 0-.3-.26l.01-.05c.15.03.31.05.47.03l-.01.05c-.24-.1-.5-.15-.75-.13v-.05c.27-.01.55-.1.77-.27l.01.04c-.35-.01-.69.1-.98.3l-.02-.04a1.08 1.08 0 0 0 .56-.59l.04.03-.57.46-.02-.08.34-.27.01.04c-.1-.03-.2-.03-.3-.02v-.04l.79.13-.02.04-.43-.31.03-.03.14.13.09.08-.62-.26-.17-.07.18.03c.11.02.23-.06.26-.16l.02.03c-.49.07-.93.41-1.12.86l.01-.1c.01-.09.11-.12.13-.2.01-.03-.02-.06-.04-.06-.01.01-.01 0 0 .02l.01.01h0c0-.19.12-.43.27-.57.16-.14.38-.23.6-.22l-.01.03-.17-.12-.11-.07.12.04 1.25.41-.02.03-.35-.29-.08-.06.1.03c.16.06.32.13.47.22l-.02.03c-.05-.06-.34-.34-.38-.4.07.03.42.22.49.26l-.02.03-.39-.5c-.03-.04-.03-.03.01-.03h.16v.03c-.33-.09-.67-.1-1.01-.06.11-.04.69-.21.82-.25v.03c-.32-.04-.64-.04-.96-.03.07-.05.27-.16.34-.2l.01.03c-.24-.02-.48.01-.69.11l-.01-.03a.94.94 0 0 0 .65-.35l.01.02a1.36 1.36 0 0 0-.75.34l-.08.09a1.02 1.02 0 0 0 .19-.44l.02.01a1.68 1.68 0 0 0-.4.48l-.02.05v-.05l.01-.52.02.01a2.59 2.59 0 0 1-.32.42v-.03-.4h.02l-.26.69-.02.06.01-.68h.02l-.2 1.1h-.02v-.38h.02l.01.73h0 0c-.03.04-.06-.03-.04-.06.1-.06.11.12.12.18l.06.31a39.82 39.82 0 0 0 .14.68l-.29-.54h.02c-.03.15-.04.31-.02.47l-.02-.04-.22-.42h.02v.53.06l-.02-.06-.24-.74h.02v.34.04c-.14-.25-.31-.48-.5-.69l.02-.01.01.43v.05l-.02-.05-.29-.61h.02l-.03.77v.05l-.02-.05-.34-.81h.02v.47.09a2.83 2.83 0 0 0-.31-.74l.02-.01a1.56 1.56 0 0 1-.07.64c-.22-.23-.42-.49-.58-.77l.03-.01.08.6.02.13-.05-.12c-.06-.17-.19-.3-.36-.37l.02-.02c.18.26.41.48.66.67-.61-.16-1.2-.39-1.75-.69l.02-.03.76.72.02.02-.01.04-.47.13-.01-.03a.43.43 0 0 0 .24-.1 1.34 1.34 0 0 0 .8.21v.04c-.1-.01-.21.01-.31.05l-.01-.04c.04.01.08.03.1.07.07.1.04.27-.08.3v-.04c.52-.01 1.03.15 1.46.44l.06.04a6.36 6.36 0 0 0-1.38.07l.01-.04c.11.09.28.13.42.09v.04a.56.56 0 0 0-.4.06v-.04c.14.07.29.12.45.12v.04c-.29-.05-.6-.02-.88.07v-.04l.94.16-.01.04c-.31-.04-.64.02-.91.18v-.04a.48.48 0 0 0 .33.06v.05a.74.74 0 0 0-.71.32l-.02-.04.57.02c-.17.04-.36.09-.49.23l-.01-.04c.07.03.15.01.21-.04l.02.04c-.12 0-.25.06-.33.15l-.02-.04c.11.02.39.01.51.01-.09.03-.28.06-.33.15-.03.04 0 .12.05.11v.05c-.12-.06-.27-.04-.37.04l.01-.01c-.01.06.02.12.07.15l-.04.02v-.2l.04.01a.74.74 0 0 0-.09.36l-.01.01c-.15.09-.25.28-.23.46-.05-.03-.11 0-.12.06l-.01-.02c.11.11.31.1.41-.01l.03.03a.27.27 0 0 0-.05.4l.02.02-.03.01a2.66 2.66 0 0 0-.53.34l-.01-.04a.13.13 0 0 0 .12-.08l.04.02c-.01.01-.01.02 0 .03.03.03.11.04.14 0 .06-.07.09-.18.18-.22v.04l.01.21-.04-.01.08-.2.04.01a1.42 1.42 0 0 0-.03.41h-.04c.02-.11.06-.21.13-.29.03.05.16.22.19.27H8.6c-.02 0-.03-.03-.03-.05.01-.06.08-.08.11-.03.04.05.04.1.05.14l.06.28h-.04l.02-.51.01.02h0 0V39c.01.02.01.02.02.01.03-.02.03-.07.02-.11h.04c0 .01 0 .01.01.02.17.01.05-.2.15-.28l.03-.02v.04l.01.24h-.03c.19-.23.36-.48.51-.75.01.03.07.28.08.31h-.03l.12-.38.01-.04c.1.17.14.38.11.58l-.03-.01.03-.14.03-.14v.14.17h-.03c.01-.08.01-.24.01-.32l.07.37h-.03c.02-.09.08-.27.1-.36l-.01.14-.04.67H9.9c.01-.05.12-1 .12-1.02.02.07.08.35.09.43h-.02c-.07-.03 0-.14.06-.1.05.03.06.09.07.14h-.01c-.14.07-.31-.14-.2-.26s.34.04.27.18l-.03.06v-.07l.05-.7h.02l.05.62v.01h-.02c-.06-.01-.06-.1 0-.11s.09.07.04.1l-.02.01v-.03l.07-.41.01.39h-.02c.09-.17.09-.37.06-.55.05.13.1.27.1.42h-.02v-.58h.02l.04.57v.02c-.04-.02-.04-.06-.01-.08.08-.07.14.04.12.11l-.01-.01c.06-.04.09-.13.06-.21l.02-.01.1.21h-.02l.11-.42c.03.5-.09 1-.34 1.44l-.01.02v-.02c-.01-.04.04-.09.05-.03a2.27 2.27 0 0 0 .06.25h-.01c.05-.04.08-.11.09-.17h.01a1.18 1.18 0 0 0 .08.56h-.01c.03-.06.04-.13.02-.19h.01c-.08.19-.05.42-.04.62h-.01c.05-.06.08-.13.08-.2h.01c-.02.07 0 .15.04.2h-.01l.02-.23h.01c-.04.06-.09.13-.07.2.01.07.15.09.16.01h.01l.07.49c.13.05.3.23.31.37l.15-.19v-.01.01l.15.39h-.01l.05-.14v-.01.01c.01.09.08.17.12.22l.03-.15h.01c-.01.03 0 .06.02.08.05.08.07.1.1.11m0 0c-.06-.01-.1-.08-.09-.13h.01l-.03.15v.01h0a.42.42 0 0 1-.13-.22h.01l-.05.14v.01-.01l-.15-.39h.01l-.15.19v.01a.61.61 0 0 0-.32-.38l-.07-.5h.01c-.01.09-.16.07-.18-.01-.02-.09.03-.16.08-.23v.02l-.02.23v.01c-.07-.07-.08-.17-.04-.26 0 .1-.03.19-.1.26v-.01c0-.21-.04-.43.04-.63l.01-.02c.03.08.02.16-.02.23-.08-.18-.11-.38-.09-.58h.01c0 .07-.04.15-.1.19-.02-.06-.04-.2-.06-.26 0-.04-.03.01-.02.03h-.01a2.54 2.54 0 0 0 .34-1.37h.02l-.09.36-.01.02-.01-.02-.1-.21.02-.01c.04.09 0 .19-.09.24v-.02c0-.04 0-.09-.04-.11-.03-.02-.09.03-.05.06l-.01.01-.08-.59h.02v.58h-.02c0-.11-.02-.21-.06-.31l.02-.01a.79.79 0 0 1-.09.5v-.04l-.01-.28h.02l-.05.3-.02-.01c.03-.01 0-.07-.02-.06-.03 0-.03.06 0 .07l-.01.01-.06-.62h.02l-.05.7-.02-.01c.06-.12-.14-.25-.23-.16s.06.28.17.22l-.01.01c-.01-.04-.02-.09-.06-.11-.03-.02-.08.04-.05.05l-.02.02-.07-.33h.03l-.11.93h-.03l.03-.67.03.01-.05.21-.02.06-.01-.06-.04-.23h.03l-.01.18h-.03v-.17h.03l-.03.14-.03-.01c.03-.18 0-.37-.08-.52h.03l-.13.44c-.01-.03-.07-.29-.08-.33h.03a4.36 4.36 0 0 1-.52.75l-.01-.29.03.01c-.06.05-.04.14-.05.2 0 .08-.13.13-.17.07-.02-.02.02-.1.02-.12.01.04.03.12.02.16-.01.1-.14.12-.12-.01 0-.01.01-.02.02-.02.02 0 .03 0 .04.01v.01l-.02.51-.01.16-.03-.16-.06-.29c-.01-.05-.02-.1-.04-.12-.01-.01-.02-.02-.04-.01l-.01.02v.01l-.02.03-.15-.2h.03c-.05.08-.09.16-.11.26l-.03.16-.01-.16a1.56 1.56 0 0 1 .03-.43l.04.01c0 .04-.09.24-.11.28l-.01-.31.03.02c-.06.04-.08.13-.14.2-.06.09-.27.02-.2-.09l.07-.07-.04.1c-.03.08-.12.11-.21.1a3.35 3.35 0 0 1 .59-.39l-.01.04c-.14-.13-.11-.38.05-.47l.12-.07-.09.1c-.12.14-.36.14-.49 0 .02-.07.08-.12.15-.13l-.02.02c-.01-.19.09-.38.25-.48l-.01.02a.7.7 0 0 1 .14-.44v.32c-.08-.04-.15-.13-.13-.23.14-.12.34-.12.49-.03l-.06.05c-.1.02-.15-.11-.11-.18s.12-.09.19-.12l.01.05-.35.01h-.05c.11-.15.28-.23.47-.21-.08.08-.2.13-.3.09l-.03-.01a.87.87 0 0 1 .37-.22l.01.05-.4-.01h-.04c.16-.26.48-.42.78-.37l.14.02h-.16a.51.51 0 0 1-.4-.08c.29-.18.64-.25.98-.21l-.01.04-.94-.15-.09-.01.08-.03c.29-.09.6-.12.9-.07v.04a1.08 1.08 0 0 1-.5-.15.66.66 0 0 1 .55-.06l-.08.02a.52.52 0 0 1-.49-.12 6.96 6.96 0 0 1 1.37-.08l-.01.04c-.42-.29-.93-.44-1.44-.44v-.04c.13-.03.12-.28-.01-.3l-.07-.01c.12-.06.25-.1.39-.08v.04a1.37 1.37 0 0 1-.81-.21h.02a.46.46 0 0 1-.25.1l-.02-.04.47-.13-.01.03-.76-.72-.1-.09.12.06c.53.29 1.09.52 1.67.67l-.01.03c-.23-.18-.44-.39-.6-.63l-.04-.04.05.02c.17.07.31.21.38.38l-.03.01-.08-.6-.02-.08c.16.29.36.57.59.82l-.02.01c.07-.21.09-.44.06-.66a3.03 3.03 0 0 1 .32.71h-.02v-.47-.06l.02.06.34.81h-.02l.03-.77v-.05l.02.04.29.61h-.02l-.01-.43v-.03c.2.2.37.43.51.68l-.02.01v-.34-.06l.02.06.24.74h-.02v-.53-.04l.02.03.22.42h-.02a1.78 1.78 0 0 1 .03-.46l.01.02.26.49-.02.01-.13-.62c-.02-.09-.06-.38-.1-.46-.01-.02-.04-.03-.05-.02s.01.05.01.04v.01l-.01-.73h.02v.38h-.02l.2-1.1h.02l-.01.61h-.02l.26-.69.02-.06v.07.4l-.02-.01a2.36 2.36 0 0 0 .32-.44v.05l-.01.52-.02-.01c.11-.2.25-.37.43-.51-.01.14-.06.28-.14.39l-.02-.02a1.39 1.39 0 0 1 .8-.35c-.19.24-.48.38-.78.39.26-.13.55-.18.84-.14l-.04.02-.31.15-.01-.03a6.92 6.92 0 0 1 .91.03l.07.01-.07.02-.67.2-.01-.03c.33-.03.67.01.99.11h-.13-.16l.01-.03.39.5.05.06-.07-.04-.4-.21.02-.03.4.42a2.62 2.62 0 0 0-.58-.29l.02-.03c.06.04.38.31.43.35l-.09-.03-1.25-.41.02-.03.23.16c-.44-.07-.89.3-.9.75 0 .01-.01.02-.02.03a.06.06 0 0 1-.07-.07c.05-.08.15.01.13.08-.02.08-.12.12-.13.19l-.04-.01c.22-.43.66-.74 1.14-.8-.03.14-.17.25-.32.22l.01-.04.51.21-.02.04-.14-.13.03-.03.43.31.08.05-.09-.02-.94-.15c.17-.03.35-.05.51.01l-.03.03-.34.27-.05-.04.57-.47.07-.05-.04.09c-.1.27-.31.5-.58.62l-.02-.04a1.73 1.73 0 0 1 1.08-.31l-.06.04c-.23.17-.51.27-.8.28v-.05a1.69 1.69 0 0 1 .86.18c-.19.02-.39.02-.58-.02l.01-.05c.14.05.25.15.32.28l.03.05-.06-.01-.35-.08.01-.05c.25.03.49.14.68.32l.03.03c-.14.06-.3.06-.45.01l.02-.05c.31.16.54.46.61.79l.02.1-.07-.07a8 8 0 0 0-.25-.28h.06c.06.01.07.09.04.13-.05.06-.15.03-.2.01-.29-.09-.57-.21-.82-.37l.03-.04a1.26 1.26 0 0 1 .39.34l-.08-.02-.86-.21.01-.05c.22.06.42.14.62.25l.05.03-.06.02-.37.11c.05-.13.14-.25.24-.35a1.02 1.02 0 0 1-.24.69c.02-.24.12-.47.3-.64-.01.3-.08.6-.23.87l-.05-.03.13-.25.05.02c-.07.15-.19.28-.34.35v-.05a.51.51 0 0 0 .21.03l-.01.05h0c-.01.02 0 .03.03.04l1.01.07.11.01-.1.04a2.64 2.64 0 0 1-.74.22v-.05l.98.02h.08c-.18.13-.38.22-.59.26l-.01-.05a5.58 5.58 0 0 1 1 .04c-.29.07-.59.12-.89.12v-.05c.32.04.64.09.95.17l-.01.05-.26-.04.01-.05a2.15 2.15 0 0 1 .68.44l-.04.04a1.43 1.43 0 0 1-.3-.35l.05-.03a4.36 4.36 0 0 0 .52.75l-.04.04c-.13-.14-.23-.3-.3-.48l.05-.02.27.8-.1-.12-.29-.37.05-.02.02.99h-.05l.03-.6h.05v.82h-.05v-.42l.05.01-.13.6-.05-.01.1-.33.05.01c-.06.36-.25.69-.52.92l-.07.06c.04-.19.13-.37.27-.5l.08-.08-.03.1a1.55 1.55 0 0 1-.57.78c.08-.21.18-.41.31-.59l.07-.11c-.02.2-.11.39-.3.47l-.05.02a8.47 8.47 0 0 1 .38-.87l.04.03a10.72 10.72 0 0 1-.28.35 2.09 2.09 0 0 1 .02-.66l.04.01c-.02.06-.09.39-.11.45l-.02-.1-.21-.93h.04v.87c-.11-.46-.25-.92-.44-1.36l.04-.01c-.03.3-.02.6.05.89l-.04.01c-.03-.43-.17-.85-.4-1.21l.03-.01a1.87 1.87 0 0 0 .17.81l-.03.01c-.11-.31-.27-.59-.47-.85l.03-.01.07.54h-.03a.84.84 0 0 0-.26-.49l.02-.01c.05.22.13.43.22.63l.03.07c-.28-.26-.54-.55-.78-.84l.02-.01.47 1.09-.02.01a1.88 1.88 0 0 0-.32-.65l.02-.01.21 1.04h-.02l-.06-.59h.02l-.03 1.06h-.02l.03-.65h.02l-.06.66v.04l-.01-.04-.14-.45h.01l-.03.64v.07a.85.85 0 0 0-.15-.41h.01c.01.27-.01.55-.06.82v-.04l-.04-.29h.01l.01.29v.03l-.01-.03-.11-.3h.01l-.04.49h-.01c0-.06-.03-.11-.05-.16h.01l.01.24.01.04-.02-.03c-.15-.42-.27.83-.28.94" class="B"/><path d="M10.61 35.56c.07.15.23.21.35.31.26.19.48.43.71.65l.36.37-.03.01c-.26.06-.52.15-.67.38-.15.22-.32.46-.31.73-.05-.28.12-.54.26-.76.14-.25.44-.34.71-.39l-.01.03c-.2-.25-.43-.47-.68-.68l-.36-.31c-.1-.08-.31-.21-.33-.34" class="B"/><path d="M12.13 35.09c.16.27.17.59.21.9s.02.62-.08.92h-.01c.04-.45.12-.92-.01-1.36.01-.01-.12-.47-.11-.46" class="B"/><path d="M13.04 36.54c-.1.06-.21.09-.32.13a.57.57 0 0 0-.28.45h-.01c-.07-.15.04-.34.17-.41l.1-.06c.1-.06.23-.12.34-.11" class="B"/><path d="M12.19 37.94a6.57 6.57 0 0 1-.08-.62c0-.07-.01-.15.04-.21.15-.03.32.03.46.11.13.08.25.23.27.37-.08-.13-.18-.24-.3-.32-.11-.08-.31-.13-.41-.14-.09.11-.02.27.01.39.02.14.03.3.01.42m-.3-1.82c.05.07.05.15.05.24.03.13.11.27.07.4-.07-.12-.07-.26-.08-.4-.03-.08-.07-.17-.04-.24" class="B"/><path d="M12.04 37.18c.1.09.26.03.29-.09.03-.1-.1-.27-.19-.16-.04.04-.04.11-.02.17 0 .02.01.05.02.03h0c.01.02-.02.03-.03.02-.09-.11-.04-.34.13-.3.14.06.14.28.05.38-.08.06-.22.04-.25-.05h0z" class="B"/><path d="M11.97 36.67a.52.52 0 0 0 .07.22c.02.04.07.11.13.1.02 0 .02-.02.02-.04.02-.15 0-.33-.16-.39.08-.03.18.07.2.14.03.09.02.18-.02.26-.01.02-.02.05-.05.05-.15 0-.26-.2-.19-.34h0zm.58.22c-.01.03-.02.06-.05.08-.02.01-.03 0-.04-.01-.04-.03-.07-.05-.09-.09-.03-.06-.02-.12-.02-.18-.01-.02 0-.05.02-.07l.04.02c-.06.09-.12.23-.07.33.04.07.26.04.21-.08m0 0c.03.02.03.06.02.1-.05.09-.23.11-.27 0a.66.66 0 0 1 .05-.37l.04.02c-.02.04 0 .07-.01.11-.01.08.03.14.08.19.03.02.06-.03.09-.05m-.76.49c.02.13.06.3.15.39.13.04.25-.12.26-.24.02-.22-.14-.42-.3-.56-.03-.02-.08-.07-.11-.07v.01h0l.01.02c0 .15-.09.34.04.45.05.05.1-.06.13-.12.03-.07.03-.17-.04-.21.01-.02.08.05.09.09.03.1-.07.37-.2.28-.17-.12-.08-.33-.06-.49l.01.02c-.03-.03-.02-.07.02-.09.08-.02.11.05.16.09.19.2.43.55.21.81-.05.06-.14.11-.23.07-.04-.03-.06-.07-.07-.1-.05-.12-.09-.25-.07-.35" class="B"/><path d="M12.25 37.27c-.06.33.3.48.37.1.02-.08.02-.17-.06-.21v-.01c.1.01.14.14.12.23-.03.22-.26.31-.42.15a.2.2 0 0 1-.01-.26" class="B"/></svg>