<svg xmlns="http://www.w3.org/2000/svg" xmlns:xlink="http://www.w3.org/1999/xlink" viewBox="0 0 100 32.68" xmlns:v="https://vecta.io/nano"><path d="M20.8 26.26v.05h-.9v-.05c.12-.06.19-.19.19-.49v-1.98c0-.3-.07-.43-.19-.49v-.05h.9v.05c-.11.06-.19.18-.19.49v1.98c0 .31.07.43.19.49zm.7-2.3c.23-.29.21-.54.07-.65v-.05h.89v.05c-.25.11-.55.36-.76.61l-.53.61.53.7c.38.5.67.81.91.95v.04c-.07.07-.2.13-.38.13-.33 0-.54-.24-.85-.67l-.6-.8v-.04l.72-.88zm4.03-.24h-.9c-.38 0-.65.12-.79.26h-.05l.11-.65h1.95v.1c-.54.76-.97 2.02-1.08 2.88h-.64c.24-.94.91-2 1.4-2.59zm3.7 1.71c0 .59-.54.92-1.19.92-.55 0-.99-.27-.99-.62 0-.2.14-.34.32-.33a.29.29 0 0 1 .31.3c0 .1-.06.2-.15.25.1.17.28.27.51.27.36 0 .62-.28.62-.7 0-.4-.22-.68-.78-.69-.06 0-.12 0-.19.01h-.03v-.06c.54-.14.88-.38.88-.79 0-.32-.19-.56-.53-.56-.24 0-.42.09-.51.26a.29.29 0 0 1 .21.29c0 .18-.13.29-.3.29-.18 0-.31-.13-.31-.33 0-.36.43-.64.97-.64.6 0 1.03.26 1.03.7 0 .35-.26.57-.62.69.43.05.75.33.75.74zm6.15-1.26c0 .63-.49.97-1.17.97-.07 0-.14 0-.21-.02v-.05c.53-.07.79-.34.79-.89 0-.59-.34-.8-.82-.8h-.17v2.39c0 .29.07.43.19.49v.05h-.9v-.05c.12-.06.19-.19.19-.49v-1.98c0-.3-.07-.43-.19-.49v-.05h.72.33c.8.01 1.24.35 1.24.92zm4.13 2.09v.05h-1.06v-.05c.15-.05.21-.26.06-.64l-.09-.23h-1.2l-.07.18c-.15.38-.07.58.11.69v.05h-.86v-.05c.19-.09.38-.3.54-.68l1.03-2.38h.07l1.02 2.43c.15.37.27.52.45.63zm-1.16-1l-.56-1.34-.53 1.34h1.09zm4.75.16v.9h-1.65-.55v-.05c.12-.06.19-.2.19-.49V23.8c0-.3-.06-.42-.19-.49v-.05h.9v.05c-.11.06-.19.19-.19.49v2.03c0 .26.11.37.39.37h.18c.52 0 .73-.25.85-.77h.07zm1.44-2.16h.76l1.13 2.42.93-2.42h.72v.05c-.12.06-.19.19-.19.49v1.98c0 .3.07.42.19.49v.05h-.9v-.05c.12-.06.19-.19.19-.49v-2.07l-1.07 2.65h-.11l-1.22-2.58.04 1.72c.01.46.14.68.31.76v.05h-.79v-.05c.16-.08.29-.31.3-.76l.02-1.46c.01-.47-.1-.63-.29-.74v-.04zm7.39 3.64l-.02-.05c.28-.25.41-.56.41-1.11v-1.95c0-.3-.06-.42-.19-.49v-.05h.91v.05c-.12.06-.19.19-.19.49v1.83c0 .68-.1 1.07-.92 1.28zm2.94-3.11c0-.3-.07-.43-.19-.49v-.05h.91v.05c-.12.06-.19.19-.19.49v1.47c0 .63.29.89.8.89.47 0 .75-.27.75-.88L56.94 24c0-.45-.19-.62-.35-.7v-.05h.88v.05c-.16.08-.33.25-.34.7l-.03 1.28c-.02.68-.35 1.06-1.02 1.06-.68 0-1.19-.26-1.19-1.05v-1.5zm4.06-.53h.76l1.13 2.42.93-2.42h.72v.05c-.12.06-.19.19-.19.49v1.98c0 .3.07.42.19.49v.05h-.9v-.05c.12-.06.19-.19.19-.49v-2.07l-1.07 2.65h-.11l-1.22-2.58.04 1.72c.01.46.14.68.31.76v.05h-.81v-.05c.16-.08.29-.31.3-.76l.02-1.46c.01-.47-.1-.63-.29-.74v-.04zm7.44 2.31v.75h-1.64-.55v-.05c.12-.06.19-.18.19-.49V23.8c0-.3-.07-.43-.19-.49v-.05h.72 1.39v.7h-.06c-.14-.37-.38-.57-.86-.57h-.47v1.33l.39-.03c.29-.02.42-.18.5-.43h.05v.98h-.05c-.09-.25-.22-.39-.51-.41l-.38-.03v1.02c0 .26.11.37.37.37h.21c.49 0 .71-.2.84-.62h.05zm2.42.69v.05h-.9v-.05c.12-.06.19-.19.19-.49v-1.98c0-.3-.07-.43-.19-.49v-.05h.9v.05c-.11.06-.19.18-.19.49v1.98c.01.31.07.43.19.49zm2.56-1.33v-.05c.57-.06.82-.37.82-.8s-.25-.69-.77-.69h-.18v2.39c0 .3.07.43.19.49v.05h-.9v-.05c.12-.06.19-.19.19-.49V23.8c0-.3-.07-.43-.19-.49v-.05h1.04c.82 0 1.21.31 1.21.81 0 .51-.42.75-.85.81l.35.42c.44.55.67.78.89.9v.05c-.09.07-.18.11-.34.11-.31 0-.5-.16-.88-.65-.21-.24-.39-.5-.58-.78zm5.96 1.33v.05h-1.06v-.05c.15-.05.21-.26.06-.64l-.09-.23h-1.2l-.07.18c-.15.38-.07.58.11.69v.05h-.86v-.05c.19-.09.38-.3.54-.68l1.03-2.38h.07l1.02 2.43c.15.37.27.52.45.63zm-1.15-1l-.56-1.34-.53 1.34h1.09zm5.23-1.47v1.98c0 .3.07.42.19.49v.05h-.9v-.05c.12-.06.19-.19.19-.49v-.93h-1.44v.93c0 .3.07.42.19.49v.05h-.9v-.05c.12-.06.19-.19.19-.49v-1.98c0-.3-.07-.43-.19-.49v-.05h.9v.05c-.11.06-.19.18-.19.49v.92h1.44v-.92c0-.3-.07-.43-.19-.49v-.05h.9v.05c-.11.07-.19.19-.19.49z" fill="#6d6e71"/><path d="M17.55 15.59c0-2.17-4.09-1.99-4.09-4.77 0-1.33 1.16-2.28 2.68-2.28 1.03 0 1.77.25 2.3.58v1.9h-.16c-.49-1.54-1.4-2.12-2.21-2.12-.84 0-1.35.54-1.35 1.25 0 2.14 4.1 2.05 4.1 4.73 0 1.37-1.03 2.4-2.78 2.4-1.16 0-1.98-.35-2.5-.65v-1.96h.15c.55 1.5 1.47 2.24 2.39 2.24.98.02 1.47-.6 1.47-1.32zm14.5-.51v2.08H27.5h-1.52v-.14c.33-.16.52-.5.52-1.35v-5.51c0-.84-.19-1.18-.52-1.35v-.14h1.99 3.85v1.94h-.16c-.39-1.02-1.07-1.57-2.38-1.57h-1.31v3.69l1.09-.08c.79-.05 1.16-.49 1.38-1.2h.14v2.72h-.14c-.24-.69-.6-1.1-1.41-1.15l-1.07-.08v2.83c0 .72.3 1.02 1.02 1.02h.58c1.36 0 1.98-.57 2.33-1.72h.16zm9.34-1.77v-.13c1.57-.18 2.29-1.03 2.29-2.23s-.69-1.93-2.14-1.93h-.5v6.63c0 .84.2 1.18.52 1.35v.14h-2.5V17c.34-.18.52-.52.52-1.35v-5.51c0-.84-.19-1.18-.52-1.35v-.12h2.9c2.28 0 3.36.87 3.36 2.25 0 1.41-1.16 2.08-2.37 2.25l.97 1.17c1.23 1.52 1.85 2.17 2.47 2.49l-.01.14c-.24.19-.49.3-.94.3-.86 0-1.4-.45-2.46-1.81-.55-.63-1.04-1.36-1.59-2.15z"/><use xlink:href="#B"/><path d="M72.52 17.36l-5.5-6.61.1 4.2c.04 1.23.42 1.84.87 2.06v.14H65.8v-.14c.44-.21.82-.86.84-2.06l.06-3.79c.03-1.28-.34-1.98-.88-2.35v-.14h1.45l5.19 6.34-.06-4.21c-.03-1.16-.38-1.76-.83-1.99v-.14h2.13v.14c-.44.21-.79.86-.83 2l-.14 6.55h-.21z"/><use xlink:href="#B" x="28"/><defs ><path id="B" d="M59.04 15.08v2.08h-4.56-1.52v-.14c.33-.16.52-.5.52-1.35v-5.51c0-.84-.19-1.18-.52-1.35v-.14h1.99 3.85v1.94h-.16c-.39-1.02-1.07-1.57-2.38-1.57h-1.31v3.69l1.09-.08c.79-.05 1.16-.49 1.38-1.2h.14v2.72h-.14c-.24-.69-.6-1.1-1.41-1.15l-1.07-.08v2.83c0 .72.3 1.02 1.02 1.02h.58c1.36 0 1.98-.57 2.33-1.72h.17z"/></defs></svg>