<?xml version="1.0" encoding="UTF-8"?>
<svg xmlns="http://www.w3.org/2000/svg" xmlns:xlink="http://www.w3.org/1999/xlink" width="150px" height="150px" viewBox="0 0 35 35" version="1.1">
<g id="surface1">
<path style=" stroke:none;fill-rule:nonzero;fill:rgb(73.333333%,54.901961%,29.019608%);fill-opacity:1;" d="M 23.980469 29.703125 C 23.105469 29.835938 22.28125 30.050781 21.445312 30.054688 C 19.894531 30.066406 19.339844 29.453125 19.503906 27.921875 C 19.613281 26.898438 19.828125 25.886719 20.078125 24.886719 C 20.628906 22.710938 21.304688 20.558594 21.796875 18.371094 C 22.050781 17.238281 22.128906 16.023438 21.625 14.914062 C 20.894531 13.324219 19.511719 12.714844 17.863281 12.539062 C 15.875 12.328125 14.070312 13.03125 12.261719 13.695312 C 11.183594 14.089844 10.964844 14.46875 11.03125 15.773438 C 11.519531 15.648438 11.996094 15.480469 12.480469 15.410156 C 15.214844 15.023438 15.710938 15.929688 15.335938 18.109375 C 15.070312 19.664062 14.558594 21.175781 14.203125 22.714844 C 13.761719 24.628906 13.230469 26.539062 12.96875 28.480469 C 12.710938 30.449219 13.894531 32.003906 15.800781 32.585938 C 16.28125 32.730469 16.785156 32.789062 17.285156 32.84375 C 19.160156 33.058594 20.855469 32.410156 22.550781 31.753906 C 23.855469 31.265625 23.929688 31.179688 23.980469 29.703125 Z M 23.980469 29.703125 "/>
<path style=" stroke:none;fill-rule:nonzero;fill:rgb(73.333333%,54.901961%,29.019608%);fill-opacity:1;" d="M 17.480469 9.304688 C 19.613281 9.320312 21.335938 7.746094 21.355469 5.753906 C 21.375 3.769531 19.679688 2.136719 17.570312 2.101562 C 15.449219 2.070312 13.644531 3.730469 13.644531 5.699219 C 13.644531 7.683594 15.359375 9.289062 17.480469 9.304688 Z M 17.480469 9.304688 "/>
</g>
</svg>
