<?xml version="1.0" encoding="UTF-8"?>
<svg xmlns="http://www.w3.org/2000/svg" xmlns:xlink="http://www.w3.org/1999/xlink" width="150px" height="150px" viewBox="0 0 35 35" version="1.1">
<g id="surface1">
<path style=" stroke:none;fill-rule:nonzero;fill:rgb(73.333333%,54.901961%,29.019608%);fill-opacity:1;" d="M 5.339844 11.25 C 5.355469 9.851562 5.828125 8.609375 6.558594 7.445312 C 6.570312 7.429688 6.578125 7.421875 6.585938 7.40625 C 7.191406 6.328125 8.085938 5.675781 9.320312 5.503906 C 9.695312 5.453125 10.070312 5.398438 10.445312 5.355469 C 10.765625 5.320312 11.015625 5.449219 11.175781 5.730469 C 11.460938 6.21875 11.734375 6.710938 12.019531 7.199219 C 12.648438 8.269531 13.273438 9.34375 13.914062 10.410156 C 14.320312 11.085938 14.316406 11.449219 13.75 12.003906 C 13.25 12.496094 12.695312 12.929688 12.164062 13.390625 C 11.914062 13.609375 11.679688 13.839844 11.441406 14.066406 C 11.054688 14.421875 10.984375 14.828125 11.234375 15.285156 C 11.539062 15.835938 11.84375 16.386719 12.171875 16.925781 C 13.203125 18.640625 14.464844 20.171875 16.050781 21.40625 C 16.785156 21.980469 17.574219 22.488281 18.359375 22.996094 C 18.835938 23.300781 19.339844 23.550781 19.839844 23.816406 C 20.21875 24.015625 20.574219 23.941406 20.855469 23.636719 C 21.300781 23.160156 21.714844 22.65625 22.15625 22.171875 C 22.480469 21.808594 22.800781 21.449219 23.160156 21.121094 C 23.585938 20.730469 23.925781 20.699219 24.421875 20.988281 C 25.105469 21.390625 25.765625 21.824219 26.445312 22.21875 C 27.230469 22.671875 28.023438 23.09375 28.820312 23.53125 C 29.671875 23.996094 29.765625 24.183594 29.605469 25.140625 C 29.535156 25.546875 29.429688 25.945312 29.339844 26.34375 C 29.175781 27.054688 28.761719 27.589844 28.179688 28.019531 C 26.90625 28.960938 25.515625 29.59375 23.90625 29.644531 C 22.996094 29.671875 22.121094 29.46875 21.273438 29.171875 C 19.898438 28.679688 18.511719 28.230469 17.210938 27.550781 C 15.839844 26.839844 14.609375 25.925781 13.449219 24.914062 C 11.828125 23.511719 10.355469 21.964844 9.039062 20.261719 C 7.808594 18.660156 6.921875 16.890625 6.296875 14.980469 C 6.011719 14.113281 5.730469 13.25 5.488281 12.371094 C 5.375 12.015625 5.378906 11.625 5.339844 11.25 Z M 5.339844 11.25 "/>
</g>
</svg>
