<?xml version="1.0" encoding="UTF-8"?>
<svg xmlns="http://www.w3.org/2000/svg" xmlns:xlink="http://www.w3.org/1999/xlink" width="150px" height="150px" viewBox="0 0 35 35" version="1.1">
<g id="surface1">
<path style=" stroke:none;fill-rule:nonzero;fill:rgb(73.333333%,54.901961%,29.019608%);fill-opacity:1;" d="M 26.238281 21.199219 C 24.285156 19.253906 22.335938 17.308594 20.390625 15.359375 C 19.429688 14.398438 18.476562 13.429688 17.511719 12.453125 C 17.429688 12.523438 17.375 12.574219 17.324219 12.625 C 14.445312 15.5 11.566406 18.375 8.695312 21.253906 C 8.601562 21.351562 8.53125 21.523438 8.53125 21.664062 C 8.519531 24.226562 8.523438 26.785156 8.523438 29.34375 C 8.523438 29.445312 8.523438 29.546875 8.523438 29.65625 C 8.613281 29.664062 8.679688 29.679688 8.738281 29.679688 C 10.726562 29.679688 12.703125 29.675781 14.691406 29.683594 C 14.949219 29.683594 14.941406 29.550781 14.941406 29.371094 C 14.941406 27.078125 14.941406 24.789062 14.941406 22.5 C 14.941406 22.394531 14.949219 22.285156 14.953125 22.183594 C 16.664062 22.183594 18.34375 22.183594 20.050781 22.183594 C 20.050781 24.691406 20.050781 27.175781 20.050781 29.660156 C 22.195312 29.660156 24.308594 29.660156 26.453125 29.660156 C 26.453125 29.53125 26.453125 29.421875 26.453125 29.308594 C 26.453125 26.785156 26.453125 24.265625 26.460938 21.738281 C 26.464844 21.515625 26.398438 21.355469 26.238281 21.199219 Z M 26.238281 21.199219 "/>
<path style=" stroke:none;fill-rule:nonzero;fill:rgb(73.333333%,54.901961%,29.019608%);fill-opacity:1;" d="M 17.5 5.316406 C 13.96875 8.855469 10.433594 12.398438 6.910156 15.933594 C 7.539062 16.566406 8.199219 17.21875 8.890625 17.914062 C 11.738281 15.050781 14.609375 12.164062 17.515625 9.238281 C 20.40625 12.144531 23.273438 15.023438 26.136719 17.894531 C 26.804688 17.226562 27.453125 16.574219 28.09375 15.933594 C 24.566406 12.398438 21.03125 8.855469 17.5 5.316406 Z M 17.5 5.316406 "/>
</g>
</svg>
