<?xml version="1.0" encoding="UTF-8"?>
<svg xmlns="http://www.w3.org/2000/svg" xmlns:xlink="http://www.w3.org/1999/xlink" width="150px" height="150px" viewBox="0 0 35 35" version="1.1">
<g id="surface1">
<path style=" stroke:none;fill-rule:nonzero;fill:rgb(73.333333%,54.901961%,29.019608%);fill-opacity:1;" d="M 24.054688 6.058594 C 23.945312 13.824219 24.289062 22.183594 24.179688 29.949219 C 26.191406 29.949219 28.199219 29.949219 30.214844 29.949219 C 30.214844 23.589844 30.214844 17.226562 30.214844 10.863281 C 28.78125 8.921875 26.445312 6.898438 24.054688 6.058594 Z M 24.054688 6.058594 "/>
<path style=" stroke:none;fill-rule:nonzero;fill:rgb(73.333333%,54.901961%,29.019608%);fill-opacity:1;" d="M 4.878906 25.941406 L 4.878906 29.949219 L 22.773438 29.949219 L 22.773438 25.214844 Z M 4.878906 25.941406 "/>
<path style=" stroke:none;fill-rule:nonzero;fill:rgb(73.333333%,54.901961%,29.019608%);fill-opacity:1;" d="M 4.878906 10.335938 C 4.925781 11.761719 4.75 13.234375 4.796875 14.660156 C 9.113281 11.335938 14.695312 9.183594 22.773438 10.335938 C 22.773438 8.796875 22.773438 7.265625 22.773438 5.730469 C 17.519531 4.261719 11.761719 4.910156 4.878906 10.335938 Z M 4.878906 10.335938 "/>
<path style=" stroke:none;fill-rule:nonzero;fill:rgb(73.333333%,54.901961%,29.019608%);fill-opacity:1;" d="M 4.878906 15.675781 C 4.878906 17.039062 4.878906 18.398438 4.878906 19.761719 C 9.84375 16.871094 15.804688 15.933594 22.773438 16.988281 C 22.773438 15.390625 22.773438 13.789062 22.773438 12.183594 C 17.070312 11.03125 11.121094 12.09375 4.878906 15.675781 Z M 4.878906 15.675781 "/>
<path style=" stroke:none;fill-rule:nonzero;fill:rgb(73.333333%,54.901961%,29.019608%);fill-opacity:1;" d="M 4.878906 20.644531 C 4.878906 22.070312 4.878906 23.5 4.878906 24.921875 C 10.691406 23.410156 16.613281 23.164062 22.773438 23.410156 C 22.773438 22.015625 22.773438 19.996094 22.773438 18.601562 C 16.316406 18.003906 10.386719 18.785156 4.878906 20.644531 Z M 4.878906 20.644531 "/>
</g>
</svg>
