<?xml version="1.0" encoding="UTF-8"?>
<svg xmlns="http://www.w3.org/2000/svg" xmlns:xlink="http://www.w3.org/1999/xlink" width="150px" height="150px" viewBox="0 0 35 35" version="1.1">
<g id="surface1">
<path style=" stroke:none;fill-rule:nonzero;fill:rgb(73.333333%,54.901961%,29.019608%);fill-opacity:1;" d="M 22.21875 17.621094 L 22.21875 8.054688 L 25.433594 8.054688 L 25.433594 7.304688 L 12.316406 7.304688 L 12.316406 3.074219 L 3.886719 3.074219 L 3.886719 7.304688 L 1 7.304688 L 1 8.054688 L 3.511719 8.054688 L 3.511719 28.71875 L 2.75 28.71875 L 2.75 32.304688 L 31.21875 32.304688 L 31.21875 20.308594 L 34.371094 20.308594 L 34.371094 17.621094 Z M 33.625 19.558594 L 16.875 19.558594 L 16.875 18.371094 L 33.625 18.371094 Z M 16.875 16.769531 L 16.875 17.621094 L 5.878906 17.621094 L 5.878906 16.769531 Z M 21.46875 8.054688 L 21.46875 8.71875 L 4.261719 8.71875 L 4.261719 8.054688 Z M 30.476562 31.550781 L 29.351562 31.550781 L 29.351562 22.484375 L 17.898438 22.484375 L 17.898438 31.550781 L 16.871094 31.550781 L 16.871094 20.308594 L 30.46875 20.308594 L 30.46875 31.550781 Z M 30.476562 31.550781 "/>
<path style="fill:none;stroke-width:1;stroke-linecap:butt;stroke-linejoin:miter;stroke:rgb(100%,100%,100%);stroke-opacity:1;stroke-miterlimit:10;" d="M 15.9375 17.4375 L 15.9375 33.539062 " transform="matrix(0.5,0,0,0.5,0,0)"/>
<path style="fill:none;stroke-width:1;stroke-linecap:butt;stroke-linejoin:miter;stroke:rgb(100%,100%,100%);stroke-opacity:1;stroke-miterlimit:10;" d="M 15.9375 38.882812 L 15.9375 58.507812 " transform="matrix(0.5,0,0,0.5,0,0)"/>
<path style="fill:none;stroke-width:1;stroke-linecap:butt;stroke-linejoin:miter;stroke:rgb(100%,100%,100%);stroke-opacity:1;stroke-miterlimit:10;" d="M 11.757812 33.539062 L 11.757812 58.507812 " transform="matrix(0.5,0,0,0.5,0,0)"/>
<path style="fill:none;stroke-width:1;stroke-linecap:butt;stroke-linejoin:miter;stroke:rgb(100%,100%,100%);stroke-opacity:1;stroke-miterlimit:10;" d="M 22 45.71875 L 22 57.429688 " transform="matrix(0.5,0,0,0.5,0,0)"/>
<path style="fill:none;stroke-width:1;stroke-linecap:butt;stroke-linejoin:miter;stroke:rgb(100%,100%,100%);stroke-opacity:1;stroke-miterlimit:10;" d="M 24.617188 17.4375 L 24.617188 33.539062 " transform="matrix(0.5,0,0,0.5,0,0)"/>
<path style="fill:none;stroke-width:1;stroke-linecap:butt;stroke-linejoin:miter;stroke:rgb(100%,100%,100%);stroke-opacity:1;stroke-miterlimit:10;" d="M 33.226562 17.4375 L 33.226562 33.539062 " transform="matrix(0.5,0,0,0.5,0,0)"/>
<path style=" stroke:none;fill-rule:nonzero;fill:rgb(100%,100%,100%);fill-opacity:1;" d="M 5.875 18.371094 L 16.40625 18.371094 L 16.40625 31.550781 L 3.496094 31.550781 L 3.496094 29.253906 L 13.554688 29.253906 L 13.554688 19.441406 L 5.875 19.441406 Z M 5.875 18.371094 "/>
</g>
</svg>
