<svg xmlns="http://www.w3.org/2000/svg" xmlns:xlink="http://www.w3.org/1999/xlink" viewBox="0 0 100 32.68" xmlns:v="https://vecta.io/nano"><path d="M21.27 22.19v.78h-.06c-.18-.54-.5-.9-1.01-.9-.62 0-1.08.55-1.08 1.54 0 1 .47 1.55 1.14 1.55.52 0 .8-.32.96-.86h.06v.75c-.24.16-.61.25-1.05.25-.97 0-1.73-.61-1.73-1.69 0-1 .73-1.67 1.71-1.67.44-.01.78.1 1.06.25zm2.66 3v.05h-.98v-.05c.13-.06.21-.19.21-.52v-2.13l-.4.09v-.05l.96-.57v2.66c0 .32.08.45.21.52zm1.56-.22c.75-.59 1.52-1.23 1.52-2.04 0-.47-.22-.77-.59-.77-.26 0-.46.12-.53.33.16.03.27.15.27.32 0 .18-.14.31-.33.31s-.33-.16-.33-.37c0-.4.45-.75 1.02-.75.72 0 1.1.41 1.1.92 0 .71-.8 1.32-1.7 1.9h.92c.44 0 .65-.12.82-.28h.05l-.13.69H25.5v-.26zm6.06-.6c0 .51-.5.92-1.21.92-.61 0-1.14-.29-1.14-.83 0-.41.35-.69.76-.79-.37-.19-.69-.42-.69-.83 0-.55.54-.83 1.11-.83.62 0 1.06.32 1.06.76 0 .4-.34.63-.73.71.43.2.84.43.84.89zm-.46.23c0-.45-.53-.64-1.02-.88-.2.15-.34.42-.34.69a.69.69 0 0 0 .74.72c.37 0 .62-.24.62-.53zm-.49-1.17c.2-.15.3-.38.3-.63 0-.33-.19-.64-.6-.64-.33 0-.53.19-.53.46-.01.41.4.61.83.81zm7.53-.47c0 .68-.52 1.04-1.25 1.04-.07 0-.15 0-.23-.02v-.05c.57-.08.85-.37.85-.95 0-.63-.36-.86-.87-.86h-.18v2.55c0 .31.08.45.2.52v.05h-.96v-.05c.13-.07.2-.2.2-.52v-2.12c0-.32-.07-.46-.2-.52v-.05h.76.35c.85 0 1.33.37 1.33.98zm4.4 2.23v.05H41.4v-.05c.16-.06.23-.28.06-.68l-.1-.25h-1.28l-.07.19c-.16.4-.07.62.12.74v.05h-.91v-.05c.2-.1.41-.32.58-.73l1.1-2.54h.07l1.08 2.59c.16.39.29.56.48.68zm-1.23-1.07l-.6-1.43-.57 1.43h1.17zm5.06.16v.96H44.6h-.58v-.05c.12-.06.2-.21.2-.52v-2.12c0-.32-.07-.45-.2-.52v-.05h.96v.05c-.12.06-.2.2-.2.52v2.16c0 .28.12.39.42.39h.19c.55 0 .78-.27.91-.82h.06zm1.53-2.3h.81l1.2 2.58.99-2.58h.76v.05c-.13.07-.2.2-.2.52v2.12c0 .32.07.45.2.52v.05h-.95v-.05c.13-.07.2-.2.2-.52v-2.21l-1.15 2.83h-.12l-1.31-2.76.04 1.84c.01.49.16.73.33.81v.05h-.84v-.05c.17-.08.31-.33.32-.81l.02-1.55c.01-.5-.11-.68-.31-.79v-.05zm7.89 3.89l-.02-.05c.3-.27.44-.6.44-1.18v-2.08c0-.32-.07-.45-.2-.52v-.05h.97v.05c-.13.07-.2.2-.2.52v1.95c-.02.72-.12 1.13-.99 1.36zm3.14-3.32c0-.32-.07-.46-.2-.52v-.05h.97v.05c-.12.07-.2.2-.2.52v1.57c0 .67.31.95.85.95.5 0 .8-.29.8-.93l-.01-1.35c0-.48-.2-.66-.37-.75v-.05h.94v.05c-.17.08-.35.27-.37.75l-.03 1.37c-.02.73-.38 1.13-1.09 1.13-.73 0-1.27-.28-1.27-1.12v-1.62zm4.32-.57h.81l1.2 2.58.99-2.58H67v.05c-.13.07-.2.2-.2.52v2.12c0 .32.07.45.2.52v.05h-.96v-.05c.13-.07.2-.2.2-.52v-2.21l-1.15 2.83h-.12l-1.31-2.76.04 1.84c.01.49.16.73.33.81v.05h-.84v-.05c.17-.08.31-.33.32-.81l.02-1.55c.01-.5-.11-.68-.31-.79v-.05zm7.93 2.46v.8h-1.75-.58v-.05c.12-.06.2-.19.2-.52v-2.12c0-.32-.07-.46-.2-.52v-.05h.76 1.48v.74h-.06c-.15-.39-.41-.6-.91-.6h-.5v1.42l.42-.03c.3-.02.45-.19.53-.46h.05v1.04h-.05c-.09-.27-.23-.42-.54-.44l-.41-.03v1.09c0 .28.12.39.39.39h.22c.52 0 .76-.22.9-.66h.05zm2.59.75v.05h-.96v-.05c.12-.06.2-.2.2-.52v-2.12c0-.32-.07-.46-.2-.52v-.05h.96v.05c-.12.06-.2.19-.2.52v2.12c0 .32.07.45.2.52zm2.72-1.42v-.05c.6-.07.88-.4.88-.86s-.27-.74-.82-.74h-.19v2.55c0 .32.08.45.2.52v.05h-.96v-.05c.13-.07.2-.2.2-.52v-2.12c0-.32-.07-.46-.2-.52v-.05h1.11c.88 0 1.29.33 1.29.87s-.44.8-.91.87l.37.45c.47.59.71.83.95.96v.05c-.09.07-.19.12-.36.12-.33 0-.54-.17-.94-.7-.22-.25-.41-.53-.62-.83zm6.36 1.42v.05h-1.13v-.05c.16-.06.23-.28.06-.68l-.1-.25h-1.28l-.07.19c-.16.4-.07.62.12.74v.05h-.91v-.05c.2-.1.41-.32.58-.73l1.1-2.54h.07l1.08 2.59c.16.39.29.56.48.68zm-1.23-1.07l-.6-1.43-.57 1.43h1.17zm5.59-1.57v2.12c0 .32.07.45.2.52v.05h-.96v-.05c.13-.06.2-.2.2-.52v-.99H85.1v.99c0 .32.07.45.2.52v.05h-.96v-.05c.12-.06.2-.2.2-.52v-2.12c0-.32-.07-.46-.2-.52v-.05h.96v.05c-.12.06-.2.19-.2.52v.99h1.54v-.99c0-.32-.07-.46-.2-.52v-.05h.96v.05c-.12.07-.2.2-.2.52z" fill="#6d6e71"/><use xlink:href="#B"/><path d="M21.67 10.97c0-.75-.17-1.05-.47-1.19v-.12h2.22v.12c-.29.16-.47.46-.47 1.19v3.6c0 1.54.72 2.18 1.96 2.18 1.15 0 1.85-.66 1.83-2.15l-.03-3.11c-.01-1.11-.46-1.51-.86-1.71v-.12h2.17v.12c-.4.19-.81.62-.84 1.72l-.08 3.15c-.06 1.68-.87 2.6-2.51 2.6-1.67 0-2.93-.63-2.93-2.57v-3.71zm18.26 6.36l-4.86-5.84.09 3.72c.03 1.09.37 1.62.77 1.82v.12h-1.94v-.12c.39-.19.72-.76.75-1.82l.06-3.35c.02-1.13-.3-1.75-.78-2.08v-.12h1.28l4.58 5.61-.06-3.73c-.02-1.02-.33-1.56-.73-1.76v-.12h1.88v.12c-.39.19-.7.76-.73 1.77l-.12 5.78h-.19zm11.29-3.57v-.11c1.39-.16 2.02-.91 2.02-1.97s-.61-1.7-1.89-1.7h-.44v5.86c0 .75.18 1.05.46 1.19v.12h-2.21v-.12c.3-.16.46-.46.46-1.19v-4.87c0-.75-.17-1.05-.46-1.19v-.12h2.56c2.01 0 2.97.77 2.97 1.99 0 1.25-1.02 1.84-2.09 1.99l.86 1.03c1.09 1.35 1.63 1.91 2.18 2.2l-.02.13c-.21.17-.43.27-.83.27-.76 0-1.24-.4-2.17-1.6-.47-.57-.91-1.22-1.4-1.91zm17.07 3.27v.12h-2.6v-.12c.38-.13.52-.65.14-1.57l-.23-.56h-2.94l-.17.43c-.37.92-.17 1.44.27 1.7v.12h-2.1v-.12c.47-.22.93-.73 1.33-1.67l2.54-5.83h.17l2.49 5.96c.37.88.67 1.26 1.1 1.54zm-2.82-2.46l-1.37-3.29-1.3 3.29h2.67zm14.98-4.91v.12c-.49.2-1.01.73-1.55 1.71l-1.26 2.31v2.04c0 .73.18 1.03.47 1.19v.12h-2.22v-.12c.31-.16.47-.46.47-1.19V14.1l-1.65-2.91c-.46-.79-.78-1.22-1.2-1.41v-.12h2.69v.12c-.5.31-.36.97-.06 1.5l1.3 2.27 1.03-2.08c.38-.77.32-1.44-.14-1.69v-.12h2.12z"/><use xlink:href="#B" x="75.83"/><defs ><path id="B" d="M13.83 15.77c0-1.91-3.62-1.76-3.62-4.22 0-1.18 1.02-2.01 2.37-2.01.91 0 1.57.22 2.04.51v1.68h-.14c-.43-1.36-1.24-1.87-1.96-1.87-.75 0-1.19.48-1.19 1.1 0 1.89 3.63 1.81 3.63 4.18 0 1.21-.91 2.12-2.46 2.12-1.02 0-1.75-.31-2.21-.58v-1.74h.13c.49 1.32 1.3 1.98 2.11 1.98.87.03 1.3-.51 1.3-1.15z"/></defs></svg>