<svg xmlns="http://www.w3.org/2000/svg" viewBox="0 0 18 18" fill="#d2ab67" xmlns:v="https://vecta.io/nano"><path d="M7.94 10.6L10.72 9 7.94 7.4v3.2zM9 0C4.03 0 0 4.03 0 9s4.03 9 9 9 9-4.03 9-9-4.03-9-9-9zm5.33 9.61c0 .12-.01.23-.02.35s-.01.25-.02.37c-.01.1-.01.19-.02.29-.01.11-.03.21-.04.32-.02.22-.05.44-.12.65-.16.52-.51.84-1.04.96-.14.03-.29.05-.43.06l-.36.03c-.11.01-.23.02-.34.02-.09.01-.18.01-.27.02-.12.01-.23.01-.35.02-.14.01-.28.01-.42.02-.1 0-.2.01-.29.01s-.19.01-.28.01l-1.95.01h-.1c-.18 0-.36 0-.54-.01-.1 0-.21 0-.31-.01-.05 0-.1-.01-.16-.01h-.32c-.14 0-.27-.01-.41-.02l-.42-.03c-.08 0-.15-.01-.23-.01-.09-.01-.17-.01-.25-.02-.06-.01-.11-.01-.17-.02-.07-.01-.15-.01-.22-.02-.15-.02-.3-.04-.45-.08a1.33 1.33 0 0 1-.94-.99 1.91 1.91 0 0 1-.06-.33 9.51 9.51 0 0 1-.07-.56c-.01-.1-.02-.2-.02-.3-.01-.13-.02-.26-.02-.39-.01-.13-.01-.27-.02-.4l-.01-1.06c0-.13.01-.26.01-.39a2.45 2.45 0 0 1 .02-.27c.01-.11.01-.22.02-.33l.03-.32c.02-.13.03-.26.06-.38.03-.16.05-.32.11-.47.19-.49.54-.79 1.06-.88.14-.02.28-.04.42-.05.15-.02.31-.03.46-.04.14-.01.27-.02.41-.02a5.18 5.18 0 0 1 .41-.04c.1 0 .2 0 .3-.01.18 0 .35-.01.53-.02.1 0 .2-.01.3-.01l1.85-.01h.27c.14 0 .27.01.41.01a3.42 3.42 0 0 1 .32.01 7.7 7.7 0 0 1 .48.02c.12 0 .23.01.35.02.1 0 .19.01.29.02.08 0 .17.01.25.02.27.02.54.05.81.08a1.94 1.94 0 0 1 .53.12c.4.18.66.47.77.89.05.21.08.42.12.63.02.11.02.23.03.34a3.02 3.02 0 0 1 .02.3c.01.14.02.27.02.41.01.15.01.3.02.45l.01.68c-.01.13-.01.24-.02.36z"/></svg>