<?xml version="1.0" encoding="UTF-8"?>
<svg xmlns="http://www.w3.org/2000/svg" xmlns:xlink="http://www.w3.org/1999/xlink" width="150px" height="150px" viewBox="0 0 35 35" version="1.1">
<g id="surface1">
<path style="fill:none;stroke-width:1.5;stroke-linecap:butt;stroke-linejoin:miter;stroke:rgb(73.333333%,54.901961%,29.019608%);stroke-opacity:1;stroke-miterlimit:10;" d="M 2 15.359375 L 50.867188 15.359375 " transform="matrix(0.5,0,0,0.5,0,0)"/>
<path style="fill:none;stroke-width:1.5;stroke-linecap:butt;stroke-linejoin:miter;stroke:rgb(73.333333%,54.901961%,29.019608%);stroke-opacity:1;stroke-miterlimit:10;" d="M 61.703125 39.867188 L 61.703125 63.851562 L 6.25 63.851562 L 6.25 58.179688 L 26.367188 58.179688 L 26.367188 39.867188 L 11.007812 39.867188 L 11.007812 35.992188 " transform="matrix(0.5,0,0,0.5,0,0)"/>
<path style="fill:none;stroke-width:1.5;stroke-linecap:butt;stroke-linejoin:miter;stroke:rgb(73.333333%,54.901961%,29.019608%);stroke-opacity:1;stroke-miterlimit:10;" d="M 43.6875 15.359375 L 43.6875 36.03125 L 47.03125 36.03125 " transform="matrix(0.5,0,0,0.5,0,0)"/>
<path style="fill:none;stroke-width:1.5;stroke-linecap:butt;stroke-linejoin:miter;stroke:rgb(73.333333%,54.901961%,29.019608%);stroke-opacity:1;stroke-miterlimit:10;" d="M 7.773438 15.359375 L 7.773438 58.179688 " transform="matrix(0.5,0,0,0.5,0,0)"/>
<path style="fill:none;stroke-width:1.5;stroke-linecap:butt;stroke-linejoin:miter;stroke:rgb(73.333333%,54.901961%,29.019608%);stroke-opacity:1;stroke-miterlimit:10;" d="M 7.773438 18.1875 L 43.6875 18.1875 " transform="matrix(0.5,0,0,0.5,0,0)"/>
<path style="fill:none;stroke-width:1.5;stroke-linecap:butt;stroke-linejoin:miter;stroke:rgb(73.333333%,54.901961%,29.019608%);stroke-opacity:1;stroke-miterlimit:10;" d="M 11.007812 35.992188 L 43.6875 35.992188 " transform="matrix(0.5,0,0,0.5,0,0)"/>
<path style="fill:none;stroke-width:1.5;stroke-linecap:butt;stroke-linejoin:miter;stroke:rgb(73.333333%,54.901961%,29.019608%);stroke-opacity:1;stroke-miterlimit:10;" d="M 33 35.992188 L 68 35.992188 L 68 39.867188 L 33 39.867188 Z M 33 35.992188 " transform="matrix(0.5,0,0,0.5,0,0)"/>
<path style="fill:none;stroke-width:1.5;stroke-linecap:butt;stroke-linejoin:miter;stroke:rgb(73.333333%,54.901961%,29.019608%);stroke-opacity:1;stroke-miterlimit:10;" d="M 11.007812 39.867188 L 11.007812 58.179688 " transform="matrix(0.5,0,0,0.5,0,0)"/>
<path style="fill:none;stroke-width:1.5;stroke-linecap:butt;stroke-linejoin:miter;stroke:rgb(73.333333%,54.901961%,29.019608%);stroke-opacity:1;stroke-miterlimit:10;" d="M 16 39.867188 L 16 58.179688 " transform="matrix(0.5,0,0,0.5,0,0)"/>
<path style="fill:none;stroke-width:1.5;stroke-linecap:butt;stroke-linejoin:miter;stroke:rgb(73.333333%,54.901961%,29.019608%);stroke-opacity:1;stroke-miterlimit:10;" d="M 22 45.71875 L 22 58.179688 " transform="matrix(0.5,0,0,0.5,0,0)"/>
<path style="fill:none;stroke-width:1.5;stroke-linecap:butt;stroke-linejoin:miter;stroke:rgb(73.333333%,54.901961%,29.019608%);stroke-opacity:1;stroke-miterlimit:10;" d="M 33 39.867188 L 33 63.851562 " transform="matrix(0.5,0,0,0.5,0,0)"/>
<path style="fill:none;stroke-width:1.5;stroke-linecap:butt;stroke-linejoin:miter;stroke:rgb(73.333333%,54.901961%,29.019608%);stroke-opacity:1;stroke-miterlimit:10;" d="M 33 18.1875 L 33 36.03125 " transform="matrix(0.5,0,0,0.5,0,0)"/>
<path style="fill:none;stroke-width:1.5;stroke-linecap:butt;stroke-linejoin:miter;stroke:rgb(73.333333%,54.901961%,29.019608%);stroke-opacity:1;stroke-miterlimit:10;" d="M 24.632812 18.1875 L 24.632812 32.789062 " transform="matrix(0.5,0,0,0.5,0,0)"/>
<path style="fill:none;stroke-width:1.5;stroke-linecap:butt;stroke-linejoin:miter;stroke:rgb(73.333333%,54.901961%,29.019608%);stroke-opacity:1;stroke-miterlimit:10;" d="M 16 18.1875 L 16 32.789062 " transform="matrix(0.5,0,0,0.5,0,0)"/>
<path style="fill:none;stroke-width:1.5;stroke-linecap:butt;stroke-linejoin:miter;stroke:rgb(73.333333%,54.901961%,29.019608%);stroke-opacity:1;stroke-miterlimit:10;" d="M 33 32.789062 L 11.007812 32.789062 L 11.007812 35.992188 " transform="matrix(0.5,0,0,0.5,0,0)"/>
<path style="fill:none;stroke-width:1.5;stroke-linecap:butt;stroke-linejoin:miter;stroke:rgb(73.333333%,54.901961%,29.019608%);stroke-opacity:1;stroke-miterlimit:10;" d="M 36.546875 45.71875 L 57.953125 45.71875 L 57.953125 63.859375 L 36.546875 63.859375 Z M 36.546875 45.71875 " transform="matrix(0.5,0,0,0.5,0,0)"/>
<path style="fill:none;stroke-width:1.5;stroke-linecap:butt;stroke-linejoin:miter;stroke:rgb(73.333333%,54.901961%,29.019608%);stroke-opacity:1;stroke-miterlimit:10;" d="M 7.773438 14.539062 L 7.773438 6.148438 L 24.632812 6.148438 L 24.632812 15.359375 " transform="matrix(0.5,0,0,0.5,0,0)"/>
</g>
</svg>
