<svg xmlns="http://www.w3.org/2000/svg" viewBox="0 0 18 18" fill="#d2ab67" xmlns:v="https://vecta.io/nano"><path d="M12.1 5.35c-1.1-.94-2.38-1.3-3.81-1.09-1.22.19-2.22.78-2.99 1.74-.92 1.18-1.22 2.51-.93 3.98.12.58.35 1.11.67 1.6.04.06.06.11.04.18l-.2.73-.25.93c.03-.01.05-.01.06-.01l1.64-.43c.07-.03.12-.02.18.02 1.24.74 2.56.92 3.95.49a4.59 4.59 0 0 0 2.46-1.82c.76-1.1 1.01-2.32.75-3.64-.2-1.08-.73-1.97-1.57-2.68zm-.86 6.19c-.45.22-.9.19-1.37.06-1.27-.37-2.23-1.16-3.01-2.21-.24-.32-.47-.65-.61-1.03-.17-.44-.19-.88-.01-1.32.09-.23.24-.42.42-.58.13-.14.31-.16.51-.14.25-.06.36.09.45.32l.41 1c.05.1.05.2-.03.29l-.34.47c-.09.11-.1.16-.02.28a3.97 3.97 0 0 0 1.97 1.69c.13.05.19.04.28-.07l.44-.54c.09-.11.15-.14.28-.09l.77.35.41.2a.22.22 0 0 1 .14.22c-.01.52-.24.88-.69 1.1zM9 0C4.03 0 0 4.03 0 9s4.03 9 9 9 9-4.03 9-9-4.03-9-9-9zm4.5 12.5c-.84 1.09-1.96 1.77-3.31 2.06a5.61 5.61 0 0 1-2.64-.07c-.41-.11-.81-.27-1.19-.46a.19.19 0 0 0-.14-.03l-2.85.75c-.03.01-.07.01-.1.01l.27-1 .51-1.87.01-.03c-.01-.04 0-.09-.02-.13a5.72 5.72 0 0 1-.7-2.35 5.37 5.37 0 0 1 .71-3.25 5.65 5.65 0 0 1 2.21-2.18c.69-.38 1.43-.62 2.22-.68 1.3-.11 2.51.16 3.61.87 1.14.74 1.96 1.75 2.36 3.05.59 1.92.28 3.71-.95 5.31z"/></svg>